SplineFontDB: 3.0
FontName: AnkaCoder-r
FullName: Anka/Coder Regular
FamilyName: Anka/Coder
Weight: Book
Copyright: Copyright (c) 2010, Andrey Makarov (makarov@bmstu.ru, mka-at-mailru@mail.ru),\nwith Reserved Font Name Anka/Coder.\n---------------------------------\nThe Anka/* are members of Anna Shugol name font family; March 2010
Version: 001.100
ItalicAngle: 0
UnderlinePosition: -292
UnderlineWidth: 150
Ascent: 1638
Descent: 410
LayerCount: 2
Layer: 0 0 "Back"  1
Layer: 1 0 "Fore"  0
NeedsXUIDChange: 1
XUID: [1021 77 1780377344 13105259]
UseXUID: 1
BaseHoriz: 0
FSType: 8
OS2Version: 1
OS2_WeightWidthSlopeOnly: 0
OS2_UseTypoMetrics: 1
CreationTime: 1260467214
ModificationTime: 1351154353
PfmFamily: 49
TTFWeight: 400
TTFWidth: 5
LineGap: 0
VLineGap: 0
Panose: 2 11 5 9 2 5 2 2 2 4
OS2TypoAscent: 0
OS2TypoAOffset: 1
OS2TypoDescent: 0
OS2TypoDOffset: 1
OS2TypoLinegap: 0
OS2WinAscent: 0
OS2WinAOffset: 1
OS2WinDescent: 0
OS2WinDOffset: 1
HheadAscent: 0
HheadAOffset: 1
HheadDescent: 0
HheadDOffset: 1
OS2SubXSize: 553
OS2SubYSize: 1229
OS2SubXOff: 0
OS2SubYOff: 283
OS2SupXSize: 553
OS2SupYSize: 1229
OS2SupXOff: 0
OS2SupYOff: 977
OS2StrikeYSize: 102
OS2StrikeYPos: 530
OS2FamilyClass: 1285
OS2Vendor: 'AVM1'
OS2CodePages: 40000097.cfd60000
OS2UnicodeRanges: 800002ef.000079eb.00000000.00000000
MacStyle: 0
DEI: 91125
ShortTable: maxp 16
  0
  0
  0
  0
  0
  0
  0
  2
  1
  0
  9
  0
  256
  0
  0
  0
EndShort
TtTable: prep
PUSHW_1
 511
SCANCTRL
SVTCA[y-axis]
MPPEM
PUSHB_1
 8
LT
IF
PUSHB_2
 1
 1
INSTCTRL
EIF
PUSHB_2
 70
 6
CALL
IF
POP
PUSHB_1
 16
EIF
MPPEM
PUSHB_1
 20
GT
IF
POP
PUSHB_1
 128
EIF
SCVTCI
PUSHB_1
 6
CALL
NOT
IF
EIF
EndTTInstrs
TtTable: fpgm
PUSHB_1
 0
FDEF
PUSHB_1
 0
SZP0
MPPEM
PUSHB_1
 42
LT
IF
PUSHB_1
 74
SROUND
EIF
PUSHB_1
 0
SWAP
MIAP[rnd]
RTG
PUSHB_1
 6
CALL
IF
RTDG
EIF
MPPEM
PUSHB_1
 42
LT
IF
RDTG
EIF
DUP
MDRP[rp0,rnd,grey]
PUSHB_1
 1
SZP0
MDAP[no-rnd]
RTG
ENDF
PUSHB_1
 1
FDEF
DUP
DUP
MDRP[rp0,min,white]
MDAP[rnd]
PUSHB_1
 7
CALL
NOT
IF
DUP
DUP
GC[orig]

StartChar: exclam
Encoding: 33 33 1
Width: 1229
VWidth: 1708
GlyphClass: 2
Flags: W
HStem: -96 354<491.607 737.243>
VStem: 428 373<-33.3516 193.342> 490 244<970.267 1401.76> 530 164<414 724.374>
LayerCount: 2
Fore
SplineSet
801 81 m 0xc0
 801 -22 713 -96 614 -96 c 0
 518 -96 428 -21 428 81 c 0
 428 174 509 258 614 258 c 0
 711 258 801 186 801 81 c 0xc0
611 1429 m 0
 688 1429 734 1377 734 1280 c 1xa0
 694 414 l 1
 530 414 l 1x90
 490 1281 l 1xa0
 490 1377 540 1429 611 1429 c 0
EndSplineSet
Validated: 3073
EndChar

StartChar: quotedbl
Encoding: 34 34 2
Width: 1229
VWidth: 1708
GlyphClass: 2
Flags: W
HStem: 943 512<304 449 736 879>
LayerCount: 2
Fore
SplineSet
379 991 m 2
 360 958 330 943 304 943 c 0
 269 943 239 970 239 1017 c 0
 239 1026 241 1038 244 1048 c 2
 322 1367 l 2
 335 1419 395 1455 449 1455 c 0
 521 1455 561 1391 561 1332 c 0
 561 1311 556 1290 546 1273 c 2
 379 991 l 2
809 991 m 2
 790 958 762 943 736 943 c 0
 701 943 669 970 669 1017 c 0
 669 1026 671 1038 674 1048 c 2
 752 1367 l 2
 765 1419 825 1455 879 1455 c 0
 951 1455 991 1391 991 1332 c 0
 991 1311 986 1290 976 1273 c 2
 809 991 l 2
EndSplineSet
Validated: 3073
EndChar

StartChar: numbersign
Encoding: 35 35 3
Width: 1229
VWidth: 1708
GlyphClass: 2
Flags: W
HStem: 0 21G<199 355.871 618 774.871> 341 150<62 266 448 684 866 1072> 898 150<170 375 557 793 975 1180>
LayerCount: 2
Fore
SplineSet
946 898 m 1
 866 491 l 1
 1101 491 l 1
 1072 341 l 1
 837 341 l 1
 771 0 l 1
 618 0 l 1
 684 341 l 1
 418 341 l 1
 352 0 l 1
 199 0 l 1
 266 341 l 1
 33 341 l 1
 62 491 l 1
 295 491 l 1
 375 898 l 1
 141 898 l 1
 170 1048 l 1
 404 1048 l 1
 463 1350 l 1
 618 1350 l 1
 557 1048 l 1
 822 1048 l 1
 881 1350 l 1
 1034 1350 l 1
 975 1048 l 1
 1209 1048 l 1
 1180 898 l 1
 946 898 l 1
527 898 m 1
 448 491 l 1
 714 491 l 1
 793 898 l 1
 527 898 l 1
EndSplineSet
Validated: 3073
EndChar

StartChar: dollar
Encoding: 36 36 4
Width: 1229
VWidth: 2334
GlyphClass: 2
Flags: W
HStem: -23 150<350.707 541 691 837.247> 1271 151<392.372 541 691 881.058>
VStem: 68 150<229.633 325> 139 150<957.148 1183.19> 541 150<-93 -20.4829 129 653 864 1271 1420.44 1494> 980 150<243.253 508.336 1063 1184.17>
LayerCount: 2
Fore
SplineSet
541 864 m 1xdc
 541 1271 l 1
 419 1257 289 1204 289 1063 c 2
 289 1033 l 2
 289 1007 311 944 434 901 c 2
 541 864 l 1xdc
691 653 m 1
 691 129 l 1
 856 150 980 248 980 337 c 2
 980 367 l 2
 980 472 922 571 770 625 c 2
 691 653 l 1
691 -93 m 1
 541 -93 l 1
 541 -23 l 1
 261 -6 68 129 68 325 c 1
 218 325 l 1xec
 218 217 355 141 541 127 c 1
 541 705 l 1
 384 759 l 2
 218 816 139 923 139 1033 c 2
 139 1063 l 2
 139 1262 293 1400 541 1422 c 1
 541 1494 l 1
 691 1494 l 1
 691 1423 l 1
 1066 1401 1124 1207 1124 1063 c 1
 974 1063 l 1
 974 1146 958 1253 691 1271 c 1
 691 811 l 1
 820 767 l 2
 1040 692 1130 527 1130 367 c 2
 1130 337 l 2
 1130 147 923 0 691 -23 c 1
 691 -93 l 1
EndSplineSet
Validated: 3073
EndChar

StartChar: percent
Encoding: 37 37 5
Width: 1229
VWidth: 1708
GlyphClass: 2
Flags: W
HStem: -12 150<849.598 986.112> 364 150<851.931 988.262> 882 150<238.598 375.112> 1258 150<240.931 377.262>
VStem: 73 150<1043.05 1243.81> 393 150<1047.97 1245.11> 684 150<149.053 349.808> 1004 150<153.972 351.11>
LayerCount: 2
Fore
SplineSet
684 251 m 3
 684 431 781 514 919 514 c 27
 1057 514 1154 431 1154 251 c 3
 1154 80 1057 -12 919 -12 c 27
 781 -12 684 80 684 251 c 3
1004 251 m 3
 1004 323 973 364 919 364 c 3
 868 364 834 309 834 251 c 3
 834 181 864 138 919 138 c 27
 974 138 1004 201 1004 251 c 3
1103 1374 m 1
 1217 1276 l 1
 128 27 l 1
 14 125 l 1
 1103 1374 l 1
73 1145 m 3
 73 1325 170 1408 308 1408 c 27
 446 1408 543 1325 543 1145 c 3
 543 974 446 882 308 882 c 27
 170 882 73 974 73 1145 c 3
393 1145 m 3
 393 1217 362 1258 308 1258 c 3
 257 1258 223 1203 223 1145 c 3
 223 1075 253 1032 308 1032 c 27
 363 1032 393 1095 393 1145 c 3
EndSplineSet
Validated: 3073
EndChar

StartChar: ampersand
Encoding: 38 38 6
Width: 1229
VWidth: 2334
GlyphClass: 2
Flags: W
HStem: -25 150<346.432 799.75> 1275 150<439.984 802.666>
VStem: 68 150<231.861 483.243> 259 150<1025.52 1240.73> 842 150<1049.19 1234.48>
LayerCount: 2
Fore
SplineSet
877 230 m 1
 526 683 l 1
 372 579 l 2
 245 493 218 429 218 367 c 2
 218 337 l 2
 218 205 375 125 569 125 c 2
 595 125 l 2
 638 125 784 125 877 230 c 1
970 111 m 1
 898 40 780 -25 595 -25 c 2
 569 -25 l 2
 280 -25 68 120 68 337 c 2
 68 367 l 2
 68 515 171 627 280 699 c 2
 432 800 l 1
 291 965 259 1069 259 1140 c 2
 259 1162 l 2
 259 1281 344 1425 603 1425 c 2
 631 1425 l 2
 847 1425 992 1317 992 1157 c 2
 992 1098 l 18
 992 1050 968 979 814 876 c 2
 651 767 l 1
 959 369 l 1
 1094 625 l 1
 1226 555 l 1
 1060 239 l 1
 1202 56 l 1
 1084 -36 l 1
 970 111 l 1
842 1103 m 2
 842 1157 l 2
 842 1228 759 1275 631 1275 c 2
 603 1275 l 2
 520 1275 409 1255 409 1162 c 2
 409 1140 l 2
 409 1089 460 996 557 884 c 1
 732 1002 l 2
 779 1032 842 1078 842 1103 c 2
EndSplineSet
Validated: 3073
EndChar

StartChar: quotesingle
Encoding: 39 39 7
Width: 1229
VWidth: 1708
GlyphClass: 2
Flags: W
HStem: 943 512<518 663>
VStem: 453 322
LayerCount: 2
Fore
SplineSet
593 991 m 2
 574 958 544 943 518 943 c 0
 483 943 453 970 453 1017 c 0
 453 1026 455 1038 458 1048 c 2
 536 1367 l 2
 549 1419 609 1455 663 1455 c 0
 735 1455 775 1391 775 1332 c 0
 775 1311 770 1290 760 1273 c 2
 593 991 l 2
EndSplineSet
Validated: 3073
EndChar

StartChar: parenleft
Encoding: 40 40 8
Width: 1229
VWidth: 1708
GlyphClass: 2
Flags: W
VStem: 378 150<497.632 930.695>
LayerCount: 2
Fore
SplineSet
528 722 m 0
 528 417 771 143 1060 -14 c 1
 988 -146 l 1
 684 19 378 333 378 722 c 0
 378 1098 684 1416 994 1549 c 1
 1054 1411 l 1
 770 1289 528 1012 528 722 c 0
EndSplineSet
Validated: 3073
EndChar

StartChar: parenright
Encoding: 41 41 9
Width: 1229
VWidth: 1708
GlyphClass: 2
Flags: W
VStem: 703 150<497.632 930.582>
LayerCount: 2
Fore
SplineSet
853 722 m 0
 853 333 548 19 241 -146 c 1
 169 -14 l 1
 460 143 703 417 703 722 c 0
 703 1012 461 1288 175 1411 c 1
 235 1549 l 1
 547 1415 853 1098 853 722 c 0
EndSplineSet
Validated: 3073
EndChar

StartChar: asterisk
Encoding: 42 42 10
Width: 1229
VWidth: 1708
GlyphClass: 2
Flags: W
HStem: 642 146<199.998 289.07 940.93 1030> 1020 20G<594.5 635.5>
VStem: 540 150<703 1033.31>
LayerCount: 2
Fore
SplineSet
891 349 m 2
 900 336 905 321 905 306 c 0
 905 282 894 259 874 244 c 0
 861 235 846 230 831 230 c 0
 807 230 784 241 769 261 c 2
 615 473 l 1
 461 261 l 2
 446 241 423 230 399 230 c 0
 384 230 369 235 356 244 c 0
 336 259 325 282 325 306 c 0
 325 321 330 336 339 349 c 2
 494 561 l 1
 245 642 l 2
 214 652 193 682 193 713 c 0
 193 721 194 728 197 736 c 0
 207 767 237 788 268 788 c 0
 276 788 283 787 291 784 c 2
 540 703 l 1
 540 965 l 2
 540 1006 574 1040 615 1040 c 0
 656 1040 690 1006 690 965 c 2
 690 703 l 1
 939 784 l 2
 947 787 954 788 962 788 c 0
 993 788 1023 767 1033 736 c 0
 1036 728 1037 721 1037 713 c 0
 1037 682 1016 652 985 642 c 2
 736 561 l 1
 891 349 l 2
EndSplineSet
Validated: 3073
EndChar

StartChar: plus
Encoding: 43 43 11
Width: 1229
VWidth: 1708
GlyphClass: 2
Flags: W
HStem: 525 150<204 540 690 1026>
VStem: 540 150<157 525 675 1011>
LayerCount: 2
Fore
SplineSet
1026 675 m 1
 1026 525 l 1
 690 525 l 1
 690 157 l 1
 540 157 l 1
 540 525 l 1
 204 525 l 1
 204 675 l 1
 540 675 l 1
 540 1011 l 1
 690 1011 l 1
 690 675 l 1
 1026 675 l 1
EndSplineSet
Validated: 3073
EndChar

StartChar: comma
Encoding: 44 44 12
Width: 1229
VWidth: 1947
GlyphClass: 2
Flags: W
HStem: -315 55<459.09 494.273>
VStem: 593 168<-156.071 104>
LayerCount: 2
Fore
SplineSet
557 -50 m 0
 506 -25 468 17 468 65 c 0
 468 141 527 210 614 210 c 0
 699 210 761 143 761 65 c 0
 759 -133 693 -289 463 -315 c 1
 448 -260 l 1
 500 -241 593 -182 593 -117 c 0
 593 -95 591 -66 557 -50 c 0
EndSplineSet
Validated: 3073
EndChar

StartChar: hyphen
Encoding: 45 45 13
Width: 1229
VWidth: 1708
GlyphClass: 2
Flags: W
HStem: 525 150<204 1026>
LayerCount: 2
Fore
SplineSet
1026 675 m 1
 1026 525 l 1
 204 525 l 1
 204 675 l 1
 1026 675 l 1
EndSplineSet
Validated: 3073
EndChar

StartChar: period
Encoding: 46 46 14
Width: 1229
VWidth: 1708
GlyphClass: 2
Flags: MW
LayerCount: 2
Fore
SplineSet
671 -38 m 25
 669 -38 l 25
 669 -26 l 25
 667 -26 l 25
 667 -40 l 25
 671 -40 l 25
 671 -38 l 25
663 -38 m 9
 661 -38 l 17
 661 -32 l 9
 663 -32 l 1
 663 -38 l 9
601 -20 m 9
 603 -20 l 25
 603 -14 l 25
 607 -14 l 25
 607 -20 l 25
 609 -20 l 25
 609 -6 l 25
 603 -6 l 17
 601 -10 l 1
 601 -20 l 9
604 -8 m 9
 607 -8 l 25
 607 -12 l 25
 603 -12 l 17
 603 -10 l 1
 604 -8 l 9
615 -12 m 25
 615 -20 l 25
 617 -20 l 17
 617 -12 l 1
 616 -10 l 9
 611 -10 l 17
 611 -20 l 9
 613 -20 l 17
 613 -12 l 9
 615 -12 l 25
623 -12 m 25
 623 -20 l 25
 625 -20 l 17
 625 -12 l 1
 624 -10 l 9
 619 -10 l 17
 619 -20 l 9
 621 -20 l 25
 621 -12 l 25
 623 -12 l 25
629 -16 m 25
 631 -16 l 25
 631 -18 l 25
 629 -18 l 25
 629 -16 l 25
628 -20 m 9
 633 -20 l 17
 633 -12 l 1
 632 -10 l 9
 627 -10 l 25
 627 -12 l 25
 631 -12 l 25
 631 -14 l 25
 628 -14 l 17
 627 -16 l 1
 627 -18 l 1
 628 -20 l 9
639 -32 m 25
 639 -40 l 25
 641 -40 l 17
 641 -32 l 1
 640 -30 l 1
 637 -30 l 1
 637 -26 l 1
 635 -26 l 9
 635 -40 l 25
 637 -40 l 25
 637 -32 l 25
 639 -32 l 25
632 -32 m 1
 627 -32 l 25
 627 -28 l 25
 633 -28 l 1
 633 -26 l 9
 626 -26 l 17
 625 -28 l 1
 625 -32 l 1
 626 -34 l 9
 631 -34 l 17
 631 -38 l 1
 625 -38 l 1
 625 -40 l 9
 632 -40 l 17
 633 -38 l 1
 633 -34 l 1
 632 -32 l 1
647 -38 m 25
 645 -38 l 25
 645 -30 l 25
 643 -30 l 17
 643 -38 l 1
 644 -40 l 9
 649 -40 l 25
 649 -30 l 25
 647 -30 l 25
 647 -38 l 25
653 -38 m 25
 653 -32 l 25
 655 -32 l 25
 655 -38 l 25
 653 -38 l 25
652 -30 m 17
 651 -32 l 1
 651 -38 l 1
 652 -40 l 9
 655 -40 l 25
 655 -42 l 25
 651 -42 l 25
 651 -44 l 25
 656 -44 l 17
 657 -42 l 1
 657 -30 l 9
 652 -30 l 17
660 -30 m 17
 659 -32 l 1
 659 -38 l 1
 660 -40 l 9
 664 -40 l 17
 665 -38 l 1
 665 -32 l 1
 664 -30 l 9
 660 -30 l 17
761 59 m 0
 761 -19 701 -86 614 -86 c 0
 531 -86 468 -20 468 59 c 0
 468 136 527 204 614 204 c 0
 699 204 761 138 761 59 c 0
EndSplineSet
Validated: 3073
EndChar

StartChar: slash
Encoding: 47 47 15
Width: 1229
VWidth: 1708
GlyphClass: 2
Flags: W
LayerCount: 2
Fore
SplineSet
959 1462 m 1
 1089 1388 l 1
 270 -62 l 1
 140 12 l 1
 959 1462 l 1
EndSplineSet
Validated: 3073
EndChar

StartChar: zero
Encoding: 48 48 16
Width: 1229
VWidth: 1708
GlyphClass: 2
Flags: W
HStem: -25 150<447.639 788.409> 1275 150<428.271 801.511>
VStem: 117 150<453.526 1066.65> 965 150<349.36 977.741>
LayerCount: 2
Fore
SplineSet
345 283 m 1
 405 170 497 125 616 125 c 0
 899 125 965 344 965 732 c 0
 965 826 960 910 946 982 c 1
 345 283 l 1
616 1275 m 0
 390 1275 267 1157 267 732 c 0
 267 620 275 526 290 449 c 1
 888 1144 l 1
 835 1229 750 1275 616 1275 c 0
1115 732 m 0
 1115 308 1030 -25 616 -25 c 0
 433 -25 315 51 241 163 c 1
 105 5 l 1
 26 143 l 1
 171 312 l 1
 127 445 117 597 117 732 c 0
 117 1086 198 1425 616 1425 c 0
 797 1425 915 1363 990 1263 c 1
 1125 1419 l 1
 1199 1275 l 1
 1064 1119 l 1
 1103 1005 1115 870 1115 732 c 0
EndSplineSet
Validated: 3073
EndChar

StartChar: one
Encoding: 49 49 17
Width: 1229
VWidth: 1708
GlyphClass: 2
Flags: W
HStem: -0 21G<685 835> 1390 20G<694.435 835>
VStem: 685 150<0 1177>
LayerCount: 2
Fore
SplineSet
835 1410 m 1
 835 0 l 1
 685 -0 l 1
 685 1177 l 1
 480 1092 l 1
 444 1134 l 1
 714 1410 l 1
 835 1410 l 1
EndSplineSet
Validated: 3073
EndChar

StartChar: two
Encoding: 50 50 18
Width: 1229
VWidth: 2334
GlyphClass: 2
Flags: W
HStem: 0 150<301 1099> 1275 150<372.976 849.25>
VStem: 949 150<936.503 1187.82>
LayerCount: 2
Fore
SplineSet
603 1425 m 2
 628 1425 l 2
 931 1425 1099 1288 1099 1064 c 2
 1099 1024 l 2
 1099 975 1057 855 958 774 c 2
 433 348 l 2
 376 302 328 225 301 150 c 1
 1099 150 l 1
 1099 0 l 1
 159 0 l 1
 159 198 l 1
 193 293 253 395 338 464 c 2
 863 890 l 2
 925 941 948 1018 949 1024 c 2
 949 1064 l 2
 949 1233 790 1275 628 1275 c 2
 603 1275 l 2
 389 1275 332 1217 286 1142 c 1
 158 1220 l 1
 243 1359 362 1425 603 1425 c 2
EndSplineSet
Validated: 3073
EndChar

StartChar: three
Encoding: 51 51 19
Width: 1229
VWidth: 2334
GlyphClass: 2
Flags: W
HStem: -25 150<386.447 821.137> 734 150<382 780.672> 1275 150<391.028 805.986>
VStem: 130 150<215.938 305> 883 150<975.976 1205.53> 949 150<246.408 622.737>
CounterMasks: 1 e0
LayerCount: 2
Fore
SplineSet
631 884 m 2xf4
 779 884 883 1008 883 1052 c 2
 883 1093 l 2
 883 1239 744 1275 628 1275 c 2
 603 1275 l 2
 448 1275 334 1219 297 1153 c 1
 167 1227 l 1
 243 1362 424 1425 603 1425 c 2
 628 1425 l 2
 878 1425 1033 1292 1033 1093 c 2
 1033 1052 l 2xf8
 1033 1050 1011 903 896 827 c 1
 1031 757 1099 626 1099 457 c 2
 1099 437 l 2
 1099 176 966 -25 628 -25 c 2
 603 -25 l 2
 339 -25 130 103 130 305 c 1
 280 305 l 1
 280 182 455 125 603 125 c 2
 628 125 l 2
 836 125 949 214 949 437 c 2
 949 457 l 2
 949 623 868 733 631 734 c 2
 382 734 l 1
 382 884 l 1
 631 884 l 2xf4
EndSplineSet
Validated: 3073
EndChar

StartChar: four
Encoding: 52 52 20
Width: 1229
VWidth: 1708
GlyphClass: 2
Flags: W
HStem: -0 21G<850 1000> 352 150<338 850 1000 1160> 1405 20G<870.915 1000>
VStem: 850 150<0 352 502 1139>
LayerCount: 2
Fore
SplineSet
1000 352 m 1
 1000 0 l 1
 850 -0 l 1
 850 352 l 1
 131 352 l 1
 131 485 l 1
 887 1425 l 1
 1000 1425 l 1
 1000 502 l 1
 1160 502 l 1
 1160 352 l 1
 1000 352 l 1
850 1139 m 1
 338 502 l 1
 850 502 l 1
 850 1139 l 1
EndSplineSet
Validated: 3073
EndChar

StartChar: five
Encoding: 53 53 21
Width: 1229
VWidth: 2334
GlyphClass: 2
Flags: W
HStem: -25 150<348.026 826.553> 804 150<447.883 822.73> 1250 150<403 1075>
VStem: 949 150<255.743 674.666>
CounterMasks: 1 e0
LayerCount: 2
Fore
SplineSet
166 724 m 1
 275 1400 l 1
 1075 1400 l 1
 1075 1250 l 1
 403 1250 l 1
 342 873 l 1
 425 926 520 954 603 954 c 2
 628 954 l 2
 943 954 1099 763 1099 507 c 2
 1099 447 l 2
 1099 114 900 -25 628 -25 c 2
 529 -25 l 2
 371 -25 164 56 88 210 c 1
 224 273 l 1
 272 182 418 125 529 125 c 2
 628 125 l 2
 863 125 949 245 949 447 c 2
 949 507 l 2
 949 699 840 804 628 804 c 2
 603 804 l 2
 516 804 384 751 319 642 c 1
 166 724 l 1
EndSplineSet
Validated: 3073
EndChar

StartChar: six
Encoding: 54 54 22
Width: 1229
VWidth: 2334
GlyphClass: 2
Flags: W
HStem: -25 150<417.297 822.291> 804 150<419.734 821.538> 1275 150<424.037 884.854>
VStem: 130 150<256.398 664.205 847 1133.92> 949 150<251.743 681.277>
CounterMasks: 1 e0
LayerCount: 2
Fore
SplineSet
280 487 m 2
 280 427 l 2
 280 185 457 125 603 125 c 2
 628 125 l 2
 839 125 949 232 949 427 c 2
 949 487 l 2
 949 715 835 804 628 804 c 2
 603 804 l 2
 374 804 280 662 280 487 c 2
603 954 m 2
 628 954 l 2
 967 954 1099 750 1099 487 c 2
 1099 427 l 2
 1099 170 944 -25 628 -25 c 2
 603 -25 l 2
 338 -25 130 129 130 427 c 2
 130 974 l 2
 130 1214 301 1425 603 1425 c 2
 628 1425 l 2
 809 1425 972 1401 1053 1272 c 1
 927 1192 l 1
 896 1241 822 1275 628 1275 c 2
 603 1275 l 2
 387 1275 280 1135 280 974 c 2
 280 847 l 1
 360 915 469 954 603 954 c 2
EndSplineSet
Validated: 3073
EndChar

StartChar: seven
Encoding: 55 55 23
Width: 1229
VWidth: 1708
GlyphClass: 2
Flags: W
HStem: -0 21G<251 468.5> 1250 150<130 915>
VStem: 251 156<0 121.765>
LayerCount: 2
Fore
SplineSet
1099 1246 m 1
 777 806 530 418 407 -0 c 1
 355 0 303 0 251 -0 c 1
 370 436 618 838 915 1250 c 1
 130 1250 l 1
 130 1400 l 1
 1099 1400 l 1
 1099 1246 l 1
EndSplineSet
Validated: 3073
EndChar

StartChar: eight
Encoding: 56 56 24
Width: 1229
VWidth: 2334
GlyphClass: 2
Flags: W
HStem: -25 150<415.753 833.641> 734 150<446.819 787.715> 1275 150<432.32 799.409>
VStem: 130 150<252.539 613.993> 198 150<971.52 1198.59> 883 150<971.067 1201.91> 949 150<233.094 628.368>
CounterMasks: 1 e0
LayerCount: 2
Fore
SplineSet
628 1275 m 2xec
 603 1275 l 2
 440 1275 348 1184 348 1116 c 2
 348 1064 l 2
 348 990 448 884 600 884 c 2
 631 884 l 2
 784 884 883 991 883 1063 c 2
 883 1115 l 2
 883 1184 791 1275 628 1275 c 2xec
1033 1115 m 2
 1033 1063 l 2xec
 1033 981 986 892 906 827 c 1
 1020 767 1099 653 1099 447 c 2
 1099 395 l 2
 1099 140 941 -25 628 -25 c 2
 603 -25 l 2
 331 -25 130 143 130 395 c 2
 130 447 l 2xf2
 130 615 197 750 331 823 c 1
 247 888 198 979 198 1064 c 2
 198 1116 l 2
 198 1281 370 1425 603 1425 c 2
 628 1425 l 2
 848 1425 1033 1292 1033 1115 c 2
280 447 m 2xf2
 280 395 l 2
 280 220 424 125 603 125 c 2
 628 125 l 2
 868 125 949 233 949 395 c 2
 949 447 l 2
 949 639 872 733 631 734 c 2
 600 734 l 2
 437 733 280 675 280 447 c 2xf2
EndSplineSet
Validated: 3073
EndChar

StartChar: nine
Encoding: 57 57 25
Width: 1229
VWidth: 2334
GlyphClass: 2
Flags: W
HStem: -25 150<347.051 824.145> 478 150<414.477 835.475> 1275 150<421.634 818.453>
VStem: 130 150<761.227 1143.02> 949 150<247.043 567 736.758 1147.85>
CounterMasks: 1 e0
LayerCount: 2
Fore
SplineSet
949 930 m 2
 949 1005 l 2
 949 1187 804 1275 628 1275 c 2
 603 1275 l 2
 383 1275 280 1143 280 1005 c 2
 280 930 l 2
 280 739 392 628 603 628 c 2
 628 628 l 2
 869 628 949 734 949 930 c 2
628 478 m 2
 603 478 l 2
 292 478 130 673 130 930 c 2
 130 1005 l 2
 130 1221 295 1425 603 1425 c 2
 628 1425 l 2
 905 1425 1099 1258 1099 1005 c 2
 1099 431 l 2
 1099 159 945 -25 628 -25 c 2
 603 -25 l 2
 427 -25 257 -1 177 128 c 1
 305 208 l 1
 335 161 411 125 603 125 c 2
 628 125 l 2
 838 125 949 219 949 431 c 2
 949 567 l 1
 872 509 766 478 628 478 c 2
EndSplineSet
Validated: 3073
EndChar

StartChar: less
Encoding: 60 60 28
Width: 1229
VWidth: 1708
GlyphClass: 2
Flags: W
LayerCount: 2
Fore
SplineSet
244 678 m 1
 986 1158 l 1
 986 980 l 1
 399 600 l 1
 986 220 l 1
 986 42 l 1
 244 522 l 1
 244 678 l 1
EndSplineSet
Validated: 3073
EndChar

StartChar: equal
Encoding: 61 61 29
Width: 1229
VWidth: 1708
GlyphClass: 2
Flags: W
HStem: 325 150<204 1026> 767 150<204 1026>
LayerCount: 2
Fore
SplineSet
1026 917 m 1
 1026 767 l 1
 204 767 l 1
 204 917 l 1
 1026 917 l 1
1026 475 m 1
 1026 325 l 1
 204 325 l 1
 204 475 l 1
 1026 475 l 1
EndSplineSet
Validated: 3073
EndChar

StartChar: greater
Encoding: 62 62 30
Width: 1229
VWidth: 1708
GlyphClass: 2
Flags: W
LayerCount: 2
Fore
SplineSet
244 1160 m 1
 986 679 l 1
 986 521 l 1
 244 40 l 1
 244 219 l 1
 832 600 l 1
 244 981 l 1
 244 1160 l 1
EndSplineSet
Validated: 3073
EndChar

StartChar: question
Encoding: 63 63 31
Width: 1229
VWidth: 1708
GlyphClass: 2
Flags: W
HStem: -97 318<500.325 731.5> 1275 150<376.621 853.469>
VStem: 130 150<1097 1191.29> 446 337<-43.7558 167.395> 541 150<370 584.489> 949 150<932.906 1194.34>
LayerCount: 2
Fore
SplineSet
541 510 m 2xec
 541 610 594 664 672 730 c 2
 863 892 l 2
 937 953 949 998 949 1024 c 2
 949 1095 l 2
 949 1239 767 1275 628 1275 c 2
 603 1275 l 2
 474 1275 283 1243 280 1093 c 1
 130 1097 l 1
 133 1232 231 1425 603 1425 c 2
 628 1425 l 2
 988 1425 1099 1242 1099 1095 c 2
 1099 1024 l 2
 1099 925 1040 847 959 778 c 2
 770 616 l 2
 700 557 691 537 691 510 c 2
 691 370 l 1
 541 370 l 1
 541 510 l 2xec
783 62 m 0xf4
 783 -31 703 -97 614 -97 c 0
 527 -97 446 -30 446 62 c 0
 446 146 519 221 614 221 c 0
 702 221 783 156 783 62 c 0xf4
EndSplineSet
Validated: 3073
EndChar

StartChar: at
Encoding: 64 64 32
Width: 1229
VWidth: 1708
GlyphClass: 2
Flags: W
HStem: -25 150<440.875 941.087> 360 150<709.676 962.834> 926 150<700.658 1009> 1275 150<423.415 873.205>
VStem: 29 150<438.274 992.54> 506 150<567.721 880.164> 1009 150<340 405 557.433 926 1076 1174.17>
CounterMasks: 2 f0 0e
LayerCount: 2
Fore
SplineSet
835 926 m 2
 723 926 656 884 656 734 c 3
 656 572 719 510 835 510 c 3
 944 510 1009 587 1009 639 c 2
 1009 926 l 1
 959 926 835 926 835 926 c 2
616 -25 m 3
 291 -25 29 242 29 732 c 3
 29 1089 205 1425 616 1425 c 3
 1021 1425 1153 1234 1159 1076 c 1
 1159 340 l 1
 1009 340 l 1
 1009 405 l 1
 960 377 901 360 835 360 c 3
 681 360 506 441 506 734 c 3
 506 946 617 1076 835 1076 c 2
 835 1076 923 1076 1009 1076 c 1
 999 1235 775 1275 616 1275 c 3
 266 1275 179 963 179 732 c 3
 179 316 385 125 616 125 c 3
 772 125 903 137 981 191 c 1
 1067 69 l 1
 957 -25 716 -25 616 -25 c 3
EndSplineSet
Validated: 3073
EndChar

StartChar: B
Encoding: 66 66 33
Width: 1229
VWidth: 1947
GlyphClass: 2
Flags: W
HStem: 0 150<280 867.014> 712 150<280 818.104> 1250 150<280 828.392>
VStem: 130 150<150 712 862 1250> 877 150<915.088 1205.21> 949 150<222.769 628.297>
LayerCount: 2
Fore
SplineSet
628 0 m 2xf4
 130 0 l 1
 130 1400 l 1
 556 1400 l 2
 858 1400 1027 1339 1027 1095 c 2
 1027 1024 l 2xf8
 1027 918 993 847 933 799 c 1
 1050 734 1099 624 1099 485 c 2
 1099 337 l 2
 1099 135 968 0 628 0 c 2xf4
949 337 m 2xf4
 949 485 l 2
 949 621 889 712 628 712 c 2
 280 712 l 1
 280 150 l 1
 628 150 l 2
 883 150 949 225 949 337 c 2xf4
556 862 m 2
 843 862 877 928 877 1024 c 2
 877 1095 l 2xf8
 877 1205 834 1250 556 1250 c 2
 280 1250 l 1
 280 862 l 1
 556 862 l 2
EndSplineSet
Validated: 3073
EndChar

StartChar: C
Encoding: 67 67 34
Width: 1229
VWidth: 1947
GlyphClass: 2
Flags: W
HStem: -25 150<463.539 820.814> 1275 150<443.554 835.117>
VStem: 130 150<360.456 1067.25> 958 144<1097.62 1154.76>
LayerCount: 2
Fore
SplineSet
654 -25 m 2
 621 -25 l 2
 425 -25 130 79 130 696 c 2
 130 763 l 2
 130 1239 326 1425 620 1425 c 2
 654 1425 l 2
 896 1425 1039 1306 1102 1102 c 1
 958 1058 l 1
 919 1184 844 1275 654 1275 c 2
 620 1275 l 2
 416 1275 280 1157 280 763 c 2
 280 696 l 2
 280 393 354 125 621 125 c 2
 654 125 l 2
 819 125 898 212 943 340 c 1
 1085 290 l 1
 1016 96 877 -25 654 -25 c 2
EndSplineSet
Validated: 3073
EndChar

StartChar: D
Encoding: 68 68 35
Width: 1229
VWidth: 1947
GlyphClass: 2
Flags: W
HStem: 0 150<280 772.871> 1250 150<280 794.214>
VStem: 130 150<150 1250> 949 150<377.077 1068.16>
LayerCount: 2
Fore
SplineSet
1099 775 m 2
 1099 671 l 2
 1099 97 800 0 600 0 c 2
 130 0 l 1
 130 1400 l 1
 600 1400 l 2
 999 1400 1099 1115 1099 775 c 2
600 1250 m 2
 280 1250 l 1
 280 150 l 1
 600 150 l 2
 809 150 949 288 949 671 c 2
 949 775 l 2
 949 1165 809 1250 600 1250 c 2
EndSplineSet
Validated: 3073
EndChar

StartChar: E
Encoding: 69 69 36
Width: 1229
VWidth: 1708
GlyphClass: 2
Flags: W
HStem: 0 151<280 1099> 712 150<280 963> 1250 150<280 1099>
VStem: 130 150<151 712 862 1250>
LayerCount: 2
Fore
SplineSet
280 712 m 1
 280 151 l 1
 1099 151 l 1
 1099 0 l 1
 130 0 l 1
 130 1400 l 1
 1099 1400 l 1
 1099 1250 l 1
 280 1250 l 1
 280 862 l 1
 963 862 l 1
 963 712 l 1
 280 712 l 1
EndSplineSet
Validated: 3073
EndChar

StartChar: F
Encoding: 70 70 37
Width: 1229
VWidth: 1708
GlyphClass: 2
Flags: W
HStem: -25 21G<130 280> 712 150<280 964> 1250 150<280 1099>
VStem: 130 150<-25 712 862 1250>
LayerCount: 2
Fore
SplineSet
280 712 m 1
 280 -25 l 1
 130 -25 l 1
 130 1400 l 1
 1099 1400 l 1
 1099 1250 l 1
 280 1250 l 1
 280 862 l 1
 964 862 l 1
 964 712 l 1
 280 712 l 1
EndSplineSet
Validated: 3073
EndChar

StartChar: G
Encoding: 71 71 38
Width: 1229
VWidth: 1947
GlyphClass: 2
Flags: W
HStem: -25 150<466.234 840.031> 542 150<679 949> 1275 150<454.907 835.117>
VStem: 130 150<383.569 1055.96> 949 150<219.316 542 1098.46 1165.84>
LayerCount: 2
Fore
SplineSet
1099 243 m 1
 1032 71 855 -25 654 -25 c 2
 628 -25 l 2
 429 -25 130 88 130 696 c 2
 130 763 l 2
 130 1337 428 1425 627 1425 c 2
 654 1425 l 2
 896 1425 1039 1306 1102 1102 c 1
 958 1058 l 1
 919 1184 844 1275 654 1275 c 2
 627 1275 l 2
 419 1275 280 1149 280 763 c 2
 280 696 l 2
 280 416 350 125 628 125 c 2
 654 125 l 2
 815 125 916 206 949 273 c 1
 949 542 l 1
 679 542 l 1
 679 692 l 1
 1099 692 l 1
 1099 243 l 1
EndSplineSet
Validated: 3073
EndChar

StartChar: H
Encoding: 72 72 39
Width: 1229
VWidth: 1947
GlyphClass: 2
Flags: W
HStem: 0 21G<130 280 949 1099> 657 150<280 949> 1380 20G<130 280 949 1099>
VStem: 130 150<0 657 807 1400> 949 150<0 657 807 1400>
LayerCount: 2
Fore
SplineSet
280 -0 m 1
 130 0 l 1
 130 1400 l 1
 280 1400 l 1
 280 807 l 1
 949 807 l 1
 949 1400 l 1
 1099 1400 l 1
 1099 -0 l 1
 949 0 l 1
 949 657 l 1
 280 657 l 1
 280 -0 l 1
EndSplineSet
Validated: 3073
EndChar

StartChar: I
Encoding: 73 73 40
Width: 1229
VWidth: 1947
GlyphClass: 2
Flags: W
HStem: 0 150<200 541 691 1029> 1250 150<200 541 691 1029>
VStem: 541 150<150 1250>
LayerCount: 2
Fore
SplineSet
1029 1400 m 1
 1029 1250 l 1
 691 1250 l 1
 691 150 l 1
 1029 150 l 1
 1029 0 l 1
 200 0 l 1
 200 150 l 1
 541 150 l 1
 541 1250 l 1
 200 1250 l 1
 200 1400 l 1
 1029 1400 l 1
EndSplineSet
Validated: 3073
EndChar

StartChar: J
Encoding: 74 74 41
Width: 1229
VWidth: 1947
GlyphClass: 2
Flags: W
HStem: -25 150<288.995 645.566> 1250 150<386 731 881 1099>
VStem: 731 150<209.912 1250>
LayerCount: 2
Fore
SplineSet
1099 1400 m 1
 1099 1250 l 1
 881 1250 l 1
 881 357 l 2
 881 129 729 -25 496 -25 c 2
 471 -25 l 2
 329 -25 165 5 105 184 c 1
 247 232 l 1
 264 180 298 125 471 125 c 2
 496 125 l 2
 659 125 731 225 731 357 c 2
 731 1250 l 1
 386 1250 l 1
 386 1400 l 1
 1099 1400 l 1
EndSplineSet
Validated: 3073
EndChar

StartChar: K
Encoding: 75 75 42
Width: 1229
VWidth: 1947
GlyphClass: 2
Flags: W
HStem: 0 21G<129 279 955.98 1153> 1380 20G<129 279 909.897 1130>
VStem: 129 150<0 459 683 1400>
LayerCount: 2
Fore
SplineSet
487 689 m 1
 279 459 l 1
 279 0 l 1
 129 0 l 1
 129 1400 l 1
 279 1400 l 1
 279 683 l 1
 928 1400 l 1
 1130 1400 l 1
 590 803 l 1
 1153 0 l 1
 970 0 l 1
 487 689 l 1
EndSplineSet
Validated: 3073
EndChar

StartChar: L
Encoding: 76 76 43
Width: 1229
VWidth: 1947
GlyphClass: 2
Flags: W
HStem: 0 151<280 1099> 1380 20G<130 280>
VStem: 130 150<151 1400>
LayerCount: 2
Fore
SplineSet
280 151 m 1
 1099 151 l 1
 1099 0 l 1
 130 0 l 1
 130 1400 l 1
 280 1400 l 1
 280 151 l 1
EndSplineSet
Validated: 3073
EndChar

StartChar: M
Encoding: 77 77 44
Width: 1229
VWidth: 1947
GlyphClass: 2
Flags: W
HStem: 0 21G<87 238.825 990.171 1142> 1380 20G<213.171 375.222 853.854 1015.83>
LayerCount: 2
Fore
SplineSet
87 0 m 1
 215 1400 l 1
 369 1400 l 1
 616 606 l 1
 860 1400 l 1
 1014 1400 l 1
 1142 0 l 1
 1092 0 1042 0 992 0 c 1
 899 1017 l 1
 651 211 l 1
 581 211 l 1
 330 1019 l 1
 237 0 l 1
 87 0 l 1
EndSplineSet
Validated: 3073
EndChar

StartChar: N
Encoding: 78 78 45
Width: 1229
VWidth: 1947
GlyphClass: 2
Flags: W
HStem: -0 21G<130 280 955.388 1099> 1380 20G<130 274.617 949 1099>
VStem: 130 150<0 1091> 949 150<311 1400>
LayerCount: 2
Fore
SplineSet
280 0 m 1
 130 -0 l 1
 130 1400 l 1
 262 1400 l 1
 949 311 l 1
 949 1400 l 1
 1099 1400 l 1
 1099 0 l 1
 1055 0 1012 0 968 0 c 1
 280 1091 l 1
 280 0 l 1
EndSplineSet
Validated: 3073
EndChar

StartChar: O
Encoding: 79 79 46
Width: 1229
VWidth: 1947
GlyphClass: 2
Flags: W
HStem: -25 150<457.314 775.422> 1275 150<442.553 790.252>
VStem: 130 150<351.22 1081.44> 949 150<353.988 1088.8>
LayerCount: 2
Fore
SplineSet
1099 765 m 2
 1099 696 l 2
 1099 369 1026 -24 625 -25 c 1
 608 -25 l 2
 321 -25 130 177 130 696 c 2
 130 763 l 2
 130 1089 208 1425 607 1425 c 2
 625 1425 l 2
 1027 1425 1099 1088 1099 765 c 2
625 1275 m 2
 607 1275 l 2
 404 1275 280 1165 280 763 c 2
 280 696 l 2
 280 271 408 125 608 125 c 2
 625 125 l 2
 824 126 949 270 949 696 c 2
 949 765 l 2
 949 1167 830 1275 625 1275 c 2
EndSplineSet
Validated: 3073
EndChar

StartChar: P
Encoding: 80 80 47
Width: 1229
VWidth: 1947
GlyphClass: 2
Flags: W
HStem: 0 21G<130 280> 624 150<280 855.17> 1250 150<280 880.613>
VStem: 130 150<0 624 774 1250> 949 150<856.549 1184.92>
LayerCount: 2
Fore
SplineSet
280 624 m 1
 280 -0 l 1
 130 0 l 1
 130 1400 l 1
 628 1400 l 2
 907 1400 1099 1333 1099 1063 c 2
 1099 1002 l 2
 1099 775 967 624 628 624 c 2
 280 624 l 1
628 774 m 2
 887 774 949 865 949 1002 c 2
 949 1063 l 2
 949 1181 910 1250 628 1250 c 2
 280 1250 l 1
 280 774 l 1
 628 774 l 2
EndSplineSet
Validated: 3073
EndChar

StartChar: Q
Encoding: 81 81 48
Width: 1229
VWidth: 1947
GlyphClass: 2
Flags: W
HStem: -25 150<457.314 716.639> 1275 150<442.553 790.252>
VStem: 130 150<351.22 1081.44> 949 150<351.319 1088.8>
LayerCount: 2
Fore
SplineSet
625 1275 m 2
 607 1275 l 2
 404 1275 280 1165 280 763 c 2
 280 696 l 2
 280 271 408 125 608 125 c 2
 625 125 l 2
 658 125 689 129 718 138 c 1
 556 354 l 1
 676 444 l 1
 842 223 l 1
 910 310 949 459 949 696 c 2
 949 765 l 2
 949 1167 830 1275 625 1275 c 2
1084 -99 m 1
 964 -189 l 1
 813 12 l 1
 760 -11 698 -25 625 -25 c 2
 608 -25 l 2
 321 -25 130 177 130 696 c 2
 130 763 l 2
 130 1089 208 1425 607 1425 c 2
 625 1425 l 2
 1027 1425 1099 1088 1099 765 c 2
 1099 696 l 2
 1099 483 1068 241 935 99 c 1
 1084 -99 l 1
EndSplineSet
Validated: 3073
EndChar

StartChar: R
Encoding: 82 82 49
Width: 1229
VWidth: 1947
GlyphClass: 2
Flags: W
HStem: 0 21G<130 280 976.009 1168> 642 150<280 572> 1250 150<280 880.613>
VStem: 130 150<0 642 792 1250> 949 150<862.741 1184.92>
LayerCount: 2
Fore
SplineSet
280 642 m 1
 280 -0 l 1
 130 0 l 1
 130 1400 l 1
 628 1400 l 2
 907 1400 1099 1333 1099 1063 c 2
 1099 973 l 2
 1099 752 943 669 747 648 c 1
 1168 0 l 1
 989 0 l 1
 572 642 l 1
 280 642 l 1
628 792 m 2
 889 792 949 864 949 973 c 2
 949 1063 l 2
 949 1181 910 1250 628 1250 c 2
 280 1250 l 1
 280 792 l 1
 628 792 l 2
EndSplineSet
Validated: 3073
EndChar

StartChar: S
Encoding: 83 83 50
Width: 1229
VWidth: 2334
GlyphClass: 2
Flags: W
HStem: -25 150<422.373 805.186> 1275 150<453.612 844.625>
VStem: 128 150<250.079 357> 199 150<924.405 1176.93> 949 150<249.708 520.657>
LayerCount: 2
Fore
SplineSet
603 125 m 2xe8
 628 125 l 2
 819 125 949 251 949 357 c 2
 949 387 l 2
 949 475 919 557 780 605 c 2
 394 739 l 2
 227 797 199 975 199 1033 c 2
 199 1063 l 2
 199 1224 343 1425 612 1425 c 2
 622 1425 l 2
 714 1425 975 1417 1068 1208 c 1
 932 1146 l 1
 912 1191 851 1275 622 1275 c 2
 612 1275 l 2
 423 1275 349 1140 349 1063 c 2
 349 1033 l 2xd8
 349 995 388 901 444 881 c 2
 830 747 l 2
 955 704 1099 603 1099 387 c 2
 1099 357 l 2
 1099 163 899 -25 628 -25 c 2
 603 -25 l 2
 325 -25 128 164 128 357 c 1
 278 357 l 1
 278 251 406 125 603 125 c 2xe8
EndSplineSet
Validated: 3073
EndChar

StartChar: T
Encoding: 84 84 51
Width: 1229
VWidth: 1947
GlyphClass: 2
Flags: W
HStem: -0 21G<541 691> 1250 150<130 541 691 1099>
VStem: 541 150<0 1250>
LayerCount: 2
Fore
SplineSet
1099 1400 m 1
 1099 1250 l 1
 691 1250 l 1
 691 0 l 1
 541 -0 l 1
 541 1250 l 1
 130 1250 l 1
 130 1400 l 1
 1099 1400 l 1
EndSplineSet
Validated: 3073
EndChar

StartChar: U
Encoding: 85 85 52
Width: 1229
VWidth: 1947
GlyphClass: 2
Flags: W
HStem: -25 150<410.699 819.474> 1380 20G<130 280 949 1099>
VStem: 130 150<247.961 1400> 949 150<248.361 1400>
LayerCount: 2
Fore
SplineSet
280 387 m 2
 280 246 383 125 603 125 c 2
 628 125 l 2
 847 125 949 245 949 387 c 2
 949 1400 l 1
 1099 1400 l 1
 1099 387 l 2
 1099 167 936 -25 628 -25 c 2
 603 -25 l 2
 296 -25 130 166 130 387 c 2
 130 1400 l 1
 280 1400 l 1
 280 387 l 2
EndSplineSet
Validated: 3073
EndChar

StartChar: V
Encoding: 86 86 53
Width: 1229
VWidth: 1708
GlyphClass: 2
Flags: W
HStem: -25 21G<540.614 691.414> 1380 20G<92 256.371 978.577 1142>
LayerCount: 2
Fore
SplineSet
547 -25 m 1
 92 1400 l 1
 250 1400 l 1
 616 251 l 1
 985 1400 l 1
 1142 1400 l 1
 685 -25 l 1
 547 -25 l 1
EndSplineSet
Validated: 3073
EndChar

StartChar: W
Encoding: 87 87 54
Width: 1229
VWidth: 1947
GlyphClass: 2
Flags: W
HStem: 0 21G<219.157 381.094 849.932 1011.84> 1380 20G<92 243.854 987.144 1139>
LayerCount: 2
Fore
SplineSet
221 0 m 1
 92 1400 l 1
 242 1400 l 1
 336 386 l 1
 581 1190 l 1
 652 1190 l 1
 895 387 l 1
 989 1400 l 1
 1139 1400 l 1
 1010 0 l 1
 856 0 l 1
 616 791 l 1
 375 0 l 1
 221 0 l 1
EndSplineSet
Validated: 3073
EndChar

StartChar: X
Encoding: 88 88 55
Width: 1229
VWidth: 1947
GlyphClass: 2
Flags: W
HStem: 0 21G<108 295.022 936.014 1123> 1380 20G<108 295.022 936.014 1123>
LayerCount: 2
Fore
SplineSet
616 846 m 1
 948 1400 l 1
 1123 1400 l 1
 703 700 l 1
 1123 0 l 1
 948 0 l 1
 616 554 l 1
 283 0 l 1
 225 0 166 0 108 0 c 1
 528 700 l 1
 108 1400 l 1
 283 1400 l 1
 616 846 l 1
EndSplineSet
Validated: 3073
EndChar

StartChar: Y
Encoding: 89 89 56
Width: 1229
VWidth: 1947
GlyphClass: 2
Flags: W
HStem: -25 21G<541 691> 1380 20G<102 278.706 952.322 1129>
VStem: 541 150<-25 496>
LayerCount: 2
Fore
SplineSet
616 685 m 1
 962 1400 l 1
 1129 1400 l 1
 691 496 l 1
 691 -25 l 1
 541 -25 l 1
 541 496 l 1
 102 1400 l 1
 269 1400 l 1
 616 685 l 1
EndSplineSet
Validated: 3073
EndChar

StartChar: Z
Encoding: 90 90 57
Width: 1229
VWidth: 1947
GlyphClass: 2
Flags: W
HStem: 0 151<321 1099> 1250 150<130 910>
LayerCount: 2
Fore
SplineSet
130 1250 m 1
 130 1400 l 1
 1099 1400 l 1
 1099 1259 l 1
 321 151 l 1
 1099 151 l 1
 1099 0 l 1
 130 0 l 1
 130 140 l 1
 910 1250 l 1
 130 1250 l 1
EndSplineSet
Validated: 3073
EndChar

StartChar: bracketleft
Encoding: 91 91 58
Width: 1229
VWidth: 1947
GlyphClass: 2
Flags: W
HStem: -155 150<528 914> 1405 150<528 914>
VStem: 378 150<-5 1405>
LayerCount: 2
Fore
SplineSet
528 1405 m 1
 528 -5 l 1
 914 -5 l 1
 914 -155 l 1
 378 -155 l 1
 378 1555 l 1
 914 1555 l 1
 914 1405 l 1
 528 1405 l 1
EndSplineSet
Validated: 3073
EndChar

StartChar: backslash
Encoding: 92 92 59
Width: 1229
VWidth: 1708
GlyphClass: 2
Flags: W
LayerCount: 2
Fore
SplineSet
140 1388 m 1
 270 1462 l 1
 1089 12 l 1
 959 -62 l 1
 140 1388 l 1
EndSplineSet
Validated: 3073
EndChar

StartChar: bracketright
Encoding: 93 93 60
Width: 1229
VWidth: 1947
GlyphClass: 2
Flags: W
HStem: -155 150<285 703> 1405 150<285 703>
VStem: 703 150<-5 1405>
LayerCount: 2
Fore
SplineSet
285 1555 m 1
 853 1555 l 1
 853 -155 l 1
 285 -155 l 1
 285 -5 l 1
 703 -5 l 1
 703 1405 l 1
 285 1405 l 1
 285 1555 l 1
EndSplineSet
Validated: 3073
EndChar

StartChar: asciicircum
Encoding: 94 94 61
Width: 1229
VWidth: 1947
GlyphClass: 2
Flags: W
HStem: 939 486
LayerCount: 2
Fore
SplineSet
681 1425 m 1
 1026 1039 l 1
 914 939 l 1
 616 1273 l 1
 317 939 l 1
 205 1039 l 1
 551 1425 l 1
 681 1425 l 1
EndSplineSet
Validated: 3073
EndChar

StartChar: underscore
Encoding: 95 95 62
Width: 1229
VWidth: 1947
GlyphClass: 2
Flags: W
HStem: -167 150<244 986>
LayerCount: 2
Fore
SplineSet
986 -17 m 1
 986 -167 l 1
 244 -167 l 1
 244 -17 l 1
 986 -17 l 1
EndSplineSet
Validated: 3073
EndChar

StartChar: grave
Encoding: 96 96 63
Width: 1229
VWidth: 1708
GlyphClass: 2
Flags: W
HStem: 978 482
VStem: 374 482
LayerCount: 2
Fore
SplineSet
374 1341 m 0
 374 1391 398 1460 492 1460 c 0
 530 1460 567 1443 590 1414 c 2
 840 1099 l 2
 852 1086 856 1071 856 1055 c 0
 856 1011 814 978 780 978 c 0
 764 978 750 984 736 995 c 2
 419 1242 l 2
 390 1266 374 1304 374 1341 c 0
EndSplineSet
Validated: 3073
EndChar

StartChar: a
Encoding: 97 97 64
Width: 1229
VWidth: 1947
GlyphClass: 2
Flags: W
HStem: -25 150<389.163 805.871> 0 21G<949 1099> 486 150<385.656 949> 899 150<372.798 855.469>
VStem: 130 150<209.619 402.895> 949 150<0 85 239.495 486 636 812.149>
LayerCount: 2
Fore
SplineSet
628 125 m 2xbc
 831 125 949 278 949 303 c 2
 949 486 l 1
 603 486 l 2
 350 486 280 367 280 337 c 2
 280 279 l 2
 280 232 381 125 603 125 c 2
 628 125 l 2xbc
130 337 m 2
 130 457 263 636 603 636 c 2
 949 636 l 1
 949 689 l 2
 949 857 793 899 628 899 c 2
 603 899 l 2
 399 899 330 836 304 794 c 1
 176 874 l 1
 253 997 407 1049 603 1049 c 2
 628 1049 l 2
 1021 1049 1099 833 1099 689 c 2
 1099 -0 l 1
 949 0 l 1x7c
 949 85 l 1
 876 32 765 -25 628 -25 c 2
 603 -25 l 2
 368 -25 130 80 130 279 c 2
 130 337 l 2
EndSplineSet
Validated: 3073
EndChar

StartChar: b
Encoding: 98 98 65
Width: 1229
VWidth: 2334
GlyphClass: 2
Flags: W
HStem: -25 150<436.03 805.917> 0 21G<130 280> 899 150<409.01 812.326> 1380 20G<130 280>
VStem: 130 150<0 99 283.539 770.929 948 1400> 949 150<268.851 771.372>
LayerCount: 2
Fore
SplineSet
280 447 m 2xbc
 280 262 423 125 603 125 c 2
 628 125 l 2
 856 125 949 268 949 447 c 2
 949 597 l 2
 949 790 840 899 628 899 c 2
 603 899 l 2
 391 899 280 789 280 597 c 2
 280 447 l 2xbc
603 1049 m 2
 628 1049 l 2
 944 1049 1099 852 1099 597 c 2
 1099 447 l 2
 1099 174 928 -25 628 -25 c 2
 603 -25 l 2xbc
 477 -25 364 21 280 99 c 1
 280 -0 l 1
 130 0 l 1x7c
 130 1400 l 1
 280 1400 l 1
 280 948 l 1
 358 1012 465 1049 603 1049 c 2
EndSplineSet
Validated: 3073
EndChar

StartChar: c
Encoding: 99 99 66
Width: 1229
VWidth: 2334
GlyphClass: 2
Flags: W
HStem: -25 150<429.246 845.23> 898 150<407.637 855.496>
VStem: 130 150<274.536 765.222>
LayerCount: 2
Fore
SplineSet
628 898 m 2
 603 898 l 2
 391 898 280 789 280 597 c 2
 280 427 l 2
 280 244 422 125 603 125 c 2
 628 125 l 2
 769 125 891 162 935 251 c 1
 1069 185 l 1
 1002 48 845 -25 628 -25 c 2
 603 -25 l 2
 341 -25 130 158 130 427 c 2
 130 597 l 2
 130 853 288 1048 603 1048 c 2
 628 1048 l 2
 862 1048 1012 975 1072 840 c 1
 934 780 l 1
 915 822 857 898 628 898 c 2
EndSplineSet
Validated: 3073
EndChar

StartChar: d
Encoding: 100 100 67
Width: 1229
VWidth: 1947
GlyphClass: 2
Flags: W
HStem: -25 150<429.246 820.943> 0 21G<949 1099> 899 150<418.83 820.943> 1380 20G<949 1099>
VStem: 130 150<274.536 765.361> 949 150<0 74 251.743 771.372 949 1400>
LayerCount: 2
Fore
SplineSet
280 597 m 2xbc
 280 427 l 2
 280 243 423 125 603 125 c 2
 628 125 l 2
 839 125 949 232 949 427 c 2
 949 597 l 2
 949 790 840 899 628 899 c 2
 603 899 l 2
 391 899 280 789 280 597 c 2xbc
603 1049 m 2
 628 1049 l 2
 765 1049 872 1012 949 949 c 1
 949 1400 l 1
 1099 1400 l 1
 1099 -0 l 1
 949 0 l 1x7c
 949 74 l 1
 872 11 765 -25 628 -25 c 2
 603 -25 l 2
 341 -25 130 158 130 427 c 2
 130 597 l 2
 130 853 288 1049 603 1049 c 2
EndSplineSet
Validated: 3073
EndChar

StartChar: e
Encoding: 101 101 68
Width: 1229
VWidth: 1947
GlyphClass: 2
Flags: W
HStem: -25 150<414.367 846.051> 486 150<280 949> 899 150<400.422 830.688>
VStem: 130 150<249.979 486 636 794.703> 949 150<636 795.143>
LayerCount: 2
Fore
SplineSet
280 486 m 1
 280 367 l 2
 280 263 377 125 603 125 c 2
 628 125 l 2
 672 125 886 127 937 259 c 1
 1077 205 l 1
 1023 65 871 -25 628 -25 c 2
 603 -25 l 2
 301 -25 130 173 130 367 c 2
 130 659 l 2
 130 881 298 1049 603 1049 c 2
 628 1049 l 2
 934 1049 1099 880 1099 659 c 2
 1099 486 l 1
 280 486 l 1
949 636 m 1
 949 659 l 2
 949 796 850 899 628 899 c 2
 603 899 l 2
 381 899 280 795 280 659 c 2
 280 636 l 1
 949 636 l 1
EndSplineSet
Validated: 3073
EndChar

StartChar: f
Encoding: 102 102 69
Width: 1229
VWidth: 1947
GlyphClass: 2
Flags: W
HStem: 0 21G<396 546> 781 150<205 396 546 924> 1275 150<600.906 880.876>
VStem: 396 150<0 781 931 1223.72>
LayerCount: 2
Fore
SplineSet
396 1144 m 2
 396 1257 504 1425 735 1425 c 2
 760 1425 l 2
 883 1425 1015 1340 1068 1247 c 1
 938 1173 l 1
 913 1217 831 1275 760 1275 c 2
 735 1275 l 2
 600 1275 546 1185 546 1144 c 2
 546 931 l 1
 924 931 l 1
 924 781 l 1
 546 781 l 1
 546 -0 l 1
 396 0 l 1
 396 781 l 1
 205 781 l 1
 205 931 l 1
 396 931 l 1
 396 1144 l 2
EndSplineSet
Validated: 3073
EndChar

StartChar: g
Encoding: 103 103 70
Width: 1229
VWidth: 1947
GlyphClass: 2
Flags: W
HStem: -385 151<373.654 855.689> 23 150<374.475 863.085> 316 150<426.533 802> 884 150<1056.82 1125> 899 150<404.788 827.224>
VStem: 130 150<-162.558 -43.6183 583.961 800.938> 148 150<155.685 349.828> 949 150<-161.27 -46.2951 587.172 801.575>
LayerCount: 2
Fore
SplineSet
280 -107 m 2xe5
 280 -148 393 -234 603 -234 c 2
 628 -234 l 2
 793 -234 949 -163 949 -107 c 2
 949 -89 l 2
 949 -78 867 23 628 23 c 2
 603 23 l 2
 409 23 280 -57 280 -87 c 2
 280 -107 l 2xe5
1055 854 m 1
 1075 824 1099 778 1099 719 c 2
 1099 673 l 2
 1099 486 866 316 628 316 c 2
 603 316 l 2
 522 316 441 336 369 370 c 1
 312 338 298 299 298 281 c 2
 298 215 l 2xf3
 298 195 308 169 371 139 c 1
 445 162 528 173 603 173 c 2
 628 173 l 2
 912 173 1099 38 1099 -87 c 2
 1099 -107 l 2
 1099 -316 807 -385 628 -385 c 2
 603 -385 l 2
 333 -385 130 -263 130 -107 c 2
 130 -87 l 2xf5
 130 -61 130 -2 217 64 c 1
 162 112 148 189 148 215 c 2
 148 281 l 2xf3
 148 359 196 424 236 460 c 1
 171 521 130 595 130 673 c 2
 130 719 l 2
 130 955 422 1049 603 1049 c 2
 628 1049 l 2xed
 761 1049 868 1009 946 958 c 1
 993 1004 1057 1034 1125 1034 c 1
 1125 884 l 1xf5
 1099 884 1074 871 1055 854 c 1
949 719 m 2
 949 778 843 899 628 899 c 2
 603 899 l 2
 457 899 280 819 280 719 c 2
 280 673 l 2xed
 280 587 434 466 603 466 c 2
 628 466 l 2
 797 466 949 586 949 673 c 2
 949 719 l 2
EndSplineSet
Validated: 3073
EndChar

StartChar: h
Encoding: 104 104 71
Width: 1229
VWidth: 2334
GlyphClass: 2
Flags: W
HStem: -0 21G<130 280 949 1099> 899 150<457.905 826.469> 1380 20G<130 280>
VStem: 130 150<0 720.826 906 1400> 949 150<0 793.52>
LayerCount: 2
Fore
SplineSet
949 689 m 2
 949 781 859 899 628 899 c 2
 603 899 l 2
 413 899 280 690 280 597 c 2
 280 -0 l 1
 130 -0 l 1
 130 1400 l 1
 280 1400 l 1
 280 906 l 1
 363 989 475 1049 603 1049 c 2
 628 1049 l 2
 924 1049 1099 881 1099 689 c 2
 1099 0 l 1
 949 -0 l 1
 949 689 l 2
EndSplineSet
Validated: 3073
EndChar

StartChar: k
Encoding: 107 107 74
Width: 1229
VWidth: 1947
GlyphClass: 2
Flags: W
HStem: 0 21G<130 280 911.967 1126> 1405 20G<130 280>
VStem: 130 150<0 346 541 1425>
LayerCount: 2
Fore
SplineSet
487 519 m 1
 280 346 l 1
 280 0 l 1
 130 0 l 1
 130 1425 l 1
 280 1425 l 1
 280 541 l 1
 976 1121 l 1
 1072 1005 l 1
 603 615 l 1
 1126 0 l 1
 929 0 l 1
 487 519 l 1
EndSplineSet
Validated: 3073
EndChar

StartChar: l
Encoding: 108 108 75
Width: 1229
VWidth: 1947
GlyphClass: 2
Flags: W
HStem: 0 150<205 541 691 1024> 1250 150<205 541>
VStem: 541 150<150 1250>
LayerCount: 2
Fore
SplineSet
205 1400 m 1
 691 1400 l 1
 691 150 l 1
 1024 150 l 1
 1024 0 l 1
 205 0 l 1
 205 150 l 1
 541 150 l 1
 541 1250 l 1
 205 1250 l 1
 205 1400 l 1
EndSplineSet
Validated: 3073
EndChar

StartChar: m
Encoding: 109 109 76
Width: 1229
VWidth: 2334
GlyphClass: 2
Flags: W
HStem: -0 21G<72 222 541 691 1009 1159> 899 150<300.749 522.203 768.583 986.766> 1004 20G<72 222>
VStem: 72 150<0 815.528 986 1024> 541 150<0 817.553> 1009 150<0 878.197>
LayerCount: 2
Fore
SplineSet
1009 779 m 2xdc
 1009 846 984 899 886 899 c 2
 871 899 l 2
 775 899 691 788 691 689 c 2
 691 -0 l 1
 541 -0 l 1
 541 779 l 2
 541 853 511 899 418 899 c 2
 402 899 l 2xdc
 307 899 222 788 222 689 c 2
 222 -0 l 1
 72 -0 l 1
 72 1024 l 1
 222 1024 l 1xbc
 222 986 l 1
 274 1025 335 1049 402 1049 c 2
 418 1049 l 2
 520 1049 598 1011 644 944 c 1
 703 1007 783 1049 871 1049 c 2
 886 1049 l 2
 1054 1049 1159 944 1159 779 c 2
 1159 0 l 1
 1009 -0 l 1
 1009 779 l 2xdc
EndSplineSet
Validated: 3073
EndChar

StartChar: n
Encoding: 110 110 77
Width: 1229
VWidth: 2334
GlyphClass: 2
Flags: W
HStem: -0 21G<130 280 949 1099> 899 150<466.802 840.689> 1004 20G<130 280>
VStem: 130 150<0 707.624 899 1024> 949 150<0 805.275>
LayerCount: 2
Fore
SplineSet
949 679 m 2xd8
 949 855 785 899 628 899 c 2
 603 899 l 2xd8
 417 899 280 673 280 577 c 2
 280 -0 l 1
 130 -0 l 1
 130 1024 l 1
 280 1024 l 1xb8
 280 899 l 1
 362 986 474 1049 603 1049 c 2
 628 1049 l 2
 932 1049 1099 903 1099 679 c 2
 1099 0 l 1
 949 -0 l 1
 949 679 l 2xd8
EndSplineSet
Validated: 3073
EndChar

StartChar: o
Encoding: 111 111 78
Width: 1229
VWidth: 1947
GlyphClass: 2
Flags: W
HStem: -25 150<415.695 809.882> 898 150<405.529 820.928>
VStem: 130 150<271.669 764.729> 949 150<268.265 757.75>
LayerCount: 2
Fore
SplineSet
1099 562 m 2
 1099 480 l 2
 1099 192 956 -25 637 -25 c 2
 586 -25 l 2
 272 -25 130 199 130 481 c 2
 130 561 l 2
 130 843 277 1048 584 1048 c 2
 641 1048 l 2
 950 1048 1099 846 1099 562 c 2
641 898 m 2
 584 898 l 2
 355 898 280 752 280 561 c 2
 280 481 l 2
 280 306 341 125 586 125 c 2
 637 125 l 2
 874 125 949 281 949 480 c 2
 949 562 l 2
 949 753 872 898 641 898 c 2
EndSplineSet
Validated: 3073
EndChar

StartChar: p
Encoding: 112 112 79
Width: 1229
VWidth: 1947
GlyphClass: 2
Flags: W
HStem: -385 21G<130 280> -25 150<428.193 805.917> 899 150<409.01 812.326> 1004 20G<130 280>
VStem: 130 150<-385 90 269.03 770.929 948 1024> 949 150<268.851 771.372>
LayerCount: 2
Fore
SplineSet
280 427 m 2xec
 280 243 423 125 603 125 c 2
 628 125 l 2
 856 125 949 268 949 447 c 2
 949 597 l 2
 949 790 840 899 628 899 c 2
 603 899 l 2
 391 899 280 789 280 597 c 2
 280 427 l 2xec
280 -385 m 1
 130 -385 l 1
 130 1024 l 1
 280 1024 l 1xdc
 280 948 l 1
 358 1012 465 1049 603 1049 c 2
 628 1049 l 2
 944 1049 1099 852 1099 597 c 2
 1099 447 l 2
 1099 174 928 -25 628 -25 c 2
 603 -25 l 2
 478 -25 364 17 280 90 c 1
 280 -385 l 1
EndSplineSet
Validated: 3073
EndChar

StartChar: q
Encoding: 113 113 80
Width: 1229
VWidth: 1947
GlyphClass: 2
Flags: W
HStem: -385 21G<949 1099> -25 150<440.059 810.317> 899 150<418.83 820.943> 1004 20G<949 1099>
VStem: 130 150<275.173 765.361> 949 150<-385 83 266.455 771.372 949 1024>
LayerCount: 2
Fore
SplineSet
280 597 m 2xec
 280 437 l 2
 280 250 427 125 603 125 c 2
 628 125 l 2
 856 125 949 268 949 447 c 2
 949 597 l 2
 949 790 840 899 628 899 c 2
 603 899 l 2
 391 899 280 789 280 597 c 2xec
603 1049 m 2
 628 1049 l 2xec
 765 1049 872 1012 949 949 c 1
 949 1024 l 1
 1099 1024 l 1xdc
 1099 -385 l 1
 949 -385 l 1
 949 83 l 1
 870 15 762 -25 628 -25 c 2
 603 -25 l 2
 341 -25 130 169 130 437 c 2
 130 597 l 2
 130 853 288 1049 603 1049 c 2
EndSplineSet
Validated: 3073
EndChar

StartChar: r
Encoding: 114 114 81
Width: 1229
VWidth: 1947
GlyphClass: 2
Flags: W
HStem: -0 21G<130 280> 899 150<544.516 937.089> 1004 20G<130 280>
VStem: 130 150<0 631.61 834 1024>
LayerCount: 2
Fore
SplineSet
731 899 m 2xd0
 706 899 l 2xd0
 481 899 280 651 280 470 c 2
 280 -0 l 1
 130 -0 l 1
 130 1024 l 1
 280 1024 l 1xb0
 280 834 l 1
 387 959 541 1049 706 1049 c 2
 731 1049 l 2
 889 1049 1017 1015 1095 909 c 1
 975 819 l 1
 940 866 874 899 731 899 c 2xd0
EndSplineSet
Validated: 3073
EndChar

StartChar: s
Encoding: 115 115 82
Width: 1229
VWidth: 1947
GlyphClass: 2
Flags: W
HStem: -25 150<388.188 852.608> 899 150<377.254 828.872>
VStem: 130 150<220.826 317> 173 150<696.219 846.177> 949 150<200.085 377.518>
LayerCount: 2
Fore
SplineSet
173 789 m 2xd8
 173 893 252 1049 603 1049 c 2
 628 1049 l 2
 790 1049 976 982 1060 850 c 1
 934 770 l 1
 892 836 774 899 628 899 c 2
 603 899 l 2
 394 899 323 833 323 789 c 2
 323 777 l 2xd8
 323 748 347 689 414 673 c 2
 895 549 l 2
 1049 509 1099 393 1099 301 c 2
 1099 265 l 2
 1099 15 755 -25 628 -25 c 2
 558 -25 l 2
 314 -25 130 143 130 317 c 1
 280 317 l 1xe8
 280 232 393 125 558 125 c 2
 628 125 l 2
 748 125 949 171 949 265 c 2
 949 301 l 2
 949 363 877 399 858 404 c 2
 377 528 l 2
 227 567 173 697 173 777 c 2
 173 789 l 2xd8
EndSplineSet
Validated: 3073
EndChar

StartChar: t
Encoding: 116 116 83
Width: 1229
VWidth: 1947
GlyphClass: 2
Flags: W
HStem: -25 150<583.846 849.609> 858 150<131 407 569 924> 1405 20G<449.417 602>
LayerCount: 2
Fore
SplineSet
514 313 m 1
 515 171 633 125 706 125 c 2
 731 125 l 2
 821 125 881 187 905 240 c 1
 1043 180 l 1
 1003 89 895 -25 731 -25 c 2
 706 -25 l 2
 525 -25 364 117 364 299 c 1
 407 858 l 1
 131 858 l 1
 131 1008 l 1
 418 1008 l 1
 451 1425 l 1
 602 1425 l 1
 569 1008 l 1
 924 1008 l 1
 924 858 l 1
 557 858 l 1
 514 313 l 1
EndSplineSet
Validated: 3073
EndChar

StartChar: u
Encoding: 117 117 84
Width: 1229
VWidth: 2334
GlyphClass: 2
Flags: W
HStem: -25 150<380.3 732.156> 0 21G<949 1099> 1004 20G<130 280 949 1099>
VStem: 130 150<217.332 1024> 949 150<0 157 353.263 1024>
LayerCount: 2
Fore
SplineSet
280 367 m 2xb8
 280 222 358 125 572 125 c 2
 599 125 l 2xb8
 785 125 949 382 949 477 c 2
 949 1024 l 1
 1099 1024 l 1
 1099 -0 l 1
 949 0 l 1x78
 949 157 l 1
 859 55 736 -25 599 -25 c 2
 572 -25 l 2
 256 -25 130 156 130 367 c 2
 130 1024 l 1
 280 1024 l 1
 280 367 l 2xb8
EndSplineSet
Validated: 3073
EndChar

StartChar: v
Encoding: 118 118 85
Width: 1229
VWidth: 1947
GlyphClass: 2
Flags: W
HStem: -25 21G<557.478 674.522> 1004 20G<119 290.531 941.469 1113>
LayerCount: 2
Fore
SplineSet
566 -25 m 1
 119 1024 l 1
 282 1024 l 1
 616 241 l 1
 950 1024 l 1
 1113 1024 l 1
 666 -25 l 1
 566 -25 l 1
EndSplineSet
Validated: 3073
EndChar

StartChar: w
Encoding: 119 119 86
Width: 1229
VWidth: 1947
GlyphClass: 2
Flags: W
HStem: -0 21G<214.402 355.189 875.842 1016.6> 1004 20G<84 237.602 993.398 1147>
LayerCount: 2
Fore
SplineSet
217 -0 m 1
 84 1024 l 1
 235 1024 l 1
 324 340 l 1
 573 949 l 1
 659 949 l 1
 907 340 l 1
 996 1024 l 1
 1147 1024 l 1
 1014 -0 l 1
 884 -0 l 1
 616 657 l 1
 347 -0 l 1
 217 -0 l 1
EndSplineSet
Validated: 3073
EndChar

StartChar: x
Encoding: 120 120 87
Width: 1229
VWidth: 1947
GlyphClass: 2
Flags: W
HStem: -0 21G<110 317.969 912.031 1120> 1004 20G<110 317.969 912.031 1121>
LayerCount: 2
Fore
SplineSet
615 632 m 1
 928 1024 l 1
 1121 1024 l 1
 711 512 l 1
 1120 -0 l 1
 928 -0 l 1
 615 392 l 1
 302 -0 l 1
 110 -0 l 1
 519 512 l 1
 110 1024 l 1
 302 1024 l 1
 615 632 l 1
EndSplineSet
Validated: 3073
EndChar

StartChar: y
Encoding: 121 121 88
Width: 1229
VWidth: 1947
GlyphClass: 2
Flags: W
HStem: -369 150<270.69 557.712> 1004 20G<129 314.81 974.361 1139>
LayerCount: 2
Fore
SplineSet
755 -134 m 2
 705 -284 587 -369 430 -369 c 2
 400 -369 l 2
 317 -369 180 -324 116 -235 c 2
 101 -214 l 1
 223 -126 l 1
 238 -147 l 2
 260 -178 339 -219 400 -219 c 2
 430 -219 l 2
 532 -219 586 -166 613 -86 c 2
 674 100 l 1
 129 1024 l 1
 303 1024 l 1
 737 289 l 1
 981 1024 l 1
 1139 1024 l 1
 755 -134 l 2
EndSplineSet
Validated: 3073
EndChar

StartChar: z
Encoding: 122 122 89
Width: 1229
VWidth: 1947
GlyphClass: 2
Flags: W
HStem: 0 150<344 1097> 874 150<145 862>
LayerCount: 2
Fore
SplineSet
129 148 m 1
 862 874 l 1
 145 874 l 1
 145 1024 l 1
 1097 1024 l 1
 1097 896 l 1
 344 150 l 1
 1097 150 l 1
 1097 0 l 1
 129 0 l 1
 129 148 l 1
EndSplineSet
Validated: 3073
EndChar

StartChar: braceleft
Encoding: 123 123 90
Width: 1229
VWidth: 1947
GlyphClass: 2
Flags: W
HStem: -155 150<716.984 944> 657 150<284 445.24> 1405 150<716.984 944>
VStem: 509 150<51.7552 589.496 856.006 1348.24>
LayerCount: 2
Fore
SplineSet
854 1405 m 2
 742 1405 659 1346 659 1242 c 2
 659 970 l 2
 659 883 621 788 547 726 c 1
 618 655 659 545 659 430 c 2
 659 158 l 2
 659 54 741 -5 854 -5 c 2
 944 -5 l 1
 944 -155 l 1
 854 -155 l 2
 657 -155 509 -30 509 158 c 2
 509 430 l 2
 509 531 457 657 354 657 c 2
 284 657 l 1
 284 807 l 1
 354 807 l 2
 460 807 509 899 509 970 c 2
 509 1242 l 2
 509 1430 657 1555 854 1555 c 2
 944 1555 l 1
 944 1405 l 1
 854 1405 l 2
EndSplineSet
Validated: 3073
EndChar

StartChar: bar
Encoding: 124 124 91
Width: 1229
VWidth: 1947
GlyphClass: 2
Flags: W
VStem: 540 150<-77 1477>
LayerCount: 2
Fore
SplineSet
540 1477 m 1
 690 1477 l 1
 690 -77 l 1
 540 -77 l 1
 540 1477 l 1
EndSplineSet
Validated: 3073
EndChar

StartChar: braceright
Encoding: 125 125 92
Width: 1229
VWidth: 1947
GlyphClass: 2
Flags: W
HStem: -155 150<284 501.016> 657 150<772.317 944> 1405 150<284 501.016>
VStem: 559 150<51.7552 589.496 856.006 1348.24>
LayerCount: 2
Fore
SplineSet
364 1555 m 2
 561 1555 709 1430 709 1242 c 2
 709 970 l 2
 709 899 758 807 864 807 c 2
 944 807 l 1
 944 657 l 1
 864 657 l 2
 760 657 709 531 709 430 c 2
 709 158 l 2
 709 -30 561 -155 364 -155 c 2
 284 -155 l 1
 284 -5 l 1
 364 -5 l 2
 477 -5 559 54 559 158 c 2
 559 430 l 2
 559 545 600 655 671 726 c 1
 597 788 559 883 559 970 c 2
 559 1242 l 2
 559 1346 476 1405 364 1405 c 2
 284 1405 l 1
 284 1555 l 1
 364 1555 l 2
EndSplineSet
Validated: 3073
EndChar

StartChar: asciitilde
Encoding: 126 126 93
Width: 1229
VWidth: 1947
GlyphClass: 2
Flags: W
HStem: 758 150<686.219 843.187> 902 150<399.61 565.002>
LayerCount: 2
Fore
SplineSet
223 859 m 1x40
 297 1015 405 1052 451 1052 c 2
 466 1052 l 2x40
 515 1052 593 1030 637 993 c 2
 712 931 l 2
 726 920 746 908 763 908 c 2
 779 908 l 2
 817 908 854 955 866 998 c 1
 1010 956 l 1
 988 880 930 758 779 758 c 2
 764 758 l 2x80
 729 758 672 767 616 815 c 2
 541 879 l 2
 530 888 489 902 466 902 c 2
 455 902 l 2
 432 902 411 881 363 805 c 1
 223 859 l 1x40
EndSplineSet
Validated: 3073
EndChar

StartChar: cent
Encoding: 162 162 96
Width: 1229
VWidth: 2334
GlyphClass: 2
Flags: W
HStem: -27 150<592.783 881.881> 882 142<858 906.157> 900 150<418.83 665>
VStem: 130 150<267.93 765.5>
LayerCount: 2
Fore
SplineSet
754 1203 m 1xb0
 898 1161 l 1
 858 1024 l 1
 955 998 1032 950 1072 860 c 1
 934 800 l 1
 923 826 899 861 816 882 c 1xd0
 592 123 l 1
 596 123 599 123 603 123 c 2
 628 123 l 2
 865 123 915 181 935 221 c 1
 1069 155 l 1
 998 9 829 -27 628 -27 c 2
 603 -27 l 2
 585 -27 566 -26 548 -24 c 1
 517 -131 l 1
 373 -89 l 1
 403 13 l 1
 242 81 130 232 130 427 c 2
 130 597 l 2
 130 853 288 1050 603 1050 c 2
 628 1050 l 2
 655 1050 682 1050 708 1048 c 1
 754 1203 l 1xb0
628 900 m 2xb0
 603 900 l 2
 390 900 280 789 280 597 c 2
 280 427 l 2
 280 302 346 206 446 158 c 1
 665 900 l 1
 653 900 641 900 628 900 c 2xb0
EndSplineSet
Validated: 3073
EndChar

StartChar: sterling
Encoding: 163 163 97
Width: 1229
VWidth: 1947
GlyphClass: 2
Flags: W
HStem: -25 150<631.95 1000.35> 49 150<422.784 626.371> 656 150<130 239 520 905> 1275 150<376.677 835.738>
VStem: 130 150<946.285 1188.83> 396 150<356.407 653.47>
CounterMasks: 1 b0
LayerCount: 2
Fore
SplineSet
239 806 m 1x7c
 222 827 130 949 130 1044 c 2
 130 1083 l 2
 130 1283 293 1425 603 1425 c 2
 628 1425 l 2
 755 1425 916 1391 1015 1283 c 1
 905 1181 l 1
 854 1237 753 1275 628 1275 c 2
 603 1275 l 2
 455 1275 280 1237 280 1083 c 2
 280 1044 l 2
 280 1018 316 954 350 908 c 2
 429 806 l 1
 905 806 l 1
 905 656 l 1
 520 656 l 1
 539 602 546 549 546 516 c 2
 546 470 l 2
 546 376 493 281 421 199 c 1
 470 199 l 2x7c
 523 199 592 190 644 164 c 2
 695 138 l 2
 703 134 751 125 788 125 c 2
 839 125 l 2
 919 125 973 147 1005 173 c 1
 1099 57 l 1
 1035 5 947 -25 839 -25 c 2
 788 -25 l 2xbc
 747 -25 669 -16 628 4 c 2
 577 29 l 2
 559 38 521 49 470 49 c 2
 428 49 l 2
 316 49 251 37 149 -9 c 2
 102 -30 l 1
 40 106 l 1
 87 127 l 2
 211 182 396 354 396 470 c 2
 396 516 l 2
 396 562 376 623 355 656 c 1
 130 656 l 1
 130 806 l 1
 239 806 l 1x7c
EndSplineSet
Validated: 3073
EndChar

StartChar: euro
Encoding: 8364 8364 98
Width: 1229
VWidth: 1947
GlyphClass: 2
Flags: W
HStem: -25 150<468.504 831.432> 460 150<100 220 370 649> 782 150<145 220 370 840> 1275 150<475.241 845.344>
VStem: 220 150<216.734 460 610 782 932 1179.75> 948 144<1090.82 1165.45>
CounterMasks: 1 f0
LayerCount: 2
Fore
SplineSet
145 782 m 1
 145 932 l 1
 220 932 l 1
 220 1063 l 2
 220 1208 337 1425 657 1425 c 2
 685 1425 l 2
 933 1425 1036 1291 1092 1095 c 1
 948 1053 l 1
 908 1193 856 1275 685 1275 c 2
 657 1275 l 2
 421 1275 370 1126 370 1063 c 2
 370 932 l 1
 840 932 l 1
 840 782 l 1
 370 782 l 1
 370 610 l 1
 649 610 l 1
 649 460 l 1
 370 460 l 1
 370 366 l 2
 370 173 510 125 658 125 c 2
 685 125 l 2
 828 125 880 196 928 326 c 1
 1068 274 l 1
 1008 113 915 -25 685 -25 c 2
 658 -25 l 2
 346 -25 220 157 220 366 c 2
 220 460 l 1
 100 460 l 1
 100 610 l 1
 220 610 l 1
 220 782 l 1
 145 782 l 1
EndSplineSet
Validated: 3073
EndChar

StartChar: yen
Encoding: 165 165 99
Width: 1229
VWidth: 1947
GlyphClass: 2
Flags: W
HStem: 48 150<201 541 691 1024> 307 150<201 541 691 1024> 1380 20G<102 278.706 952.322 1129>
VStem: 541 150<-160 48 198 307 457 496>
LayerCount: 2
Fore
SplineSet
1024 457 m 1
 1024 307 l 1
 691 307 l 1
 691 198 l 1
 1024 198 l 1
 1024 48 l 1
 691 48 l 1
 691 -160 l 1
 541 -160 l 1
 541 48 l 1
 201 48 l 1
 201 198 l 1
 541 198 l 1
 541 307 l 1
 201 307 l 1
 201 457 l 1
 541 457 l 1
 541 496 l 1
 102 1400 l 1
 269 1400 l 1
 616 685 l 1
 962 1400 l 1
 1129 1400 l 1
 691 496 l 1
 691 457 l 1
 1024 457 l 1
EndSplineSet
Validated: 3073
EndChar

StartChar: section
Encoding: 167 167 101
Width: 1229
VWidth: 1947
GlyphClass: 2
Flags: W
HStem: -169 150<487.375 814.831> 310 150<401.688 813.722> 921 150<435.031 818.031> 1415 150<422.639 743.638>
VStem: 130 150<566.137 819.387> 200 150<1143.07 1345.27> 889 150<52.668 243.762> 949 150<571.475 811.835>
CounterMasks: 1 f0
LayerCount: 2
Fore
SplineSet
628 921 m 2xf9
 603 921 l 2
 393 921 280 809 280 723 c 2
 280 677 l 2
 280 587 372 460 603 460 c 2
 628 460 l 2
 834 460 949 583 949 677 c 2
 949 723 l 2
 949 806 825 921 628 921 c 2xf9
889 172 m 1xf2
 882 249 764 310 627 310 c 2
 603 310 l 2
 301 310 130 492 130 677 c 2
 130 723 l 2xfa
 130 836 203 942 323 1006 c 1
 248 1059 200 1135 200 1224 c 2
 200 1247 l 2
 200 1413 346 1565 562 1565 c 2
 586 1565 l 2
 752 1565 909 1462 976 1361 c 1
 850 1279 l 1
 804 1348 692 1415 586 1415 c 2
 562 1415 l 2
 420 1415 350 1323 350 1247 c 2
 350 1224 l 2
 350 1150 458 1071 604 1071 c 2
 628 1071 l 2
 904 1071 1099 897 1099 723 c 2
 1099 677 l 2xf5
 1099 568 1030 454 910 383 c 1
 1039 299 1037 195 1039 172 c 1
 1039 149 l 2
 1039 -12 898 -169 669 -169 c 2
 645 -169 l 2
 475 -169 316 -67 249 41 c 1
 377 121 l 1
 422 49 537 -19 645 -19 c 2
 669 -19 l 2
 813 -19 889 70 889 149 c 2
 889 172 l 1xf2
EndSplineSet
Validated: 3073
EndChar

StartChar: copyright
Encoding: 169 169 103
Width: 1229
VWidth: 1947
GlyphClass: 2
Flags: W
HStem: -5 150<419.558 810.148> 289 150<508.866 764.035> 745 150<510.26 763.977> 1039 150<421.532 810.206>
VStem: 36 150<384.614 802.283> 319 150<480.181 705.186> 1043 150<388.447 800.778>
CounterMasks: 2 f0 0e
LayerCount: 2
Fore
SplineSet
1193 593 m 0
 1193 294 992 -5 614 -5 c 0
 241 -5 36 284 36 593 c 0
 36 906 247 1189 614 1189 c 0
 990 1189 1193 903 1193 593 c 0
614 1039 m 0
 333 1039 186 826 186 593 c 0
 186 362 329 145 614 145 c 0
 902 145 1043 370 1043 593 c 0
 1043 822 904 1039 614 1039 c 0
624 289 m 0
 433 289 319 427 319 592 c 0
 319 762 439 895 624 895 c 0
 708 895 786 870 846 807 c 1
 738 703 l 1
 708 734 664 745 624 745 c 0
 515 745 469 672 469 592 c 0
 469 514 514 439 624 439 c 0
 692 439 727 471 738 483 c 1
 846 379 l 1
 794 324 719 289 624 289 c 0
EndSplineSet
Validated: 3073
EndChar

StartChar: ordfeminine
Encoding: 170 170 104
Width: 1229
VWidth: 1947
GlyphClass: 2
Flags: W
HStem: 244 150<205 1024> 518 150<448.804 715.612> 938 150<448.688 811> 1307 150<442.592 752.107>
VStem: 255 150<720.833 895.625> 811 150<536 601 770.802 938 1088 1251.12>
CounterMasks: 1 b0
LayerCount: 2
Fore
SplineSet
1024 394 m 1
 1024 244 l 1
 205 244 l 1
 205 394 l 1
 1024 394 l 1
405 784 m 2
 405 737 472 668 598 668 c 2
 617 668 l 2
 738 669 811 844 811 857 c 2
 811 938 l 1
 598 938 l 2
 411 938 405 828 405 823 c 2
 405 784 l 2
255 823 m 2
 255 897 307 1088 598 1088 c 2
 811 1088 l 1
 811 1122 l 2
 811 1223 764 1307 617 1307 c 2
 598 1307 l 2
 491 1307 442 1277 420 1233 c 1
 286 1301 l 1
 336 1401 439 1457 598 1457 c 2
 617 1457 l 2
 849 1457 961 1304 961 1122 c 2
 961 536 l 1
 811 536 l 1
 811 601 l 1
 761 559 697 518 617 518 c 2
 598 518 l 2
 522 518 255 539 255 784 c 2
 255 823 l 2
EndSplineSet
Validated: 3073
EndChar

StartChar: guillemotleft
Encoding: 171 171 105
Width: 1229
VWidth: 1947
GlyphClass: 2
Flags: W
LayerCount: 2
Fore
SplineSet
862 86 m 1
 671 404 l 1
 671 533 l 1
 862 852 l 1
 990 776 l 1
 821 491 l 1
 821 446 l 1
 990 162 l 1
 862 86 l 1
442 86 m 1
 251 404 l 1
 251 533 l 1
 442 852 l 1
 570 776 l 1
 401 491 l 1
 401 446 l 1
 570 162 l 1
 442 86 l 1
EndSplineSet
Validated: 3073
EndChar

StartChar: logicalnot
Encoding: 172 172 106
Width: 1229
VWidth: 1708
GlyphClass: 2
Flags: W
HStem: 525 150<204 819>
VStem: 819 150<214 525>
LayerCount: 2
Fore
SplineSet
204 675 m 1
 969 675 l 1
 969 214 l 1
 819 214 l 1
 819 525 l 1
 204 525 l 1
 204 675 l 1
EndSplineSet
Validated: 3073
EndChar

StartChar: softhyphen
Encoding: 173 173 107
Width: 1229
VWidth: 1947
GlyphClass: 2
Flags: W
HStem: 525 150<376 854>
VStem: 376 478<525 675>
LayerCount: 2
Fore
SplineSet
854 675 m 1
 854 525 l 1
 376 525 l 1
 376 675 l 1
 854 675 l 1
EndSplineSet
Validated: 3073
EndChar

StartChar: registered
Encoding: 174 174 108
Width: 1229
VWidth: 1947
GlyphClass: 2
Flags: W
HStem: -5 150<419.558 810.148> 517 150<543 598> 763 150<543 703.855> 1039 150<421.532 810.206>
VStem: 36 150<386.243 796.994> 393 150<342 517 667 763> 711 150<669.236 760.437> 1043 150<390.076 802.613>
CounterMasks: 2 b0 0d
LayerCount: 2
Fore
SplineSet
632 913 m 2
 848 913 861 790 861 733 c 2
 861 708 l 2
 861 637 826 576 759 543 c 1
 861 382 l 1
 735 302 l 1
 598 517 l 1
 543 517 l 1
 543 342 l 1
 393 342 l 1
 393 913 l 1
 632 913 l 2
711 733 m 2
 711 748 698 763 632 763 c 2
 543 763 l 1
 543 667 l 1
 632 667 l 2
 696 667 711 682 711 708 c 2
 711 733 l 2
1193 595 m 0
 1193 296 992 -5 614 -5 c 0
 241 -5 36 286 36 595 c 0
 36 908 247 1189 614 1189 c 0
 990 1189 1193 906 1193 595 c 0
614 1039 m 0
 333 1039 186 827 186 595 c 0
 186 364 329 145 614 145 c 0
 902 145 1043 372 1043 595 c 0
 1043 824 904 1039 614 1039 c 0
EndSplineSet
Validated: 3073
EndChar

StartChar: degree
Encoding: 176 176 110
Width: 1229
VWidth: 1947
GlyphClass: 2
Flags: W
HStem: 807 150<502.744 727.649> 1258 150<503.538 727.879>
VStem: 315 150<995.888 1220.36> 765 150<996.785 1220.19>
LayerCount: 2
Fore
SplineSet
915 1108 m 0
 915 946 803 807 615 807 c 0
 428 807 315 944 315 1108 c 0
 315 1275 431 1408 615 1408 c 0
 804 1408 915 1273 915 1108 c 0
615 1258 m 0
 509 1258 465 1186 465 1108 c 0
 465 1030 508 957 615 957 c 0
 723 957 765 1033 765 1108 c 0
 765 1172 735 1258 615 1258 c 0
EndSplineSet
Validated: 3073
EndChar

StartChar: plusminus
Encoding: 177 177 111
Width: 1229
VWidth: 1947
GlyphClass: 2
Flags: W
HStem: 83 150<204 1026> 787 150<204 540 690 1026>
VStem: 540 150<419 787 937 1273>
LayerCount: 2
Fore
SplineSet
1026 233 m 1
 1026 83 l 1
 204 83 l 1
 204 233 l 1
 1026 233 l 1
1026 937 m 1
 1026 787 l 1
 690 787 l 1
 690 419 l 1
 540 419 l 1
 540 787 l 1
 204 787 l 1
 204 937 l 1
 540 937 l 1
 540 1273 l 1
 690 1273 l 1
 690 937 l 1
 1026 937 l 1
EndSplineSet
Validated: 3073
EndChar

StartChar: twosuperior
Encoding: 178 178 112
Width: 1229
VWidth: 2334
GlyphClass: 2
Flags: W
HStem: 575 150<558 901> 1290 150<544.899 753.287>
VStem: 762 150<1104.34 1279.34>
LayerCount: 2
Fore
SplineSet
762 1217 m 2
 762 1289 700 1290 649 1290 c 2
 636 1290 l 2
 573 1290 551 1265 520 1208 c 1
 388 1280 l 1
 426 1350 487 1440 636 1440 c 2
 649 1440 l 2
 722 1440 912 1428 912 1217 c 2
 912 1195 l 2
 912 1145 882 1051 824 997 c 2
 616 804 l 2
 596 786 576 755 558 725 c 1
 901 725 l 1
 901 575 l 1
 434 575 l 1
 434 809 l 1
 462 853 492 893 512 912 c 2
 722 1107 l 2
 746 1129 762 1182 762 1195 c 2
 762 1217 l 2
EndSplineSet
Validated: 3073
EndChar

StartChar: threesuperior
Encoding: 179 179 113
Width: 1229
VWidth: 2334
GlyphClass: 2
Flags: W
HStem: 557 150<533.942 703.292> 947 150<510 675.842> 1285 150<517.895 685.882>
VStem: 356 150<731.297 812> 694 150<1112.83 1278.25> 724 150<727.47 929.352>
CounterMasks: 1 e0
LayerCount: 2
Fore
SplineSet
609 1285 m 2xf8
 573 1285 532 1270 511 1233 c 1
 375 1295 l 1
 391 1323 462 1435 609 1435 c 2
 621 1435 l 2
 755 1435 844 1335 844 1212 c 2
 844 1189 l 2xf8
 844 1158 838 1104 786 1040 c 1
 840 996 874 931 874 856 c 2
 874 835 l 2
 874 634 749 557 621 557 c 2
 609 557 l 2
 485 557 356 672 356 812 c 1
 506 812 l 1
 506 755 568 707 609 707 c 2
 621 707 l 2
 719 707 724 788 724 835 c 2
 724 856 l 2xf4
 724 906 682 947 621 947 c 2
 510 947 l 1
 510 1097 l 1
 614 1097 l 2
 646 1097 694 1149 694 1189 c 2
 694 1212 l 2
 694 1252 672 1285 621 1285 c 2
 609 1285 l 2xf8
EndSplineSet
Validated: 3073
EndChar

StartChar: micro
Encoding: 181 181 115
Width: 1229
VWidth: 2334
GlyphClass: 2
Flags: W
HStem: -25 150<417.032 784.495> 1004 20G<130 280 949 1099>
VStem: 130 150<-297.406 78 249.414 1024> 949 150<11.084 104 281.371 1024>
LayerCount: 2
Fore
SplineSet
1013 -90 m 1
 953 -25 949 59 949 99 c 2
 949 104 l 1
 866 29 755 -25 628 -25 c 2
 603 -25 l 2
 467 -25 358 15 280 78 c 1
 280 -25 l 2
 280 -176 274 -254 214 -380 c 1
 78 -316 l 1
 127 -214 130 -160 130 -25 c 2
 130 1024 l 1
 280 1024 l 1
 280 397 l 2
 280 257 383 125 603 125 c 2
 628 125 l 2
 818 125 949 304 949 397 c 2
 949 1024 l 1
 1099 1024 l 1
 1099 99 l 2
 1099 64 1102 33 1125 10 c 1
 1013 -90 l 1
EndSplineSet
Validated: 3073
EndChar

StartChar: paragraph
Encoding: 182 182 116
Width: 1229
VWidth: 1947
GlyphClass: 2
Flags: W
HStem: 0 21G<541 691 949 1099> 1325 150<691 949>
VStem: 127 564<852.825 1294.79> 541 150<0 684> 949 150<0 1325>
LayerCount: 2
Fore
SplineSet
511 684 m 2xd8
 204 684 127 878 127 1057 c 2
 127 1127 l 2xe8
 127 1358 332 1475 511 1475 c 2
 1099 1475 l 1
 1099 0 l 1
 949 -0 l 1
 949 1325 l 1
 691 1325 l 1
 691 -0 l 1
 541 0 l 1
 541 684 l 1
 511 684 l 2xd8
EndSplineSet
Validated: 3073
EndChar

StartChar: periodcentered
Encoding: 183 183 117
Width: 1229
VWidth: 1947
GlyphClass: 2
Flags: W
HStem: 601 252<518.487 711.331>
VStem: 488 253<630.285 823.069>
LayerCount: 2
Fore
SplineSet
741 727 m 0
 741 659 689 601 614 601 c 0
 541 601 488 659 488 727 c 0
 488 793 538 853 614 853 c 0
 688 853 741 795 741 727 c 0
EndSplineSet
Validated: 3073
EndChar

StartChar: onesuperior
Encoding: 185 185 119
Width: 1229
VWidth: 1708
GlyphClass: 2
Flags: W
HStem: 1405 20G<638.683 773>
VStem: 623 150<641 1253>
LayerCount: 2
Fore
SplineSet
773 1425 m 1
 773 641 l 1
 623 641 l 1
 623 1253 l 1
 505 1195 l 1
 467 1236 l 1
 659 1425 l 1
 773 1425 l 1
EndSplineSet
Validated: 3073
EndChar

StartChar: ordmasculine
Encoding: 186 186 120
Width: 1229
VWidth: 1947
GlyphClass: 2
Flags: W
HStem: 244 150<205 1024> 523 150<470.396 752.058> 1310 150<470.59 759.39>
VStem: 220 150<784.76 1198.08> 851 150<776.401 1210.42>
CounterMasks: 1 e0
LayerCount: 2
Fore
SplineSet
1024 394 m 1
 1024 244 l 1
 205 244 l 1
 205 394 l 1
 1024 394 l 1
1001 992 m 0
 1001 726 882 523 616 523 c 0
 346 523 220 725 220 992 c 0
 220 1257 347 1460 616 1460 c 0
 770 1460 1001 1391 1001 992 c 0
616 1310 m 0
 419 1310 370 1149 370 992 c 0
 370 833 419 673 616 673 c 0
 804 673 851 830 851 992 c 0
 851 1236 757 1310 616 1310 c 0
EndSplineSet
Validated: 3073
EndChar

StartChar: guillemotright
Encoding: 187 187 121
Width: 1229
VWidth: 1947
GlyphClass: 2
Flags: W
LayerCount: 2
Fore
SplineSet
409 446 m 1
 409 491 l 1
 240 776 l 1
 368 852 l 1
 559 533 l 1
 559 404 l 1
 368 86 l 1
 240 162 l 1
 409 446 l 1
829 446 m 1
 829 491 l 1
 660 776 l 1
 788 852 l 1
 979 533 l 1
 979 404 l 1
 788 86 l 1
 660 162 l 1
 829 446 l 1
EndSplineSet
Validated: 3073
EndChar

StartChar: OE
Encoding: 338 338 122
Width: 1229
VWidth: 1947
GlyphClass: 2
Flags: W
HStem: 0 150<320.027 554.201 738 1099> 657 150<738 966> 1250 150<324.416 548.691 738 1099>
VStem: 130 150<188.87 1204.39> 588 150<181.62 657 807 1210.35>
LayerCount: 2
Fore
SplineSet
426 1400 m 2
 457 1400 l 2
 506 1400 550 1388 588 1366 c 1
 588 1400 l 1
 1099 1400 l 1
 1099 1250 l 1
 738 1250 l 1
 738 807 l 1
 966 807 l 1
 966 657 l 1
 738 657 l 1
 738 150 l 1
 1099 150 l 1
 1099 0 l 1
 588 0 l 1
 588 31 l 1
 551 11 507 0 457 0 c 2
 426 0 l 2
 234 0 130 149 130 284 c 2
 130 1096 l 2
 130 1225 226 1400 426 1400 c 2
280 1096 m 2
 280 284 l 2
 280 236 314 150 426 150 c 2
 457 150 l 2
 547 150 588 227 588 284 c 2
 588 1096 l 2
 588 1159 545 1250 457 1250 c 2
 426 1250 l 2
 320 1250 280 1152 280 1096 c 2
EndSplineSet
Validated: 3073
EndChar

StartChar: oe
Encoding: 339 339 123
Width: 1229
VWidth: 1947
GlyphClass: 2
Flags: W
HStem: -25 150<303.353 512.192 717.907 925.788> 467 150<691 949> 899 150<304.861 512.996 719.418 927.384>
VStem: 130 150<149.078 873.686> 541 150<154.683 467 617 870.99> 949 150<149.078 249 617 874.922>
LayerCount: 2
Fore
SplineSet
691 775 m 2
 691 617 l 1
 949 617 l 1
 949 775 l 2
 949 833 926 899 820 899 c 0
 727 899 691 828 691 775 c 2
691 249 m 2
 691 191 727 125 820 125 c 0
 924 125 949 192 949 249 c 1
 1099 249 l 1
 1099 99 1000 -25 820 -25 c 0
 732 -25 663 9 615 59 c 1
 568 9 499 -25 412 -25 c 0
 228 -25 130 99 130 249 c 2
 130 775 l 2
 130 922 231 1049 412 1049 c 0
 500 1049 569 1016 617 965 c 1
 665 1015 733 1049 820 1049 c 0
 1002 1049 1099 925 1099 775 c 2
 1099 467 l 1
 691 467 l 1
 691 249 l 2
280 775 m 2
 280 249 l 2
 280 192 302 125 412 125 c 0
 502 125 541 195 541 249 c 2
 541 775 l 2
 541 832 504 899 412 899 c 0
 307 899 280 832 280 775 c 2
EndSplineSet
Validated: 3073
EndChar

StartChar: AE
Encoding: 198 198 132
Width: 1229
VWidth: 1947
GlyphClass: 2
Flags: W
HStem: 0 150<798 1099> 689 150<412 648 798 1024> 1250 150<504.533 648 798 1099>
VStem: 648 150<150 689 839 1250>
LayerCount: 2
Fore
SplineSet
648 839 m 1
 648 1250 l 1
 637 1250 l 2
 503 1250 491 1204 480 1152 c 2
 412 839 l 1
 648 839 l 1
334 1184 m 2
 352 1266 394 1400 637 1400 c 2
 1099 1400 l 1
 1099 1250 l 1
 798 1250 l 1
 798 839 l 1
 1024 839 l 1
 1024 689 l 1
 798 689 l 1
 798 150 l 1
 1099 150 l 1
 1099 0 l 1
 648 0 l 1
 648 689 l 1
 379 689 l 1
 229 0 l 1
 76 0 l 1
 334 1184 l 2
EndSplineSet
Validated: 3073
EndChar

StartChar: Eth
Encoding: 208 208 142
Width: 1229
VWidth: 1947
GlyphClass: 2
Flags: W
HStem: 0 150<370 758.106> 681 150<80 220 370 573> 1250 150<370 770.724>
VStem: 220 150<150 681 831 1250> 947 150<392.138 1058.3>
LayerCount: 2
Fore
SplineSet
1097 763 m 2
 1097 700 l 2
 1097 98 790 0 586 0 c 2
 220 0 l 1
 220 681 l 1
 80 681 l 1
 80 831 l 1
 220 831 l 1
 220 1400 l 1
 586 1400 l 2
 995 1400 1097 1097 1097 763 c 2
586 1250 m 2
 370 1250 l 1
 370 831 l 1
 573 831 l 1
 573 681 l 1
 370 681 l 1
 370 150 l 1
 586 150 l 2
 803 150 947 294 947 700 c 2
 947 763 l 2
 947 1151 803 1250 586 1250 c 2
EndSplineSet
Validated: 3073
EndChar

StartChar: multiply
Encoding: 215 215 149
Width: 1229
VWidth: 1708
GlyphClass: 2
Flags: W
LayerCount: 2
Fore
SplineSet
852 975 m 1
 960 871 l 1
 718 616 l 1
 960 361 l 1
 852 257 l 1
 615 507 l 1
 378 257 l 1
 270 361 l 1
 512 616 l 1
 270 871 l 1
 378 975 l 1
 615 725 l 1
 852 975 l 1
EndSplineSet
Validated: 3073
EndChar

StartChar: Thorn
Encoding: 222 222 156
Width: 1229
VWidth: 1947
GlyphClass: 2
Flags: W
HStem: 0 21G<130 280> 370 150<280 820.848> 1155 150<280 834.592>
VStem: 130 150<0 370 520 1155 1305 1540> 949 150<638.574 1053.67>
LayerCount: 2
Fore
SplineSet
628 520 m 2
 848 520 949 636 949 777 c 2
 949 910 l 2
 949 1106 782 1155 628 1155 c 2
 280 1155 l 1
 280 520 l 1
 628 520 l 2
280 -0 m 1
 130 0 l 1
 130 1540 l 1
 280 1540 l 1
 280 1305 l 1
 628 1305 l 2
 952 1305 1099 1126 1099 910 c 2
 1099 777 l 2
 1099 556 937 370 628 370 c 2
 280 370 l 1
 280 -0 l 1
EndSplineSet
Validated: 3073
EndChar

StartChar: germandbls
Encoding: 223 223 157
Width: 1229
VWidth: 1947
GlyphClass: 2
Flags: W
HStem: -25 150<529.181 838.59> 712 150<529 795.634> 1275 150<416.144 803.651>
VStem: 130 150<-388 1152.1> 877 150<935.482 1208.24> 949 150<232.067 618.233>
LayerCount: 2
Fore
SplineSet
130 1036 m 2xf8
 130 1278 358 1425 603 1425 c 2
 628 1425 l 2
 875 1425 1027 1299 1027 1093 c 2
 1027 1055 l 2xf8
 1027 976 1006 874 910 802 c 1
 1033 737 1099 624 1099 485 c 2
 1099 377 l 2
 1099 153 931 -25 694 -25 c 2
 683 -25 l 2
 541 -25 477 14 446 34 c 1
 528 160 l 1
 553 144 590 125 683 125 c 2
 694 125 l 2
 853 125 949 240 949 377 c 2
 949 485 l 2xf4
 949 667 779 712 628 712 c 2
 529 712 l 1
 529 862 l 1
 556 862 l 2
 806 862 877 939 877 1055 c 2
 877 1093 l 2
 877 1239 750 1275 628 1275 c 2
 603 1275 l 2
 381 1275 280 1131 280 1036 c 2
 280 -388 l 1
 130 -388 l 1
 130 1036 l 2xf8
EndSplineSet
Validated: 3073
EndChar

StartChar: ae
Encoding: 230 230 164
Width: 1229
VWidth: 1947
GlyphClass: 2
Flags: W
HStem: -25 150<281.507 507.444 723.103 946.778> 467 150<293.174 541 691 979> 899 150<284.498 508.53 724.364 949.427>
VStem: 102 150<158.125 427.82 775 866.677> 541 150<158.432 467 617 865.231> 979 150<157.323 249 617 865.875>
LayerCount: 2
Fore
SplineSet
541 467 m 1
 408 467 l 2
 302 467 252 396 252 328 c 2
 252 249 l 2
 252 184 298 125 402 125 c 0
 495 125 541 196 541 249 c 2
 541 467 l 1
691 617 m 1
 979 617 l 1
 979 775 l 2
 979 842 931 899 830 899 c 0
 737 899 691 828 691 775 c 2
 691 617 l 1
691 249 m 2
 691 190 738 125 830 125 c 0
 929 125 979 186 979 249 c 1
 1129 249 l 1
 1129 104 1014 -25 830 -25 c 0
 739 -25 665 11 615 64 c 1
 565 11 492 -25 402 -25 c 0
 211 -25 102 106 102 249 c 2
 102 328 l 2
 102 476 215 617 408 617 c 2
 541 617 l 1
 541 775 l 2
 541 833 493 899 402 899 c 0
 302 899 252 838 252 775 c 1
 102 775 l 1
 102 920 217 1049 402 1049 c 0
 493 1049 566 1013 616 960 c 1
 666 1013 740 1049 830 1049 c 0
 1020 1049 1129 918 1129 775 c 2
 1129 467 l 1
 691 467 l 1
 691 249 l 2
EndSplineSet
Validated: 3073
EndChar

StartChar: eth
Encoding: 240 240 174
Width: 1229
VWidth: 1947
GlyphClass: 2
Flags: W
HStem: -25 150<439.658 805.917> 774 150<425.511 801.265> 1027 21G<223.889 294.915> 1402 20G<937.273 1008.11>
VStem: 130 150<283.539 631.477> 949 150<268.851 629.425>
LayerCount: 2
Fore
SplineSet
949 447 m 2
 949 477 l 2
 949 614 851 774 628 774 c 2
 603 774 l 2
 387 774 280 631 280 477 c 2
 280 447 l 2
 280 262 423 125 603 125 c 2
 628 125 l 2
 856 125 949 268 949 447 c 2
603 924 m 2
 628 924 l 2
 716 924 793 905 857 873 c 1
 798 964 712 1058 613 1145 c 1
 230 1027 l 1
 186 1171 l 1
 471 1258 l 1
 417 1297 360 1334 302 1367 c 1
 376 1497 l 1
 458 1450 553 1387 646 1312 c 1
 1002 1422 l 1
 1046 1278 l 1
 779 1196 l 1
 956 1027 1099 821 1099 620 c 2
 1099 447 l 2
 1099 174 928 -25 628 -25 c 2
 603 -25 l 2
 340 -25 130 180 130 447 c 2
 130 477 l 2
 130 701 291 924 603 924 c 2
EndSplineSet
Validated: 3073
EndChar

StartChar: divide
Encoding: 247 247 181
Width: 1229
VWidth: 1947
GlyphClass: 2
Flags: W
HStem: 124 236<517.831 711.094> 525 150<204 1026> 842 236<517.831 711.094>
VStem: 490 249<153.313 331.037 871.313 1049.04>
LayerCount: 2
Fore
SplineSet
1026 675 m 1
 1026 525 l 1
 204 525 l 1
 204 675 l 1
 1026 675 l 1
739 960 m 0
 739 891 680 842 614 842 c 0
 550 842 490 892 490 960 c 0
 490 1022 544 1078 614 1078 c 0
 679 1078 739 1030 739 960 c 0
739 242 m 0
 739 173 680 124 614 124 c 0
 550 124 490 174 490 242 c 0
 490 304 544 360 614 360 c 0
 679 360 739 312 739 242 c 0
EndSplineSet
Validated: 3073
EndChar

StartChar: oslash
Encoding: 248 248 182
Width: 1229
VWidth: 1947
GlyphClass: 2
Flags: W
HStem: -25 150<445.984 809.99> 898 150<415.075 788.025>
VStem: 157 150<267.915 784.084> 925 150<252.691 752.125>
LayerCount: 2
Fore
SplineSet
893 757 m 1
 443 152 l 1
 484 132 532 125 586 125 c 2
 637 125 l 2
 811 125 925 196 925 470 c 2
 925 562 l 2
 925 645 914 708 893 757 c 1
641 898 m 2
 584 898 l 2
 418 898 307 826 307 561 c 2
 307 471 l 2
 307 383 319 316 340 265 c 1
 790 870 l 1
 748 890 697 898 641 898 c 2
966 1107 m 1
 1086 1017 l 1
 991 889 l 1
 1043 814 1075 708 1075 562 c 2
 1075 470 l 2
 1075 79 862 -25 637 -25 c 2
 586 -25 l 2
 503 -25 422 -10 353 30 c 1
 261 -93 l 1
 141 -3 l 1
 242 133 l 1
 189 209 157 318 157 471 c 2
 157 561 l 2
 157 941 364 1048 584 1048 c 2
 641 1048 l 2
 726 1048 809 1032 880 991 c 1
 966 1107 l 1
EndSplineSet
Validated: 3073
EndChar

StartChar: thorn
Encoding: 254 254 188
Width: 1229
VWidth: 1947
GlyphClass: 2
Flags: W
HStem: -385 21G<130 280> -25 150<412.095 807.906> 899 150<421.271 810.461> 1380 20G<130 280>
VStem: 130 150<-385 76 244.388 767.672 941 1400> 949 150<274.473 753.812>
LayerCount: 2
Fore
SplineSet
1099 533 m 2
 1099 493 l 2
 1099 106 877 -25 631 -25 c 2
 601 -25 l 2
 471 -25 361 13 280 76 c 1
 280 -385 l 1
 130 -385 l 1
 130 1400 l 1
 280 1400 l 1
 280 941 l 1
 360 1008 469 1049 596 1049 c 2
 637 1049 l 2
 902 1049 1099 895 1099 533 c 2
637 899 m 2
 596 899 l 2
 397 899 280 765 280 625 c 2
 280 384 l 2
 280 229 412 125 601 125 c 2
 631 125 l 2
 822 125 949 217 949 493 c 2
 949 533 l 2
 949 805 824 899 637 899 c 2
EndSplineSet
Validated: 3073
EndChar

StartChar: minus
Encoding: 8722 8722 190
Width: 1229
VWidth: 1708
GlyphClass: 2
Flags: W
HStem: 525 150<205 1024>
LayerCount: 2
Fore
SplineSet
1024 675 m 1
 1024 525 l 1
 205 525 l 1
 205 675 l 1
 1024 675 l 1
EndSplineSet
Validated: 3073
EndChar

StartChar: gravemodifier
Encoding: 715 715 193
Width: 1229
VWidth: 2334
GlyphClass: 2
Flags: W
HStem: 1319 407
VStem: 446 398
LayerCount: 2
Fore
SplineSet
844 1454 m 1
 704 1319 l 1
 446 1591 l 1
 586 1726 l 1
 844 1454 l 1
EndSplineSet
Validated: 3073
EndChar

StartChar: acute
Encoding: 180 180 194
Width: 1229
VWidth: 1947
GlyphClass: 2
Flags: W
HStem: 1189 477
VStem: 407 417
LayerCount: 2
Fore
SplineSet
565 1189 m 1
 407 1303 l 1
 666 1666 l 1
 824 1552 l 1
 565 1189 l 1
EndSplineSet
Validated: 3073
EndChar

StartChar: circumflex
Encoding: 710 710 195
Width: 1229
VWidth: 1947
GlyphClass: 2
Flags: W
HStem: 1394 244
VStem: 326 580
LayerCount: 2
Fore
SplineSet
702 1638 m 1
 906 1526 l 1
 834 1394 l 1
 616 1514 l 1
 398 1394 l 1
 326 1526 l 1
 530 1638 l 1
 702 1638 l 1
EndSplineSet
Validated: 3073
EndChar

StartChar: tilde
Encoding: 732 732 196
Width: 1229
VWidth: 1947
GlyphClass: 2
Flags: W
HStem: 1447 150<644.194 811.389> 1537 150<420.331 586.865>
LayerCount: 2
Fore
SplineSet
290 1569 m 2x40
 360 1676 440 1687 478 1687 c 2
 494 1687 l 2x40
 515 1687 599 1682 655 1632 c 2
 674 1615 l 2
 678 1611 711 1597 735 1597 c 2
 752 1597 l 2
 766 1597 794 1610 815 1646 c 2
 829 1670 l 1
 959 1594 l 1
 945 1570 l 2
 875 1451 752 1447 752 1447 c 2
 735 1447 l 2x80
 670 1447 604 1477 574 1503 c 2
 556 1519 l 2
 547 1527 525 1537 494 1537 c 2
 478 1537 l 2
 474 1537 447 1535 416 1487 c 2
 399 1461 l 1
 273 1543 l 1
 290 1569 l 2x40
EndSplineSet
Validated: 3073
EndChar

StartChar: macronmodifier
Encoding: 713 713 197
Width: 1229
VWidth: 1947
GlyphClass: 2
Flags: W
HStem: 1463 150<388 841>
VStem: 388 453<1463 1613>
LayerCount: 2
Fore
SplineSet
388 1463 m 1
 388 1613 l 1
 841 1613 l 1
 841 1463 l 1
 388 1463 l 1
EndSplineSet
Validated: 3073
EndChar

StartChar: breve
Encoding: 728 728 198
Width: 1229
VWidth: 1947
GlyphClass: 2
Flags: W
HStem: 1405 150<483.79 744.458>
VStem: 326 578
LayerCount: 2
Fore
SplineSet
613 1405 m 0
 498 1405 396 1460 326 1544 c 1
 440 1640 l 1
 508 1559 587 1555 613 1555 c 0
 684 1555 746 1589 790 1641 c 1
 904 1545 l 1
 833 1460 730 1405 613 1405 c 0
EndSplineSet
Validated: 3073
EndChar

StartChar: dotaccent
Encoding: 729 729 199
Width: 1229
VWidth: 1947
GlyphClass: 2
Flags: W
HStem: 1378 258<512.773 708.031>
VStem: 482 258<1411.6 1602.4>
LayerCount: 2
Fore
SplineSet
482 1507 m 0
 482 1578 538 1636 610 1636 c 0
 681 1636 740 1578 740 1507 c 0
 740 1436 681 1378 610 1378 c 0
 538 1378 482 1436 482 1507 c 0
EndSplineSet
Validated: 3073
EndChar

StartChar: dieresis
Encoding: 168 168 200
Width: 1229
VWidth: 1947
GlyphClass: 2
Flags: W
HStem: 1409 228<311.461 484.232 746.311 917.229>
VStem: 287 223<1434.3 1613> 722 219<1433.69 1613.7>
LayerCount: 2
Fore
SplineSet
510 1524 m 0
 510 1463 459 1409 399 1409 c 0
 339 1409 287 1459 287 1524 c 0
 287 1592 342 1637 398 1637 c 0
 462 1637 510 1584 510 1524 c 0
941 1524 m 0
 941 1457 888 1409 832 1409 c 0
 774 1409 722 1461 722 1524 c 0
 722 1589 774 1637 832 1637 c 0
 885 1637 941 1592 941 1524 c 0
EndSplineSet
Validated: 3073
EndChar

StartChar: ring
Encoding: 730 730 202
Width: 1229
VWidth: 1947
GlyphClass: 2
Flags: W
HStem: 1223 110<529.515 684.788> 1517 110<529.515 684.788>
VStem: 405 110<1346.23 1503.77> 699 110<1348.51 1501.49>
LayerCount: 2
Fore
SplineSet
405 1425 m 0
 405 1537 493 1627 605 1627 c 0
 717 1627 809 1537 809 1425 c 0
 809 1313 717 1223 605 1223 c 0
 493 1223 405 1313 405 1425 c 0
515 1425 m 0
 515 1374 555 1333 606 1333 c 0
 657 1333 699 1374 699 1425 c 0
 699 1476 657 1517 606 1517 c 0
 555 1517 515 1476 515 1425 c 0
EndSplineSet
Validated: 3073
EndChar

StartChar: cedilla
Encoding: 184 184 203
Width: 1229
VWidth: 1947
GlyphClass: 2
Flags: W
HStem: -486 130<521.786 755.194> -187 205<577 722.208>
VStem: 577 150<-73.9863 18> 766 150<-341.816 -201.526>
LayerCount: 2
Fore
SplineSet
766 -270 m 31
 766 -212 724 -187 643 -187 c 6
 563 -187 l 5
 577 3 l 5
 577 18 l 5
 727 18 l 5
 727 -3 l 5
 723 -63 l 5
 857 -86 916 -160 916 -270 c 7
 916 -424 783 -486 655 -486 c 7
 555 -486 472 -449 405 -391 c 5
 503 -297 l 5
 542 -331 591 -356 655 -356 c 7
 722 -356 766 -325 766 -270 c 31
EndSplineSet
Validated: 3073
EndChar

StartChar: ogonek
Encoding: 731 731 204
Width: 1229
VWidth: 1947
GlyphClass: 2
Flags: W
HStem: -420 150<598.404 744.297>
VStem: 447 150<-268.071 -148.901>
LayerCount: 2
Fore
SplineSet
783 -371 m 1
 748 -400 701 -420 650 -420 c 0
 537 -420 447 -328 447 -216 c 0
 447 -161 469 -111 504 -74 c 1
 609 31 l 1
 609 72 l 1
 759 72 l 1
 759 -31 l 1
 612 -178 l 2
 603 -187 597 -201 597 -216 c 0
 597 -246 621 -270 650 -270 c 0
 663 -270 674 -266 685 -257 c 2
 711 -234 l 1
 811 -346 l 1
 783 -371 l 1
EndSplineSet
Validated: 3073
EndChar

StartChar: caron
Encoding: 711 711 205
Width: 1229
VWidth: 1947
GlyphClass: 2
Flags: W
HStem: 1422 244
VStem: 326 580
LayerCount: 2
Fore
SplineSet
616 1546 m 1
 834 1666 l 1
 906 1534 l 1
 702 1422 l 1
 530 1422 l 1
 326 1534 l 1
 398 1666 l 1
 616 1546 l 1
EndSplineSet
Validated: 3073
EndChar

StartChar: dotlessi
Encoding: 305 305 206
Width: 1229
VWidth: 1947
GlyphClass: 2
Flags: W
HStem: 0 150<205 541 691 1024> 874 150<295 541>
VStem: 541 150<150 874>
LayerCount: 2
Fore
SplineSet
295 1024 m 1
 691 1024 l 1
 691 150 l 1
 1024 150 l 1
 1024 0 l 1
 205 0 l 1
 205 150 l 1
 541 150 l 1
 541 874 l 1
 295 874 l 1
 295 1024 l 1
EndSplineSet
Validated: 3073
EndChar

StartChar: currency
Encoding: 164 164 210
Width: 1229
VWidth: 1947
GlyphClass: 2
Flags: W
HStem: 387 150<470.749 762.87> 1033 150<471.499 757.46>
VStem: 220 150<634.949 931.426> 858 150<630.115 931.426>
LayerCount: 2
Fore
SplineSet
1008 800 m 2
 1008 769 l 2
 1008 689 986 619 950 562 c 1
 1100 390 l 1
 987 292 l 1
 845 454 l 1
 780 410 702 387 624 387 c 2
 605 387 l 2
 527 387 450 412 386 456 c 1
 242 292 l 1
 129 390 l 1
 281 564 l 1
 243 622 220 692 220 769 c 2
 220 800 l 2
 220 874 243 943 280 1001 c 1
 129 1174 l 1
 242 1272 l 1
 384 1110 l 1
 448 1156 526 1183 605 1183 c 2
 624 1183 l 2
 703 1183 781 1156 845 1110 c 1
 987 1272 l 1
 1100 1174 l 1
 949 1001 l 1
 986 943 1008 874 1008 800 c 2
624 1033 m 2
 605 1033 l 2
 491 1033 370 933 370 800 c 2
 370 769 l 2
 370 631 490 537 605 537 c 2
 624 537 l 2
 740 537 858 620 858 769 c 2
 858 800 l 2
 858 933 738 1033 624 1033 c 2
EndSplineSet
Validated: 3073
EndChar

StartChar: brokenbar
Encoding: 166 166 211
Width: 1229
VWidth: 1947
GlyphClass: 2
Flags: W
VStem: 540 150<-77 600 832 1477>
LayerCount: 2
Fore
SplineSet
540 600 m 1
 690 600 l 1
 690 -77 l 1
 540 -77 l 1
 540 600 l 1
540 1477 m 1
 690 1477 l 1
 690 832 l 1
 540 832 l 1
 540 1477 l 1
EndSplineSet
Validated: 3073
EndChar

StartChar: onequarter
Encoding: 188 188 212
Width: 1229
VWidth: 1708
GlyphClass: 2
Flags: W
HStem: -34 150<713 859 1009 1097>
VStem: 281 150<803 1387> 859 150<-209 -34 116 305>
LayerCount: 2
Fore
SplineSet
1009 -34 m 1
 1009 -209 l 1
 859 -209 l 1
 859 -34 l 1
 548 -34 l 1
 548 148 l 1
 878 575 l 1
 1009 575 l 1
 1009 116 l 1
 1097 116 l 1
 1097 -34 l 1
 1009 -34 l 1
959 1462 m 1
 1089 1388 l 1
 270 -62 l 1
 140 12 l 1
 959 1462 l 1
859 305 m 1
 713 116 l 1
 859 116 l 1
 859 305 l 1
431 1569 m 1
 431 803 l 1
 281 803 l 1
 281 1387 l 1
 166 1334 l 1
 131 1384 l 1
 326 1569 l 1
 431 1569 l 1
EndSplineSet
Validated: 3073
EndChar

StartChar: onehalf
Encoding: 189 189 213
Width: 1229
VWidth: 1708
GlyphClass: 2
Flags: W
HStem: -285 150<807 1155> 398 150<767.994 1047.34>
VStem: 271 150<803 1387> 1055 150<219.303 383.304>
LayerCount: 2
Fore
SplineSet
959 1462 m 1
 1089 1388 l 1
 271 -62 l 1
 140 12 l 1
 959 1462 l 1
898 548 m 2
 913 548 l 2
 1159 548 1205 414 1205 325 c 2
 1205 303 l 2
 1205 197 1142 132 1105 103 c 2
 836 -108 l 2
 825 -117 815 -126 807 -135 c 1
 1155 -135 l 1
 1155 -285 l 1
 651 -285 l 1
 651 -96 l 1
 674 -58 703 -22 744 10 c 2
 1009 217 l 2
 1038 240 1055 290 1055 303 c 2
 1055 325 l 2
 1055 369 1026 398 913 398 c 2
 898 398 l 2
 808 398 781 377 751 331 c 1
 625 413 l 1
 669 481 734 548 898 548 c 2
421 1569 m 1
 421 803 l 1
 271 803 l 1
 271 1387 l 1
 156 1334 l 1
 121 1384 l 1
 316 1569 l 1
 421 1569 l 1
EndSplineSet
Validated: 3073
EndChar

StartChar: threequarters
Encoding: 190 190 214
Width: 1229
VWidth: 1708
GlyphClass: 2
Flags: W
HStem: -34 150<723 869 1019 1107> 789 150<181.621 437.869> 1004 20G<14 164> 1180 150<195 417.939> 1454 150<181.674 411.731>
VStem: 14 150<962.09 1024> 420 151<1332.76 1442.98> 461 150<962.656 1175.03> 869 150<-209 -34 116 305>
CounterMasks: 1 58
LayerCount: 2
Fore
SplineSet
1019 -34 m 1xfc80
 1019 -209 l 1
 869 -209 l 1
 869 -34 l 1
 558 -34 l 1
 558 148 l 1
 888 575 l 1
 1019 575 l 1
 1019 116 l 1
 1107 116 l 1
 1107 -34 l 1
 1019 -34 l 1xfc80
959 1462 m 1
 1089 1388 l 1
 270 -62 l 1
 140 12 l 1
 959 1462 l 1
420 1379 m 3xfe80
 420 1447 358 1454 321 1454 c 2
 305 1454 l 2
 233 1454 188 1425 170 1394 c 1
 40 1470 l 1
 92 1557 193 1604 305 1604 c 2
 321 1604 l 2
 335 1604 571 1598 571 1400 c 2
 571 1365 l 2xfe80
 571 1342 560 1309 541 1277 c 1
 595 1232 611 1164 611 1085 c 2
 611 1074 l 2
 611 900 508 789 321 789 c 2
 305 789 l 2
 83 789 14 929 14 1024 c 1
 164 1024 l 1
 164 1007 182 939 305 939 c 2
 321 939 l 2
 431 939 461 991 461 1074 c 2
 461 1085 l 2xfd80
 461 1177 446 1180 341 1180 c 2
 195 1180 l 1
 195 1330 l 1
 341 1330 l 2
 407 1330 420 1350 420 1379 c 3xfe80
869 305 m 1
 723 116 l 1
 869 116 l 1
 869 305 l 1
EndSplineSet
Validated: 3073
EndChar

StartChar: Lslash
Encoding: 321 321 216
Width: 1229
VWidth: 1947
GlyphClass: 2
Flags: W
HStem: 0 151<363 1099> 1380 20G<213 363>
VStem: 213 150<151 470 667 1400>
LayerCount: 2
Fore
SplineSet
363 151 m 1
 1099 151 l 1
 1099 0 l 1
 213 0 l 1
 213 470 l 1
 100 440 l 1
 60 584 l 1
 213 626 l 1
 213 1400 l 1
 363 1400 l 1
 363 667 l 1
 861 802 l 1
 901 658 l 1
 363 511 l 1
 363 151 l 1
EndSplineSet
Validated: 3073
EndChar

StartChar: lslash
Encoding: 322 322 257
Width: 1229
VWidth: 1947
GlyphClass: 2
Flags: W
HStem: 0 150<205 541 691 1024> 1250 150<205 541>
VStem: 541 150<150 525 717 1250>
LayerCount: 2
Fore
SplineSet
1040 803 m 1
 1076 657 l 1
 691 562 l 1
 691 150 l 1
 1024 150 l 1
 1024 0 l 1
 205 0 l 1
 205 150 l 1
 541 150 l 1
 541 525 l 1
 192 439 l 1
 156 585 l 1
 541 680 l 1
 541 1250 l 1
 205 1250 l 1
 205 1400 l 1
 691 1400 l 1
 691 717 l 1
 1040 803 l 1
EndSplineSet
Validated: 3073
EndChar

StartChar: dotlessj
Encoding: 567 567 260
Width: 1229
VWidth: 1947
GlyphClass: 2
Flags: W
HStem: -369 150<528.214 755.742> 874 150<461 814>
VStem: 313 150<-154.625 -70> 814 150<-157.585 874>
LayerCount: 2
Fore
SplineSet
637 -219 m 0
 724 -219 814 -149 814 -69 c 2
 814 874 l 1
 461 874 l 1
 461 1024 l 1
 964 1024 l 1
 964 -69 l 2
 964 -233 809 -369 637 -369 c 0
 463 -369 313 -206 313 -70 c 1
 463 -70 l 1
 463 -125 547 -219 637 -219 c 0
EndSplineSet
Validated: 3073
EndChar

StartChar: eng
Encoding: 331 331 261
Width: 1229
VWidth: 2334
GlyphClass: 2
Flags: W
HStem: -369 150<529.515 846.167> -0 21G<130 280> 899 150<471.112 840.689> 1004 20G<130 280>
VStem: 130 150<0 686.849 888 1024> 949 150<-115.165 805.275>
LayerCount: 2
Fore
SplineSet
636 -219 m 2xec
 711 -219 l 2
 863 -219 949 -92 949 12 c 2
 949 679 l 2
 949 855 785 899 628 899 c 2
 603 899 l 2xec
 419 899 280 655 280 557 c 2
 280 -0 l 1
 130 -0 l 1
 130 1024 l 1
 280 1024 l 1xdc
 280 888 l 1
 362 980 474 1049 603 1049 c 2
 628 1049 l 2
 932 1049 1099 903 1099 679 c 2
 1099 12 l 2
 1099 -168 953 -369 711 -369 c 2
 636 -369 l 2
 532 -369 441 -300 376 -245 c 1
 472 -131 l 1
 487 -144 574 -219 636 -219 c 2xec
EndSplineSet
Validated: 3073
EndChar

StartChar: ellipsis
Encoding: 8230 8230 266
Width: 1229
VWidth: 1947
GlyphClass: 2
Flags: W
HStem: 32 161<138.765 273.235 548.734 683.003 954.966 1090>
VStem: 130 152<39.5804 185.127> 540 152<39.5804 184.739> 946 153<39.5804 184.739>
CounterMasks: 1 70
LayerCount: 2
Fore
SplineSet
1099 113 m 0
 1099 71 1066 32 1022 32 c 0
 980 32 946 70 946 113 c 0
 946 155 979 193 1022 193 c 0
 1067 193 1099 152 1099 113 c 0
282 113 m 0
 282 71 250 32 206 32 c 0
 163 32 130 70 130 113 c 0
 130 155 162 193 206 193 c 0
 250 193 282 152 282 113 c 0
692 113 m 0
 692 71 659 32 615 32 c 0
 573 32 540 70 540 113 c 0
 540 155 572 193 615 193 c 0
 660 193 692 152 692 113 c 0
EndSplineSet
Validated: 3073
EndChar

StartChar: uparrow
Encoding: 8593 8593 267
Width: 1229
VWidth: 1708
GlyphClass: 2
Flags: W
HStem: 1024 20G<535.598 694.402>
VStem: 535 160<177 794>
LayerCount: 2
Fore
SplineSet
695 177 m 1
 535 177 l 1
 535 794 l 1
 312 564 l 1
 198 676 l 1
 555 1044 l 1
 675 1044 l 1
 1032 676 l 1
 918 564 l 1
 695 794 l 1
 695 177 l 1
EndSplineSet
Validated: 3073
EndChar

StartChar: downarrow
Encoding: 8595 8595 268
Width: 1229
VWidth: 1708
GlyphClass: 2
Flags: W
VStem: 535 160<387 991>
LayerCount: 2
Fore
SplineSet
535 991 m 1
 695 991 l 1
 695 387 l 1
 915 633 l 1
 1035 527 l 1
 675 124 l 1
 555 124 l 1
 195 527 l 1
 315 633 l 1
 535 387 l 1
 535 991 l 1
EndSplineSet
Validated: 3073
EndChar

StartChar: spaceopenbox
Encoding: 9251 9251 269
Width: 1229
VWidth: 1708
GlyphClass: 2
Flags: W
HStem: -167 291<130 280 949 1099> -167 150<280 949>
VStem: 130 150<-17 124> 949 150<-17 124>
LayerCount: 2
Fore
SplineSet
1099 124 m 1xb0
 1099 -167 l 1
 130 -167 l 1
 130 124 l 1
 280 124 l 1xb0
 280 -17 l 1
 949 -17 l 1x70
 949 124 l 1
 1099 124 l 1xb0
EndSplineSet
Validated: 3073
EndChar

StartChar: foursuperior
Encoding: 8308 8308 271
Width: 1229
VWidth: 1947
GlyphClass: 2
Flags: W
HStem: 764 150<433 746 896 1024> 1405 20G<717.695 896>
VStem: 746 150<544 764 914 1223>
LayerCount: 2
Fore
SplineSet
896 764 m 1
 896 544 l 1
 746 544 l 1
 746 764 l 1
 205 764 l 1
 205 900 l 1
 738 1425 l 1
 896 1425 l 1
 896 914 l 1
 1024 914 l 1
 1024 764 l 1
 896 764 l 1
746 1223 m 1
 433 914 l 1
 746 914 l 1
 746 1223 l 1
EndSplineSet
Validated: 3073
EndChar

StartChar: Eng
Encoding: 330 330 273
Width: 1229
VWidth: 2334
GlyphClass: 2
Flags: W
HStem: -369 150<515.281 846.167> -0 21G<130 280> 1275 150<474.906 820.023> 1380 20G<130 280>
VStem: 130 150<0 1051.19 1257 1400> 949 150<-115.165 1161.29>
LayerCount: 2
Fore
SplineSet
636 -219 m 2xec
 711 -219 l 2
 863 -219 949 -92 949 12 c 2
 949 1024 l 2
 949 1162 849 1275 628 1275 c 2
 603 1275 l 2xec
 419 1275 280 1015 280 918 c 2
 280 -0 l 1
 130 -0 l 1
 130 1400 l 1
 280 1400 l 1xdc
 280 1257 l 1
 362 1352 474 1425 603 1425 c 2
 628 1425 l 2
 935 1425 1099 1244 1099 1024 c 2
 1099 12 l 2
 1099 -168 953 -369 711 -369 c 2
 636 -369 l 2
 536 -369 418 -316 361 -229 c 1
 487 -147 l 1
 506 -176 569 -219 636 -219 c 2xec
EndSplineSet
Validated: 3073
EndChar

StartChar: dcroat
Encoding: 273 273 274
Width: 1229
VWidth: 1947
GlyphClass: 2
Flags: W
HStem: -25 150<405.262 780.883> 0 21G<889 1039> 899 150<388.579 780.883> 1155 150<567 889 1039 1161> 1380 20G<889 1039>
VStem: 130 150<252.783 783.219> 889 150<0 60 230.947 787 964 1155 1305 1400>
LayerCount: 2
Fore
SplineSet
280 597 m 2xbe
 280 427 l 2
 280 248 389 125 573 125 c 2
 598 125 l 2
 762 125 889 185 889 427 c 2
 889 597 l 2
 889 839 760 899 598 899 c 2
 573 899 l 2
 411 899 280 839 280 597 c 2xbe
573 1049 m 2
 598 1049 l 2
 721 1049 818 1019 889 964 c 1
 889 1155 l 1
 567 1155 l 1
 567 1305 l 1
 889 1305 l 1
 889 1400 l 1
 1039 1400 l 1
 1039 1305 l 1
 1161 1305 l 1
 1161 1155 l 1
 1039 1155 l 1
 1039 -0 l 1
 889 0 l 1x7e
 889 60 l 1
 818 5 721 -25 598 -25 c 2
 573 -25 l 2
 315 -25 130 155 130 427 c 2
 130 597 l 2
 130 871 275 1049 573 1049 c 2
EndSplineSet
Validated: 3073
EndChar

StartChar: bullet
Encoding: 8226 8226 280
Width: 1229
VWidth: 1947
GlyphClass: 2
Flags: W
HStem: 516 303<516.141 711.916>
VStem: 469 291<564.375 772.875>
LayerCount: 2
Fore
SplineSet
760 669 m 0
 760 594 694 516 614 516 c 0
 533 516 469 596 469 669 c 0
 469 746 537 819 614 819 c 0
 691 819 760 746 760 669 c 0
EndSplineSet
Validated: 3073
EndChar

StartChar: florin
Encoding: 402 402 281
Width: 1229
VWidth: 1947
GlyphClass: 2
Flags: W
HStem: -385 149<267.965 453.263> 752 150<278 562 723 1024> 1275 150<776.58 975.198>
LayerCount: 2
Fore
SplineSet
1024 902 m 1
 1024 752 l 1
 712 752 l 1
 651 -83 l 2
 638 -253 525 -385 357 -385 c 0
 248 -385 128 -309 102 -185 c 1
 248 -155 l 1
 256 -195 304 -236 357 -236 c 0
 444 -236 494 -163 501 -71 c 2
 562 752 l 1
 278 752 l 1
 278 902 l 1
 573 902 l 1
 590 1137 l 2
 604 1323 719 1425 874 1425 c 0
 992 1425 1056 1381 1116 1292 c 1
 992 1208 l 1
 959 1257 940 1275 874 1275 c 0
 821 1275 749 1254 740 1125 c 2
 723 902 l 1
 1024 902 l 1
EndSplineSet
Validated: 3073
EndChar

StartChar: dagger
Encoding: 8224 8224 282
Width: 1229
VWidth: 1947
GlyphClass: 2
Flags: W
HStem: -385 21G<540 690> 874 150<71 540 690 1160> 1405 20G<540 690>
VStem: 540 150<-385 874 1024 1425>
LayerCount: 2
Fore
SplineSet
1160 1024 m 1
 1160 874 l 1
 690 874 l 1
 690 -385 l 1
 540 -385 l 1
 540 874 l 1
 71 874 l 1
 71 1024 l 1
 540 1024 l 1
 540 1425 l 1
 690 1425 l 1
 690 1024 l 1
 1160 1024 l 1
EndSplineSet
Validated: 3073
EndChar

StartChar: daggerdbl
Encoding: 8225 8225 283
Width: 1229
VWidth: 1947
GlyphClass: 2
Flags: W
HStem: -385 21G<540 690> 14 150<71 540 690 1160> 874 150<71 540 690 1160> 1405 20G<540 690>
VStem: 540 150<-385 14 164 874 1024 1425>
LayerCount: 2
Fore
SplineSet
1160 1024 m 1
 1160 874 l 1
 690 874 l 1
 690 164 l 1
 1160 164 l 1
 1160 14 l 1
 690 14 l 1
 690 -385 l 1
 540 -385 l 1
 540 14 l 1
 71 14 l 1
 71 164 l 1
 540 164 l 1
 540 874 l 1
 71 874 l 1
 71 1024 l 1
 540 1024 l 1
 540 1425 l 1
 690 1425 l 1
 690 1024 l 1
 1160 1024 l 1
EndSplineSet
Validated: 3073
EndChar

StartChar: trademark
Encoding: 8482 8482 284
Width: 1229
VWidth: 1947
GlyphClass: 2
Flags: W
HStem: 1265 135<130 255 405 510>
VStem: 255 150<466 1265> 510 150<466 855> 948 150<466 850 1349.27 1400>
CounterMasks: 1 70
LayerCount: 2
Fore
SplineSet
510 1265 m 1
 405 1265 l 1
 405 466 l 1
 255 466 l 1
 255 1265 l 1
 130 1265 l 1
 130 1400 l 1
 663 1400 l 1
 805 894 l 1
 948 1400 l 1
 1099 1400 l 1
 1098 466 l 1
 948 466 l 1
 948 850 l 1
 856 519 l 1
 754 519 l 1
 660 855 l 1
 660 466 l 1
 510 466 l 1
 510 1265 l 1
EndSplineSet
Validated: 3073
EndChar

StartChar: Ecyrillic
Encoding: 1028 1028 290
Width: 1229
VWidth: 1947
GlyphClass: 2
Flags: W
HStem: -25 150<451.816 783.768> 681 150<281 673> 1275 150<442.553 797.98>
VStem: 130 150<347.366 681 831 1087.3> 918 144<1090.82 1154.24>
LayerCount: 2
Fore
SplineSet
673 830 m 1
 673 681 l 1
 280 681 l 1
 283 267 410 125 608 125 c 2
 625 125 l 2
 780 125 855 211 898 326 c 1
 1038 274 l 1
 949 35 775 -25 625 -25 c 2
 608 -25 l 2
 321 -25 130 177 130 696 c 2
 130 763 l 2
 130 1089 208 1425 607 1425 c 2
 625 1425 l 2
 871 1425 1005 1292 1062 1095 c 1
 918 1053 l 1
 883 1176 811 1275 625 1275 c 2
 607 1275 l 2
 416 1275 295 1177 281 831 c 1
 673 830 l 1
EndSplineSet
Validated: 3073
EndChar

StartChar: Becyrillic
Encoding: 1041 1041 298
Width: 1229
VWidth: 1947
GlyphClass: 2
Flags: W
HStem: 0 150<280 814.103> 712 150<280 813.283> 1250 150<280 1024>
VStem: 130 150<150 712 862 1250> 949 150<268.477 602.715>
LayerCount: 2
Fore
SplineSet
280 712 m 1
 280 150 l 1
 588 150 l 2
 820 150 949 249 949 387 c 2
 949 485 l 2
 949 621 809 712 588 712 c 2
 280 712 l 1
588 862 m 2
 893 862 1099 711 1099 485 c 2
 1099 387 l 2
 1099 164 907 0 588 0 c 2
 130 0 l 1
 130 1400 l 1
 1024 1400 l 1
 1024 1250 l 1
 280 1250 l 1
 280 862 l 1
 588 862 l 2
EndSplineSet
Validated: 3073
EndChar

StartChar: Gecyrillic
Encoding: 1043 1043 299
Width: 1229
VWidth: 1947
GlyphClass: 2
Flags: W
HStem: -0 21G<130 280> 1250 150<280 1099>
VStem: 130 150<0 1250>
LayerCount: 2
Fore
SplineSet
130 -0 m 1
 130 1400 l 1
 1099 1400 l 1
 1099 1250 l 1
 280 1250 l 1
 280 0 l 1
 130 -0 l 1
EndSplineSet
Validated: 3073
EndChar

StartChar: Decyrillic
Encoding: 1044 1044 300
Width: 1229
VWidth: 1947
GlyphClass: 2
Flags: W
HStem: 0 151<355 880> 1250 150<716.685 880>
VStem: 880 150<151 1250>
LayerCount: 2
Fore
SplineSet
880 151 m 1
 880 1250 l 1
 823 1250 l 2
 691 1250 566 1049 542 949 c 2
 355 151 l 1
 880 151 l 1
396 983 m 2
 425 1104 583 1400 823 1400 c 2
 1030 1400 l 1
 1030 151 l 1
 1134 151 l 1
 1134 -44 l 1
 1064 -162 l 1
 984 -162 l 1
 984 0 l 1
 245 0 l 1
 245 -162 l 1
 165 -162 l 1
 95 -43 l 1
 95 151 l 1
 201 151 l 1
 396 983 l 2
EndSplineSet
Validated: 3073
EndChar

StartChar: Zhecyrillic
Encoding: 1046 1046 302
Width: 1229
VWidth: 1947
GlyphClass: 2
Flags: W
HStem: 0 21G<26 198.644 541 691 1032.32 1205> 1380 20G<32 203.48 1027.53 1199>
VStem: 541 150<0 200 585 1350>
LayerCount: 2
Fore
SplineSet
541 200 m 1
 410 509 l 1
 190 0 l 1
 136 0 80 0 26 0 c 1
 329 699 l 1
 32 1400 l 1
 195 1400 l 1
 541 584 l 1
 541 1350 l 1
 691 1350 l 1
 691 585 l 1
 1036 1400 l 1
 1199 1400 l 1
 902 697 l 1
 1205 0 l 1
 1041 0 l 1
 821 507 l 1
 691 200 l 1
 691 0 l 1
 541 0 l 1
 541 200 l 1
EndSplineSet
Validated: 3073
EndChar

StartChar: Zecyrillic
Encoding: 1047 1047 303
Width: 1229
VWidth: 1947
GlyphClass: 2
Flags: W
HStem: -25 150<396.165 811.925> 734 150<382 781.877> 1275 150<376.749 813.315>
VStem: 130 150<224.908 337> 883 150<966.728 1211.29> 949 150<254.84 615.481>
LayerCount: 2
Fore
SplineSet
572 1425 m 2xf8
 628 1425 l 2
 874 1425 1033 1296 1033 1103 c 2
 1033 1062 l 2xf8
 1033 964 980 881 899 823 c 1
 1032 749 1099 614 1099 447 c 2
 1099 427 l 2
 1099 175 943 -25 628 -25 c 2
 572 -25 l 2
 342 -25 130 120 130 337 c 1
 280 337 l 1
 280 195 443 125 572 125 c 2
 628 125 l 2
 840 125 949 239 949 427 c 2
 949 447 l 2xf4
 949 677 792 734 628 734 c 2
 382 734 l 1
 382 884 l 1
 601 884 l 2
 744 884 883 957 883 1062 c 2
 883 1103 l 2
 883 1241 738 1275 628 1275 c 2
 572 1275 l 2
 450 1275 344 1237 298 1154 c 1
 166 1226 l 1
 242 1366 405 1425 572 1425 c 2xf8
EndSplineSet
Validated: 3073
EndChar

StartChar: Iicyrillic
Encoding: 1048 1048 304
Width: 1229
VWidth: 1947
GlyphClass: 2
Flags: W
HStem: -0 21G<130 275.587 949 1099> 1380 20G<130 280 954.406 1099>
VStem: 130 150<309 1400> 949 150<0 1090>
LayerCount: 2
Fore
SplineSet
130 0 m 1
 130 1400 l 1
 280 1400 l 1
 280 309 l 1
 967 1400 l 1
 1099 1400 l 1
 1099 0 l 1
 949 -0 l 1
 949 1090 l 1
 263 0 l 1
 130 0 l 1
EndSplineSet
Validated: 3073
EndChar

StartChar: Elcyrillic
Encoding: 1051 1051 307
Width: 1229
VWidth: 1947
GlyphClass: 2
Flags: W
HStem: 0 21G<71 234.129 949 1099> 1250 150<740.52 949>
VStem: 949 150<0 1250>
LayerCount: 2
Fore
SplineSet
373 989 m 2
 420 1143 585 1339 813 1400 c 1
 1099 1400 l 1
 1099 0 l 1
 949 0 l 1
 949 1250 l 1
 833 1250 l 1
 684 1206 552 1059 517 943 c 2
 228 0 l 1
 71 0 l 1
 373 989 l 2
EndSplineSet
Validated: 3073
EndChar

StartChar: Pecyrillic
Encoding: 1055 1055 311
Width: 1229
VWidth: 1947
GlyphClass: 2
Flags: W
HStem: -0 21G<130 280 949 1099> 1250 150<280 949>
VStem: 130 150<0 1250> 949 150<0 1250>
LayerCount: 2
Fore
SplineSet
130 -0 m 1
 130 1400 l 1
 1099 1400 l 1
 1099 -0 l 1
 949 0 l 1
 949 1250 l 1
 280 1250 l 1
 280 0 l 1
 130 -0 l 1
EndSplineSet
Validated: 3073
EndChar

StartChar: Ucyrillic
Encoding: 1059 1059 315
Width: 1229
VWidth: 1947
GlyphClass: 2
Flags: W
HStem: -25 150<249.641 510.64> 1380 20G<105 288.009 967.713 1135>
LayerCount: 2
Fore
SplineSet
290 134 m 2
 298 128 321 125 339 125 c 2
 379 125 l 2
 468 125 518 146 552 240 c 2
 628 450 l 1
 105 1400 l 1
 277 1400 l 1
 697 637 l 1
 975 1400 l 1
 1135 1400 l 1
 692 188 l 2
 628 14 504 -25 379 -25 c 2
 339 -25 l 2
 312 -25 247 -20 205 10 c 2
 161 42 l 1
 249 164 l 1
 290 134 l 2
EndSplineSet
Validated: 3073
EndChar

StartChar: Efcyrillic
Encoding: 1060 1060 316
Width: 1229
VWidth: 1947
GlyphClass: 2
Flags: W
HStem: -25 21G<541 691> 134 150<413.037 541 691 830.101> 1177 150<368.269 541 691 861.933> 1405 20G<541 691>
VStem: 130 150<477.912 1074.22> 541 150<-25 134 284 1177 1327 1425> 949 150<460.397 1074.46>
LayerCount: 2
Fore
SplineSet
1099 727 m 2
 1099 453 1024 134 746 134 c 2
 691 134 l 1
 691 -25 l 1
 541 -25 l 1
 541 134 l 1
 487 134 l 2
 205 134 130 531 130 727 c 2
 130 783 l 2
 130 1054 205 1327 485 1327 c 2
 541 1327 l 1
 541 1425 l 1
 691 1425 l 1
 691 1327 l 1
 746 1327 l 2
 1024 1327 1099 1054 1099 784 c 2
 1099 727 l 2
949 784 m 2
 949 1054 891 1177 746 1177 c 2
 691 1177 l 1
 691 284 l 1
 746 284 l 2
 840 284 949 459 949 727 c 2
 949 784 l 2
280 727 m 2
 280 494 390 284 487 284 c 2
 541 284 l 1
 541 1177 l 1
 485 1177 l 2
 339 1177 280 1054 280 783 c 2
 280 727 l 2
EndSplineSet
Validated: 3073
EndChar

StartChar: Tsecyrillic
Encoding: 1062 1062 318
Width: 1229
VWidth: 1947
GlyphClass: 2
Flags: W
HStem: 0 150<280 848> 1380 20G<130 280 848 998>
VStem: 130 150<150 1400> 848 150<150 1400>
LayerCount: 2
Fore
SplineSet
280 150 m 1
 848 150 l 1
 848 1400 l 1
 998 1400 l 1
 998 150 l 1
 1129 150 l 1
 1129 16 l 1
 1007 -223 l 1
 873 -155 l 1
 952 0 l 1
 130 0 l 1
 130 1400 l 1
 280 1400 l 1
 280 150 l 1
EndSplineSet
Validated: 3073
EndChar

StartChar: Checyrillic
Encoding: 1063 1063 319
Width: 1229
VWidth: 1947
GlyphClass: 2
Flags: W
HStem: 0 21G<949 1099> 437 150<421.233 949> 1380 20G<130 280 949 1099>
VStem: 130 150<714.365 1400> 949 150<0 437 587 1400>
LayerCount: 2
Fore
SplineSet
1099 -0 m 1
 949 0 l 1
 949 437 l 1
 603 437 l 2
 294 437 130 645 130 864 c 2
 130 1400 l 1
 280 1400 l 1
 280 864 l 2
 280 721 384 587 603 587 c 2
 949 587 l 1
 949 1400 l 1
 1099 1400 l 1
 1099 -0 l 1
EndSplineSet
Validated: 3073
EndChar

StartChar: Shacyrillic
Encoding: 1064 1064 320
Width: 1229
VWidth: 1947
GlyphClass: 2
Flags: W
HStem: 0 150<280 541 691 949> 1380 20G<130 280 949 1099>
VStem: 130 150<150 1400> 541 150<150 1184> 949 150<150 1400>
LayerCount: 2
Fore
SplineSet
691 150 m 1
 949 150 l 1
 949 1400 l 1
 1099 1400 l 1
 1099 0 l 1
 130 0 l 1
 130 1400 l 1
 280 1400 l 1
 280 150 l 1
 541 150 l 1
 541 1184 l 1
 691 1184 l 1
 691 150 l 1
EndSplineSet
Validated: 3073
EndChar

StartChar: Shchacyrillic
Encoding: 1065 1065 321
Width: 1229
VWidth: 1947
GlyphClass: 2
Flags: W
HStem: 0 150<280 541 691 949> 1380 20G<130 280 949 1099>
VStem: 130 150<150 1400> 541 150<150 1184> 949 150<150 1400>
LayerCount: 2
Fore
SplineSet
1099 150 m 1
 1179 150 l 1
 1179 -12 l 1
 1053 -227 l 1
 923 -151 l 1
 1012 0 l 1
 130 0 l 1
 130 1400 l 1
 280 1400 l 1
 280 150 l 1
 541 150 l 1
 541 1184 l 1
 691 1184 l 1
 691 150 l 1
 949 150 l 1
 949 1400 l 1
 1099 1400 l 1
 1099 150 l 1
EndSplineSet
Validated: 3073
EndChar

StartChar: Hardsigncyrillic
Encoding: 1066 1066 322
Width: 1229
VWidth: 1947
GlyphClass: 2
Flags: W
HStem: 0 150<471 851.781> 672 150<471 865.923> 1250 150<254 321>
VStem: 321 150<150 672 822 1250> 949 150<242.594 592.623>
LayerCount: 2
Fore
SplineSet
471 672 m 1
 471 150 l 1
 697 150 l 2
 834 150 949 233 949 367 c 2
 949 475 l 2
 949 632 799 672 697 672 c 2
 471 672 l 1
697 822 m 2
 932 822 1099 683 1099 475 c 2
 1099 367 l 2
 1099 147 915 0 697 0 c 2
 321 0 l 1
 321 1250 l 1
 254 1250 l 1
 130 959 l 1
 80 959 l 1
 80 1400 l 1
 471 1400 l 1
 471 822 l 1
 697 822 l 2
EndSplineSet
Validated: 3073
EndChar

StartChar: Yericyrillic
Encoding: 1067 1067 323
Width: 1229
VWidth: 1947
GlyphClass: 2
Flags: W
HStem: 0 150<280 523.308> 722 150<280 537.037> 1380 20G<130 280 949 1099>
VStem: 130 150<150 722 872 1400> 647 150<263.281 622.411> 949 150<0 1400>
LayerCount: 2
Fore
SplineSet
280 722 m 1
 280 150 l 1
 324 150 l 2
 554 150 647 265 647 407 c 2
 647 495 l 2
 647 677 477 722 324 722 c 2
 280 722 l 1
1099 -0 m 1
 949 0 l 1
 949 1400 l 1
 1099 1400 l 1
 1099 -0 l 1
324 872 m 2
 628 872 797 720 797 495 c 2
 797 407 l 2
 797 191 648 0 324 0 c 2
 130 0 l 1
 130 1400 l 1
 280 1400 l 1
 280 872 l 1
 324 872 l 2
EndSplineSet
Validated: 3073
EndChar

StartChar: Softsigncyrillic
Encoding: 1068 1068 324
Width: 1229
VWidth: 1947
GlyphClass: 2
Flags: W
HStem: 0 150<280 845.287> 672 150<280 840.476> 1380 20G<130 280>
VStem: 130 150<150 672 822 1400> 949 150<243.053 572.411>
LayerCount: 2
Fore
SplineSet
280 672 m 1
 280 150 l 1
 628 150 l 2
 864 150 949 241 949 377 c 2
 949 445 l 2
 949 627 782 672 628 672 c 2
 280 672 l 1
628 822 m 2
 933 822 1099 670 1099 445 c 2
 1099 377 l 2
 1099 158 951 0 628 0 c 2
 130 0 l 1
 130 1400 l 1
 280 1400 l 1
 280 822 l 1
 628 822 l 2
EndSplineSet
Validated: 3073
EndChar

StartChar: Ereversedcyrillic
Encoding: 1069 1069 325
Width: 1229
VWidth: 1947
GlyphClass: 2
Flags: W
HStem: -25 150<448.632 775.422> 681 150<559 949> 1275 150<433.827 790.252>
VStem: 168 144<1087.82 1146.2> 949 150<353.988 680 830 1087.41>
LayerCount: 2
Fore
SplineSet
607 1425 m 2
 625 1425 l 2
 1027 1425 1099 1088 1099 765 c 2
 1099 696 l 2
 1099 369 1026 -24 625 -25 c 2
 608 -25 l 2
 447 -25 272 43 186 290 c 1
 327 340 l 1
 385 173 488 125 608 125 c 2
 625 125 l 2
 822 126 946 267 949 680 c 1
 559 681 l 1
 559 831 l 1
 949 830 l 1
 936 1178 818 1275 625 1275 c 2
 607 1275 l 2
 421 1275 348 1175 312 1050 c 1
 168 1092 l 1
 226 1291 361 1425 607 1425 c 2
EndSplineSet
Validated: 3073
EndChar

StartChar: IUcyrillic
Encoding: 1070 1070 326
Width: 1229
VWidth: 1947
GlyphClass: 2
Flags: W
HStem: -25 150<664.996 836.749> 0 21G<130 280> 625 150<280 404> 1275 150<655.893 843.428> 1380 20G<130 280>
VStem: 130 150<0 625 775 1400> 404 148<325.656 625 775 1109.44> 949 150<317.637 1111.05>
LayerCount: 2
Fore
SplineSet
1099 761 m 2x37
 1099 711 l 2
 1099 89 897 -25 763 -25 c 2
 737 -25 l 2xb7
 583 -25 424 118 404 625 c 1
 280 625 l 1
 280 -0 l 1
 130 0 l 1
 130 1400 l 1
 280 1400 l 1x6f
 280 775 l 1
 404 775 l 1
 408 1327 608 1425 743 1425 c 2
 757 1425 l 2
 894 1425 1099 1319 1099 761 c 2x37
552 706 m 2
 552 463 601 125 737 125 c 2
 763 125 l 2
 882 125 949 389 949 711 c 2
 949 761 l 2
 949 958 914 1275 757 1275 c 2
 743 1275 l 2
 584 1275 552 953 552 757 c 2
 552 706 l 2
EndSplineSet
Validated: 3073
EndChar

StartChar: IAcyrillic
Encoding: 1071 1071 327
Width: 1229
VWidth: 1947
GlyphClass: 2
Flags: W
HStem: 0 21G<65 261.885 949 1099> 592 150<659 949> 1250 150<360.499 949>
VStem: 130 150<829.214 1172.15> 949 150<0 592 742 1250>
LayerCount: 2
Fore
SplineSet
949 592 m 1
 659 592 l 1
 248 0 l 1
 65 0 l 1
 482 600 l 1
 192 640 130 825 130 953 c 2
 130 1043 l 2
 130 1329 348 1400 603 1400 c 2
 1099 1400 l 1
 1099 -0 l 1
 949 0 l 1
 949 592 l 1
949 742 m 1
 949 1250 l 1
 603 1250 l 2
 328 1250 280 1165 280 1043 c 2
 280 953 l 2
 280 819 379 742 603 742 c 2
 949 742 l 1
EndSplineSet
Validated: 3073
EndChar

StartChar: becyrillic
Encoding: 1073 1073 329
Width: 1229
VWidth: 2334
GlyphClass: 2
Flags: W
HStem: -25 150<439.658 805.917> 899 150<409.01 812.326> 1250 150<422.781 966.183>
VStem: 130 150<283.539 770.929 948 1111.89> 949 150<268.851 771.372>
LayerCount: 2
Fore
SplineSet
603 1049 m 2
 628 1049 l 2
 944 1049 1099 852 1099 597 c 2
 1099 447 l 2
 1099 174 928 -25 628 -25 c 2
 603 -25 l 2
 340 -25 130 180 130 447 c 2
 130 953 l 2
 130 1240 340 1400 614 1400 c 3
 786 1400 890 1412 996 1455 c 1
 1052 1317 l 1
 922 1264 792 1250 614 1250 c 3
 470 1250 280 1191 280 953 c 2
 280 948 l 1
 358 1012 465 1049 603 1049 c 2
280 597 m 2
 280 447 l 2
 280 262 423 125 603 125 c 2
 628 125 l 2
 856 125 949 268 949 447 c 2
 949 597 l 2
 949 790 840 899 628 899 c 2
 603 899 l 2
 391 899 280 789 280 597 c 2
EndSplineSet
Validated: 3073
EndChar

StartChar: vecyrillic
Encoding: 1074 1074 330
Width: 1229
VWidth: 2334
GlyphClass: 2
Flags: W
HStem: 0 150<280 853.808> 474 150<280 778.78> 874 150<280 821.602>
VStem: 130 150<150 474 624 874> 872 150<697.705 827.085> 949 150<232.869 409.775>
LayerCount: 2
Fore
SplineSet
1022 772 m 3xf8
 1022 687 1016 645 919 576 c 1
 1062 515 1099 409 1099 330 c 2
 1099 321 l 2xf4
 1099 143 936 0 630 0 c 2
 130 0 l 1
 130 1024 l 1
 551 1024 l 2
 695 1024 1022 972 1022 772 c 3xf8
280 150 m 1
 630 150 l 2
 826 150 949 218 949 321 c 2
 949 330 l 2
 949 445 770 474 628 474 c 2
 280 474 l 1
 280 150 l 1
551 624 m 2
 765 624 872 706 872 770 c 3xf8
 872 812 826 874 551 874 c 2
 280 874 l 1
 280 624 l 1
 551 624 l 2
EndSplineSet
Validated: 3073
EndChar

StartChar: gecyrillic
Encoding: 1075 1075 331
Width: 1229
VWidth: 1947
GlyphClass: 2
Flags: W
HStem: -25 150<354.072 836.256> 899 150<385.55 875.29>
VStem: 130 150<192.178 382.622> 906 150<683.045 856.175> 949 150<231.689 337>
LayerCount: 2
Fore
SplineSet
906 779 m 2xf0
 906 851 870 899 645 899 c 2
 558 899 l 2
 402 899 330 820 299 770 c 1
 171 850 l 1
 246 970 380 1049 558 1049 c 2
 645 1049 l 2
 777 1049 1056 1041 1056 779 c 2
 1056 767 l 2xf0
 1056 743 1050 571 874 528 c 2
 366 403 l 2
 294 385 280 337 280 317 c 2
 280 271 l 2
 280 183 394 125 558 125 c 2
 678 125 l 2
 843 125 949 250 949 337 c 1
 1099 337 l 1xe8
 1099 164 923 -25 678 -25 c 2
 558 -25 l 2
 301 -25 130 93 130 271 c 2
 130 317 l 2
 130 409 186 513 330 548 c 2
 838 673 l 2
 899 688 906 745 906 767 c 2
 906 779 l 2xf0
EndSplineSet
Validated: 3073
EndChar

StartChar: decyrillic
Encoding: 1076 1076 332
Width: 1229
VWidth: 1947
GlyphClass: 2
Flags: W
HStem: 0 151<414 840> 874 150<693.781 840>
VStem: 840 150<151 874>
LayerCount: 2
Fore
SplineSet
840 151 m 1
 840 874 l 1
 823 874 l 2
 666 874 537 684 515 588 c 2
 414 151 l 1
 840 151 l 1
369 622 m 2
 403 771 580 1024 823 1024 c 2
 990 1024 l 1
 990 151 l 1
 1099 151 l 1
 1099 -32 l 1
 1036 -162 l 1
 949 -162 l 1
 949 0 l 1
 280 0 l 1
 280 -162 l 1
 192 -162 l 1
 130 -33 l 1
 130 151 l 1
 260 151 l 1
 369 622 l 2
EndSplineSet
Validated: 3073
EndChar

StartChar: zhecyrillic
Encoding: 1078 1078 334
Width: 1229
VWidth: 1947
GlyphClass: 2
Flags: W
HStem: 0 21G<118 295.969 541 691 931.876 1110> 1004 20G<541 691>
VStem: 541 150<0 132 488 1024>
LayerCount: 2
Fore
SplineSet
541 132 m 1
 449 327 l 1
 286 0 l 1
 118 0 l 1
 367 500 l 1
 133 993 l 1
 269 1057 l 1
 541 482 l 1
 541 1024 l 1
 691 1024 l 1
 691 488 l 1
 956 1057 l 1
 1092 993 l 1
 860 495 l 1
 1110 0 l 1
 942 0 l 1
 779 322 l 1
 691 132 l 1
 691 0 l 1
 541 0 l 1
 541 132 l 1
EndSplineSet
Validated: 3073
EndChar

StartChar: zecyrillic
Encoding: 1079 1079 335
Width: 1229
VWidth: 1947
GlyphClass: 2
Flags: W
HStem: -25 150<374.421 864.568> 485 150<471 832.799> 900 150<377.749 848.536>
VStem: 131 148<211.352 266.131> 883 150<684.573 862.183> 949 150<199.859 431.33>
LayerCount: 2
Fore
SplineSet
883 788 m 2xf8
 883 833 847 900 678 900 c 2
 552 900 l 2
 424 900 343 857 299 777 c 1
 167 849 l 1
 216 938 321 1050 552 1050 c 2
 678 1050 l 2
 972 1050 1033 893 1033 788 c 2
 1033 777 l 2xf8
 1033 704 1003 635 949 583 c 1
 1069 520 1099 414 1099 334 c 2
 1099 314 l 2
 1099 169 1003 -25 688 -25 c 2
 563 -25 l 2
 370 -25 159 67 131 264 c 1
 279 286 l 1
 292 192 413 125 563 125 c 2
 688 125 l 2
 906 125 949 238 949 314 c 2
 949 334 l 2xf4
 949 386 935 485 688 485 c 2
 471 485 l 1
 471 635 l 1
 671 635 l 2
 802 635 883 692 883 777 c 2
 883 788 l 2xf8
EndSplineSet
Validated: 3073
EndChar

StartChar: iicyrillic
Encoding: 1080 1080 336
Width: 1229
VWidth: 1947
GlyphClass: 2
Flags: W
HStem: -0 21G<130 279.729 949 1099> 1004 20G<130 280 950.291 1099>
VStem: 130 150<247 1024> 949 150<0 775>
LayerCount: 2
Fore
SplineSet
130 0 m 1
 130 1024 l 1
 280 1024 l 1
 280 247 l 1
 968 1024 l 1
 1099 1024 l 1
 1099 0 l 1
 949 -0 l 1
 949 775 l 1
 262 0 l 1
 130 0 l 1
EndSplineSet
Validated: 3073
EndChar

StartChar: kacyrillic
Encoding: 1082 1082 338
Width: 1229
VWidth: 1947
GlyphClass: 2
Flags: W
HStem: -0 21G<130 280 892.017 1137> 1004 20G<130 280 950.833 990.769>
VStem: 130 150<0 96 313 1024>
LayerCount: 2
Fore
SplineSet
526 353 m 1
 280 96 l 1
 280 -0 l 1
 130 -0 l 1
 130 1024 l 1
 280 1024 l 1
 280 313 l 1
 970 1033 l 1
 1078 929 l 1
 630 461 l 1
 1137 -0 l 1
 914 -0 l 1
 526 353 l 1
EndSplineSet
Validated: 3073
EndChar

StartChar: elcyrillic
Encoding: 1083 1083 339
Width: 1229
VWidth: 1947
GlyphClass: 2
Flags: W
HStem: 0 21G<76 244.634 949 1099> 873 151<689.537 949>
VStem: 949 150<0 873>
LayerCount: 2
Fore
SplineSet
316 629 m 2
 380 796 602 1024 823 1024 c 2
 1099 1024 l 1
 1099 -0 l 1
 949 0 l 1
 949 873 l 1
 823 873 l 2
 677 873 502 694 458 579 c 2
 237 0 l 1
 76 0 l 1
 316 629 l 2
EndSplineSet
Validated: 3073
EndChar

StartChar: emcyrillic
Encoding: 1084 1084 340
Width: 1229
VWidth: 1947
GlyphClass: 2
Flags: W
HStem: 0 21G<103 256.363 971.511 1125> 1004 20G<220.656 386.013 836.224 1000.48>
LayerCount: 2
Fore
SplineSet
254 0 m 1
 103 0 l 1
 223 1024 l 1
 379 1024 l 1
 615 351 l 1
 843 1024 l 1
 998 1024 l 1
 1125 0 l 1
 974 0 l 1
 888 691 l 1
 680 76 l 1
 552 76 l 1
 336 694 l 1
 254 0 l 1
EndSplineSet
Validated: 3073
EndChar

StartChar: encyrillic
Encoding: 1085 1085 341
Width: 1229
VWidth: 1947
GlyphClass: 2
Flags: W
HStem: 0 21G<130 280 949 1099> 395 150<280 949> 1004 20G<130 280 949 1099>
VStem: 130 150<0 395 545 1024> 949 150<0 395 545 1024>
LayerCount: 2
Fore
SplineSet
280 -0 m 1
 130 0 l 1
 130 1024 l 1
 280 1024 l 1
 280 545 l 1
 949 545 l 1
 949 1024 l 1
 1099 1024 l 1
 1099 -0 l 1
 949 0 l 1
 949 395 l 1
 280 395 l 1
 280 -0 l 1
EndSplineSet
Validated: 3073
EndChar

StartChar: tecyrillic
Encoding: 1090 1090 346
Width: 1229
VWidth: 1947
GlyphClass: 2
Flags: W
HStem: -0 21G<541 691> 874 150<130 541 691 1099>
VStem: 541 150<0 874>
LayerCount: 2
Fore
SplineSet
1099 1024 m 1
 1099 874 l 1
 691 874 l 1
 691 0 l 1
 541 -0 l 1
 541 874 l 1
 130 874 l 1
 130 1024 l 1
 1099 1024 l 1
EndSplineSet
Validated: 3073
EndChar

StartChar: efcyrillic
Encoding: 1092 1092 348
Width: 1229
VWidth: 1947
GlyphClass: 2
Flags: W
HStem: -385 21G<541 691> -25 150<322.44 541 691 912.799> 818 150<313.981 541 691 914.736> 1029 20G<541 691>
VStem: 53 150<242.451 700.135> 541 150<-385 -25 125 818 968 1049> 1028 150<241.812 700.135>
LayerCount: 2
Fore
SplineSet
541 125 m 1
 541 818 l 1
 509 818 l 2
 272 818 203 706 203 509 c 2
 203 448 l 2
 203 241 275 125 511 125 c 2
 541 125 l 1
691 125 m 1
 711 125 l 2
 956 125 1028 240 1028 447 c 2
 1028 509 l 2
 1028 707 958 818 715 818 c 2
 691 818 l 1
 691 125 l 1
691 -385 m 1
 541 -385 l 1
 541 -25 l 1
 511 -25 l 2
 281 -25 53 70 53 448 c 2
 53 509 l 2
 53 876 279 968 509 968 c 2
 541 968 l 1
 541 1049 l 1
 691 1049 l 1
 691 968 l 1
 715 968 l 2
 950 968 1178 876 1178 509 c 2
 1178 447 l 2
 1178 69 949 -25 711 -25 c 2
 691 -25 l 1
 691 -385 l 1
EndSplineSet
Validated: 3073
EndChar

StartChar: tsecyrillic
Encoding: 1094 1094 350
Width: 1229
VWidth: 2334
GlyphClass: 2
Flags: W
HStem: -25 150<381.758 730.564> 1004 20G<130 280 949 1099>
VStem: 130 150<226.016 1024> 949 150<360.501 1024> 1012 150<-98.4605 146.66>
LayerCount: 2
Fore
SplineSet
879 -159 m 1xe8
 950 -129 1012 -73 1012 11 c 27xe8
 1012 76 980 134 953 167 c 1
 863 60 738 -25 599 -25 c 2
 572 -25 l 2
 255 -25 130 168 130 377 c 2
 130 1024 l 1
 280 1024 l 1
 280 377 l 2
 280 228 362 125 572 125 c 2
 599 125 l 2
 784 125 949 391 949 487 c 2
 949 1024 l 1
 1099 1024 l 1
 1099 224 l 1xf0
 1147 154 1162 72 1162 12 c 3
 1162 -145 1041 -261 937 -297 c 1
 879 -159 l 1xe8
EndSplineSet
Validated: 3073
EndChar

StartChar: checyrillic
Encoding: 1095 1095 351
Width: 1229
VWidth: 1947
GlyphClass: 2
Flags: W
HStem: 0 21G<949 1099> 322 150<390.83 771.812> 1004 20G<130 280 949 1099>
VStem: 130 150<577.234 1024> 949 150<0 478 685.742 1024>
LayerCount: 2
Fore
SplineSet
280 729 m 2
 280 597 345 472 572 472 c 2
 649 472 l 2
 829 472 949 737 949 839 c 2
 949 1024 l 1
 1099 1024 l 1
 1099 -0 l 1
 949 0 l 1
 949 478 l 1
 874 389 772 322 649 322 c 2
 572 322 l 2
 255 322 130 520 130 729 c 2
 130 1024 l 1
 280 1024 l 1
 280 729 l 2
EndSplineSet
Validated: 3073
EndChar

StartChar: shacyrillic
Encoding: 1096 1096 352
Width: 1229
VWidth: 2334
GlyphClass: 2
Flags: W
HStem: -25 150<300.444 457.228 706.634 873.224> 0 21G<949 1099> 1004 20G<130 280 541 691 949 1099>
VStem: 130 150<142.337 1024> 541 150<222.401 1024> 949 150<0 36 214.968 1024>
LayerCount: 2
Fore
SplineSet
584 88 m 1xbc
 508 -18 414 -25 388 -25 c 2
 373 -25 l 2
 238 -25 130 87 130 245 c 2
 130 1024 l 1
 280 1024 l 1
 280 245 l 2
 280 175 317 125 373 125 c 2
 388 125 l 2
 451 125 541 266 541 367 c 2
 541 1024 l 1
 691 1024 l 1
 691 245 l 2
 691 142 747 125 784 125 c 2
 799 125 l 2xbc
 874 125 949 272 949 367 c 2
 949 1024 l 1
 1099 1024 l 1
 1099 -0 l 1
 949 0 l 1x7c
 949 36 l 1
 894 -22 824 -25 799 -25 c 2
 784 -25 l 2
 689 -25 621 29 584 88 c 1xbc
EndSplineSet
Validated: 3073
EndChar

StartChar: shchacyrillic
Encoding: 1097 1097 353
Width: 1229
VWidth: 2334
GlyphClass: 2
Flags: W
HStem: -25 150<300.444 457.788 710.34 871.101> 1004 20G<130 280 541 691 949 1099>
VStem: 130 150<142.337 1024> 541 150<223.198 1024> 949 150<214.968 1024> 1012 150<-96.9714 87.2964>
LayerCount: 2
Fore
SplineSet
584 88 m 1xf4
 504 -19 406 -25 388 -25 c 2
 373 -25 l 2
 238 -25 130 87 130 245 c 2
 130 1024 l 1
 280 1024 l 1
 280 245 l 2
 280 175 317 125 373 125 c 2
 388 125 l 2
 451 125 541 266 541 367 c 2
 541 1024 l 1
 691 1024 l 1
 691 245 l 2
 691 146 747 125 784 125 c 2
 799 125 l 2
 874 125 949 272 949 367 c 2
 949 1024 l 1
 1099 1024 l 1
 1099 224 l 1xf8
 1147 154 1162 72 1162 12 c 3
 1162 -145 1054 -247 937 -297 c 1
 879 -159 l 1
 950 -129 1012 -71 1012 14 c 27
 1012 44 1009 59 999 89 c 1
 920 -18 822 -25 799 -25 c 2
 784 -25 l 2
 689 -25 621 29 584 88 c 1xf4
EndSplineSet
Validated: 3073
EndChar

StartChar: hardsigncyrillic
Encoding: 1098 1098 354
Width: 1229
VWidth: 1947
GlyphClass: 2
Flags: W
HStem: 0 149<481 860.831> 491 150<481 882.578> 873 150<257 331>
VStem: 331 150<149 491 641 873> 949 150<226.656 431.506>
LayerCount: 2
Fore
SplineSet
481 491 m 1
 481 149 l 1
 668 149 l 2
 833 149 949 227 949 309 c 2
 949 357 l 2
 949 437 832 491 668 491 c 2
 481 491 l 1
668 641 m 2
 1017 641 1099 471 1099 357 c 2
 1099 309 l 2
 1099 123 900 0 668 0 c 2
 331 0 l 1
 331 873 l 1
 257 873 l 1
 147 572 l 1
 87 572 l 1
 87 1023 l 1
 481 1023 l 1
 481 641 l 1
 668 641 l 2
EndSplineSet
Validated: 3073
EndChar

StartChar: yericyrillic
Encoding: 1099 1099 355
Width: 1229
VWidth: 1947
GlyphClass: 2
Flags: W
HStem: 0 150<280 599.558> 486 150<280 621.655> 1004 20G<130 280 949 1099>
VStem: 130 150<150 486 636 1024> 694 150<227.2 423.694> 949 150<0 1024>
LayerCount: 2
Fore
SplineSet
280 636 m 1
 403 636 l 2
 670 636 844 520 844 347 c 2
 844 309 l 2
 844 124 637 0 403 0 c 2
 130 0 l 1
 130 1024 l 1
 280 1024 l 1
 280 636 l 1
949 1024 m 1
 1099 1024 l 1
 1099 0 l 1
 949 -0 l 1
 949 1024 l 1
280 150 m 1
 403 150 l 2
 572 150 694 230 694 309 c 2
 694 347 l 2
 694 430 573 486 403 486 c 2
 280 486 l 1
 280 150 l 1
EndSplineSet
Validated: 3073
EndChar

StartChar: softsigncyrillic
Encoding: 1100 1100 356
Width: 1229
VWidth: 1947
GlyphClass: 2
Flags: W
HStem: 0 150<280 843.476> 486 150<280 859.092> 1028 20G<130 280>
VStem: 130 150<150 486 636 1048> 949 150<234.331 414.894>
LayerCount: 2
Fore
SplineSet
1099 309 m 2
 1099 146 914 0 628 0 c 2
 130 0 l 1
 130 1048 l 1
 280 1048 l 1
 280 636 l 1
 628 636 l 2
 747 636 1099 610 1099 347 c 2
 1099 309 l 2
949 347 m 2
 949 445 760 486 628 486 c 2
 280 486 l 1
 280 150 l 1
 628 150 l 2
 835 150 949 245 949 309 c 2
 949 347 l 2
EndSplineSet
Validated: 3073
EndChar

StartChar: ereversedcyrillic
Encoding: 1101 1101 357
Width: 1229
VWidth: 1947
GlyphClass: 2
Flags: W
HStem: -25 150<366.469 785.251> 437 150<405 928> 898 150<365.95 808.759>
VStem: 928 150<280.576 437 587 769.756>
LayerCount: 2
Fore
SplineSet
580 1048 m 2
 657 1048 l 2
 907 1048 1078 864 1078 597 c 2
 1078 447 l 2
 1078 176 872 -25 657 -25 c 2
 580 -25 l 2
 360 -25 216 51 151 185 c 1
 285 251 l 1
 328 164 432 125 580 125 c 2
 657 125 l 2
 786 125 923 253 928 437 c 1
 405 437 l 1
 405 587 l 1
 928 587 l 1
 928 597 l 2
 928 777 827 898 657 898 c 2
 580 898 l 2
 398 898 316 841 284 770 c 1
 146 830 l 1
 207 967 351 1048 580 1048 c 2
EndSplineSet
Validated: 3073
EndChar

StartChar: iucyrillic
Encoding: 1102 1102 358
Width: 1229
VWidth: 1947
GlyphClass: 2
Flags: W
HStem: -25 150<647.334 854.67> 0 21G<130 280> 437 150<280 406.748> 899 150<641.398 857.916> 1004 20G<130 280>
VStem: 130 150<0 437 587 1024> 404 148<248.226 437 587 788.877> 949 150<245.22 784.262>
LayerCount: 2
Fore
SplineSet
757 899 m 2xb7
 743 899 l 2
 584 899 552 674 552 530 c 2
 552 494 l 2
 552 310 613 125 737 125 c 2
 763 125 l 2
 882 125 949 287 949 498 c 2
 949 533 l 2
 949 679 914 899 757 899 c 2xb7
280 0 m 1x67
 130 0 l 1
 130 1024 l 1
 280 1024 l 1x6f
 280 587 l 1
 404 587 l 1
 415 802 494 1049 743 1049 c 2
 757 1049 l 2
 1025 1049 1099 758 1099 533 c 2
 1099 498 l 2
 1099 297 1032 -25 763 -25 c 2
 737 -25 l 2xb7
 531 -25 419 185 404 437 c 1
 280 437 l 1
 280 0 l 1x67
EndSplineSet
Validated: 3073
EndChar

StartChar: iacyrillic
Encoding: 1103 1103 359
Width: 1229
VWidth: 1947
GlyphClass: 2
Flags: W
HStem: -0 21G<949 1099> 395 150<662 949> 873 151<347.266 949>
VStem: 130 150<603.219 811.43> 949 150<0 395 545 873>
LayerCount: 2
Fore
SplineSet
130 744 m 2
 130 856 218 1024 583 1024 c 2
 1099 1024 l 1
 1099 0 l 1
 949 -0 l 1
 949 395 l 1
 662 395 l 1
 229 -35 l 1
 123 71 l 1
 457 403 l 1
 187 438 130 588 130 693 c 2
 130 744 l 2
583 873 m 2
 396 873 280 815 280 744 c 2
 280 693 l 2
 280 575 433 545 583 545 c 2
 949 545 l 1
 949 873 l 1
 583 873 l 2
EndSplineSet
Validated: 3073
EndChar

StartChar: ecyrillic
Encoding: 1108 1108 362
Width: 1229
VWidth: 1947
GlyphClass: 2
Flags: W
HStem: -25 150<433.849 869.178> 437 150<305 829> 898 150<429.205 867.669>
VStem: 155 150<266.516 437 587 773.358>
LayerCount: 2
Fore
SplineSet
652 898 m 2
 586 898 l 2
 366 898 307 734 305 587 c 1
 829 587 l 1
 829 437 l 1
 305 437 l 1
 310 300 372 125 586 125 c 2
 652 125 l 2
 795 125 914 162 956 250 c 1
 1092 186 l 1
 1026 48 869 -25 652 -25 c 2
 586 -25 l 2
 312 -25 155 184 155 457 c 2
 155 577 l 2
 155 843 300 1048 586 1048 c 2
 652 1048 l 2
 878 1048 1035 968 1096 830 c 1
 958 770 l 1
 903 892 677 898 652 898 c 2
EndSplineSet
Validated: 3073
EndChar

StartChar: numero
Encoding: 8470 8470 372
Width: 1229
VWidth: 1947
Flags: W
HStem: 0 21G<130 280 530.182 691> 471 151<897.79 971.365> 1182 150<893.604 975.588> 1380 20G<130 290.818 541 691>
VStem: 130 150<0 880 1351.66 1400> 541 150<0 48.3359 520 1400> 718 150<636.555 1170.92> 1000 150<635.439 1171.9>
CounterMasks: 1 07
LayerCount: 2
Fore
SplineSet
935 622 m 3
 989 622 1000 800 1000 919 c 27
 1000 1025 993 1182 935 1182 c 3
 879 1182 868 1025 868 919 c 27
 868 800 882 622 935 622 c 3
1150 919 m 27
 1150 725 1130 471 934 471 c 3
 740 471 718 725 718 919 c 27
 718 1101 752 1332 934 1332 c 27
 1116 1332 1150 1101 1150 919 c 27
130 -0 m 1
 130 1400 l 1
 285 1400 l 1
 541 520 l 1
 541 1400 l 1
 691 1400 l 1
 691 0 l 1
 536 0 l 1
 280 880 l 1
 280 0 l 1
 130 -0 l 1
EndSplineSet
Validated: 3073
EndChar

StartChar: caroncomb
Encoding: 780 780 377
Width: 1229
VWidth: 1947
Flags: W
HStem: 1422 244
VStem: 326 580
LayerCount: 2
Fore
SplineSet
616 1546 m 1
 834 1666 l 1
 906 1534 l 1
 702 1422 l 1
 530 1422 l 1
 326 1534 l 1
 398 1666 l 1
 616 1546 l 1
EndSplineSet
Validated: 3073
EndChar

StartChar: gravecomb
Encoding: 768 768 379
Width: 1229
VWidth: 2334
Flags: W
HStem: 1319 407
VStem: 446 398
LayerCount: 2
Fore
SplineSet
844 1454 m 1
 704 1319 l 1
 446 1591 l 1
 586 1726 l 1
 844 1454 l 1
EndSplineSet
Validated: 3073
EndChar

StartChar: acutecomb
Encoding: 769 769 380
Width: 1229
VWidth: 2334
Flags: W
HStem: 1319 407
VStem: 386 398
LayerCount: 2
Fore
SplineSet
526 1319 m 1
 386 1454 l 1
 644 1726 l 1
 784 1591 l 1
 526 1319 l 1
EndSplineSet
Validated: 3073
EndChar

StartChar: tildecomb
Encoding: 771 771 381
Width: 1229
VWidth: 1947
Flags: W
HStem: 1447 150<644.194 811.389> 1537 150<420.331 586.865>
LayerCount: 2
Fore
SplineSet
290 1569 m 2x40
 360 1676 440 1687 478 1687 c 2
 494 1687 l 2x40
 515 1687 599 1682 655 1632 c 2
 674 1615 l 2
 678 1611 711 1597 735 1597 c 2
 752 1597 l 2
 766 1597 794 1610 815 1646 c 2
 829 1670 l 1
 959 1594 l 1
 945 1570 l 2
 875 1451 752 1447 752 1447 c 2
 735 1447 l 2x80
 670 1447 604 1477 574 1503 c 2
 556 1519 l 2
 547 1527 525 1537 494 1537 c 2
 478 1537 l 2
 474 1537 447 1535 416 1487 c 2
 399 1461 l 1
 273 1543 l 1
 290 1569 l 2x40
EndSplineSet
Validated: 3073
EndChar

StartChar: hookabovecomb
Encoding: 777 777 382
Width: 1229
VWidth: 1947
Flags: W
HStem: 1255 177<547 696.914> 1561 120<454.715 739.017>
VStem: 547 150<1255 1322.28> 745 150<1443.77 1545.75>
LayerCount: 2
Fore
SplineSet
895 1495 m 3
 895 1350 753 1321 697 1315 c 1
 697 1255 l 1
 547 1255 l 1
 547 1432 l 1
 622 1432 l 2
 715 1432 745 1456 745 1495 c 3
 745 1542 674 1561 634 1561 c 3
 570 1561 525 1550 474 1516 c 1
 392 1612 l 1
 465 1660 536 1681 634 1681 c 27
 759 1681 895 1620 895 1495 c 3
EndSplineSet
Validated: 3073
EndChar

StartChar: dotbelowcomb
Encoding: 803 803 383
Width: 1229
VWidth: 2334
Flags: W
HStem: -390 234<523.453 707.78>
VStem: 499 234<-363.406 -182.594>
LayerCount: 2
Fore
SplineSet
499 -273 m 0
 499 -208 550 -156 615 -156 c 0
 680 -156 733 -208 733 -273 c 0
 733 -338 680 -390 615 -390 c 0
 550 -390 499 -338 499 -273 c 0
EndSplineSet
Validated: 3073
EndChar

StartChar: commaturnedabovecmb
Encoding: 786 786 396
Width: 1229
VWidth: 1947
Flags: W
HStem: -486 130<521.786 755.194> -187 205<577 722.208>
VStem: 577 150<-73.9863 18> 766 150<-341.816 -201.526>
LayerCount: 2
Fore
SplineSet
766 -270 m 27
 766 -212 724 -187 643 -187 c 2
 563 -187 l 1
 577 3 l 1
 577 18 l 1
 727 18 l 1
 727 -3 l 1
 723 -63 l 1
 857 -86 916 -160 916 -270 c 3
 916 -424 783 -486 655 -486 c 3
 555 -486 472 -449 405 -391 c 1
 503 -297 l 1
 542 -331 591 -356 655 -356 c 3
 722 -356 766 -325 766 -270 c 27
EndSplineSet
Validated: 3073
EndChar

StartChar: Hbar
Encoding: 294 294 400
Width: 1229
VWidth: 1947
Flags: W
HStem: 0 21G<217 367 862 1012> 657 150<367 862> 1095 150<80 217 367 862 1012 1149> 1380 20G<217 367 862 1012>
VStem: 217 150<0 657 807 1095 1245 1400> 862 150<0 657 807 1095 1245 1400>
LayerCount: 2
Fore
SplineSet
367 807 m 1
 862 807 l 1
 862 1095 l 1
 367 1095 l 1
 367 807 l 1
367 -0 m 1
 217 0 l 1
 217 1095 l 1
 80 1095 l 1
 80 1245 l 1
 217 1245 l 1
 217 1400 l 1
 367 1400 l 1
 367 1245 l 1
 862 1245 l 1
 862 1400 l 1
 1012 1400 l 1
 1012 1245 l 1
 1149 1245 l 1
 1149 1095 l 1
 1012 1095 l 1
 1012 -0 l 1
 862 0 l 1
 862 657 l 1
 367 657 l 1
 367 -0 l 1
EndSplineSet
Validated: 3073
EndChar

StartChar: hbar
Encoding: 295 295 401
Width: 1229
VWidth: 1947
Flags: W
HStem: -0 21G<210 360 949 1099> 899 150<516.778 850.288> 1205 150<80 210 360 663> 1380 20G<210 360>
VStem: 210 150<0 710.475 915 1205 1355 1400> 949 150<0 804.501>
LayerCount: 2
Fore
SplineSet
949 679 m 2
 949 812 844 899 668 899 c 2
 643 899 l 2
 464 899 360 660 360 557 c 2
 360 -0 l 1
 210 -0 l 1
 210 1205 l 1
 80 1205 l 1
 80 1355 l 1
 210 1355 l 1
 210 1400 l 1
 360 1400 l 1
 360 1355 l 1
 663 1355 l 1
 663 1205 l 1
 360 1205 l 1
 360 915 l 1
 431 993 526 1049 643 1049 c 2
 668 1049 l 2
 923 1049 1099 901 1099 679 c 2
 1099 0 l 1
 949 -0 l 1
 949 679 l 2
EndSplineSet
Validated: 3073
EndChar

StartChar: IJ
Encoding: 306 306 410
Width: 1229
VWidth: 1947
Flags: W
HStem: 0 150<80 299 449 744> 262 150<572 748.065> 1250 150<80 299 449 781 931 1149>
VStem: 299 150<150 1250> 781 150<434.667 1250>
LayerCount: 2
Fore
SplineSet
684 412 m 2
 773 412 781 549 781 597 c 2
 781 1250 l 1
 449 1250 l 1
 449 150 l 1
 744 150 l 1
 744 0 l 1
 80 0 l 1
 80 150 l 1
 299 150 l 1
 299 1250 l 1
 80 1250 l 1
 80 1400 l 1
 1149 1400 l 1
 1149 1250 l 1
 931 1250 l 1
 931 597 l 2
 931 406 847 262 684 262 c 2
 572 262 l 1
 572 412 l 1
 684 412 l 2
EndSplineSet
Validated: 3073
EndChar

StartChar: Tbar
Encoding: 358 358 430
Width: 1229
VWidth: 1947
Flags: W
HStem: -0 21G<541 691> 485 150<130 541 691 1099> 1250 150<130 541 691 1099>
VStem: 541 150<0 485 635 1250>
LayerCount: 2
Fore
SplineSet
1099 1400 m 1
 1099 1250 l 1
 691 1250 l 1
 691 635 l 1
 1099 635 l 1
 1099 485 l 1
 691 485 l 1
 691 0 l 1
 541 -0 l 1
 541 485 l 1
 130 485 l 1
 130 635 l 1
 541 635 l 1
 541 1250 l 1
 130 1250 l 1
 130 1400 l 1
 1099 1400 l 1
EndSplineSet
Validated: 3073
EndChar

StartChar: tbar
Encoding: 359 359 431
Width: 1229
VWidth: 1947
Flags: W
HStem: -25 150<588.518 847.36> 485 150<130 377 540 1099> 858 150<159 407 569 933> 1405 20G<449.465 602>
VStem: 365 150<195.574 485>
LayerCount: 2
Fore
SplineSet
731 125 m 2
 788 125 880 173 901 233 c 1
 1047 197 l 1
 994 39 827 -25 731 -25 c 2
 706 -25 l 2
 536 -25 365 119 365 300 c 2
 365 329 l 1
 377 485 l 1
 130 485 l 1
 130 635 l 1
 389 635 l 1
 407 858 l 1
 159 858 l 1
 159 1008 l 1
 419 1008 l 1
 451 1425 l 1
 602 1425 l 1
 569 1008 l 1
 933 1008 l 1
 933 858 l 1
 557 858 l 1
 540 635 l 1
 1099 635 l 1
 1099 485 l 1
 528 485 l 1
 515 323 l 1
 515 300 l 2
 515 204 617 125 706 125 c 2
 731 125 l 2
EndSplineSet
Validated: 3073
EndChar

StartChar: A
Encoding: 65 65 461
Width: 1229
VWidth: 1708
Flags: W
HStem: -0 21G<99 263.426 967.574 1132> 249 150<386 846> 1405 20G<552.544 679.442>
LayerCount: 2
Fore
SplineSet
386 399 m 1
 846 399 l 1
 616 1112 l 1
 386 399 l 1
337 249 m 1
 257 -0 l 1
 99 -0 l 1
 559 1425 l 1
 673 1425 l 1
 1132 -0 l 1
 974 -0 l 1
 894 249 l 1
 337 249 l 1
EndSplineSet
Validated: 3073
EndChar

StartChar: Lambda
Encoding: 923 923 462
Width: 1229
VWidth: 1708
Flags: W
HStem: -0 21G<99 263.36 967.658 1132> 1405 20G<546.628 685.358>
LayerCount: 2
Fore
SplineSet
257 -0 m 1
 99 -0 l 1
 553 1425 l 1
 679 1425 l 1
 1132 -0 l 1
 974 -0 l 1
 616 1129 l 1
 257 -0 l 1
EndSplineSet
Validated: 3073
EndChar

StartChar: Delta
Encoding: 916 916 463
Width: 1229
VWidth: 1708
Flags: W
HStem: 0 150<307 922> 1405 20G<546.684 685.274>
LayerCount: 2
Fore
SplineSet
922 151 m 1
 616 1126 l 1
 307 150 l 1
 922 151 l 1
103 0 m 1
 553 1425 l 1
 679 1425 l 1
 1126 0 l 1
 103 0 l 1
EndSplineSet
Validated: 3073
EndChar

StartChar: Theta
Encoding: 920 920 464
Width: 1229
VWidth: 1947
Flags: W
HStem: -25 150<471.515 762.62> 624 150<495 737> 1275 150<461.961 762.62>
VStem: 130 150<386.979 1037.3> 495 242<624 774> 949 150<380.424 1031.81>
LayerCount: 2
Fore
SplineSet
1099 765 m 2
 1099 696 l 2
 1099 250 909 -25 625 -25 c 2
 608 -25 l 2
 246 -25 130 376 130 696 c 2
 130 763 l 2
 130 1168 321 1425 607 1425 c 2
 625 1425 l 2
 909 1425 1099 1153 1099 765 c 2
625 1275 m 2
 607 1275 l 2
 345 1275 280 969 280 763 c 2
 280 696 l 2
 280 474 346 125 608 125 c 2
 625 125 l 2
 884 125 949 468 949 696 c 2
 949 765 l 2
 949 1031 842 1275 625 1275 c 2
737 774 m 1
 737 624 l 1
 495 624 l 1
 495 774 l 1
 737 774 l 1
EndSplineSet
Validated: 3073
EndChar

StartChar: Xi
Encoding: 926 926 465
Width: 1229
VWidth: 1708
Flags: W
HStem: 0 337<130 280 949 1099> 0 150<280 949> 625 150<427 805> 1049 351<130 280 949 1099> 1250 150<280 949>
VStem: 130 150<150 337 1049 1250> 949 150<150 337 1049 1250>
LayerCount: 2
Fore
SplineSet
280 150 m 1x66
 949 150 l 1x66
 949 337 l 1
 1099 337 l 1
 1099 0 l 1
 130 0 l 1
 130 337 l 1
 280 337 l 1xa6
 280 150 l 1x66
805 775 m 1
 805 625 l 1
 427 625 l 1
 427 775 l 1
 805 775 l 1
130 1049 m 1x36
 130 1400 l 1
 1099 1400 l 1
 1099 1049 l 1
 949 1049 l 1x36
 949 1250 l 1
 280 1250 l 1x2e
 280 1049 l 1
 130 1049 l 1x36
EndSplineSet
Validated: 3073
EndChar

StartChar: Sigma
Encoding: 931 931 468
Width: 1229
VWidth: 1947
Flags: W
HStem: -25 150<308 1099> 1250 150<321 1099>
LayerCount: 2
Fore
SplineSet
130 1400 m 1
 1099 1400 l 1
 1099 1250 l 1
 321 1250 l 1
 741 737 l 1
 308 125 l 1
 1099 125 l 1
 1099 -25 l 1
 130 -25 l 1
 130 133 l 1
 553 731 l 1
 130 1247 l 1
 130 1400 l 1
EndSplineSet
Validated: 3073
EndChar

StartChar: Psi
Encoding: 936 936 473
Width: 1229
VWidth: 1947
Flags: W
HStem: -24 21G<541 691> 437 150<331.274 541 691 909.326> 1405 20G<541 691>
VStem: 101 150<661.554 1350> 541 150<-24 437 587 1425> 980 150<659.282 1350>
LayerCount: 2
Fore
SplineSet
691 -24 m 1
 541 -24 l 1
 541 437 l 1
 447 437 l 2
 264 437 101 591 101 778 c 2
 101 1350 l 1
 251 1350 l 1
 251 778 l 2
 251 676 345 587 447 587 c 2
 541 587 l 1
 541 1425 l 1
 691 1425 l 1
 691 587 l 1
 785 587 l 2
 902 587 980 685 980 778 c 2
 980 1350 l 1
 1130 1350 l 1
 1130 778 l 2
 1130 605 990 437 785 437 c 2
 691 437 l 1
 691 -24 l 1
EndSplineSet
Validated: 3073
EndChar

StartChar: Omega
Encoding: 937 937 474
Width: 1229
VWidth: 1947
Flags: W
HStem: 0 150<129 369 860 1099> 1276 150<450.372 778.532>
VStem: 129 150<559.335 1082.59> 369 150<150 301.745> 710 150<150 298.953> 949 150<561.254 1078.36>
LayerCount: 2
Fore
SplineSet
369 150 m 1
 369 275 l 1
 185 378 129 629 129 807 c 2
 129 862 l 2
 129 1176 304 1426 607 1426 c 2
 625 1426 l 2
 954 1426 1099 1135 1099 864 c 2
 1099 807 l 2
 1099 639 1044 371 860 273 c 1
 860 150 l 1
 1099 150 l 1
 1099 0 l 1
 710 0 l 1
 710 378 l 1
 763 395 l 2
 878 431 949 618 949 807 c 2
 949 864 l 2
 949 1020 884 1276 625 1276 c 2
 607 1276 l 2
 345 1276 279 1024 279 862 c 2
 279 807 l 2
 279 613 349 438 470 393 c 2
 519 375 l 1
 519 0 l 1
 129 0 l 1
 129 150 l 1
 369 150 l 1
EndSplineSet
Validated: 3073
EndChar

StartChar: alpha
Encoding: 945 945 483
Width: 1229
VWidth: 1947
Flags: W
HStem: -25 150<401.907 620.801> 899 150<403.242 625.549>
VStem: 130 150<284.52 740.769>
LayerCount: 2
Fore
SplineSet
773 513 m 1
 678 755 l 2
 642 850 613 899 515 899 c 2
 496 899 l 2
 396 899 280 749 280 529 c 2
 280 495 l 2
 280 273 396 125 496 125 c 2
 515 125 l 2
 572 125 631 146 678 268 c 2
 773 513 l 1
818 214 m 2
 779 113 699 -25 515 -25 c 2
 496 -25 l 2
 286 -25 130 216 130 495 c 2
 130 529 l 2
 130 811 290 1049 496 1049 c 2
 515 1049 l 2
 696 1049 769 933 818 809 c 2
 853 720 l 1
 981 1051 l 1
 1121 997 l 1
 934 513 l 1
 1124 27 l 1
 984 -25 l 1
 854 306 l 1
 818 214 l 2
EndSplineSet
Validated: 3073
EndChar

StartChar: beta
Encoding: 946 946 484
Width: 1229
VWidth: 2334
Flags: W
HStem: -25 150<396.455 865.264> 474 150<470 842.514> 899 150<412.008 853.871>
VStem: 130 150<-321 65 226.95 768.219> 901 150<675.722 849.072> 949 150<197.051 421.625>
LayerCount: 2
Fore
SplineSet
280 339 m 2xf8
 280 248 370 125 595 125 c 2
 650 125 l 2
 783 125 949 160 949 299 c 2
 949 325 l 2xf4
 949 384 929 474 668 474 c 2
 470 474 l 1
 470 624 l 1
 620 624 l 2
 743 624 901 650 901 756 c 2
 901 770 l 2
 901 833 856 899 630 899 c 2
 605 899 l 2
 384 899 280 768 280 629 c 2
 280 339 l 2xf8
130 629 m 2
 130 848 297 1049 605 1049 c 2
 630 1049 l 2
 986 1049 1051 882 1051 770 c 2
 1051 756 l 2xf8
 1051 697 1029 623 959 566 c 1
 1074 503 1099 402 1099 325 c 2
 1099 299 l 2
 1099 160 1000 -25 650 -25 c 2
 595 -25 l 2
 460 -25 356 11 280 65 c 1
 280 -321 l 1
 130 -321 l 1
 130 629 l 2
EndSplineSet
Validated: 3073
EndChar

StartChar: gamma
Encoding: 947 947 485
Width: 1229
VWidth: 2334
Flags: W
HStem: -385 21G<540 690> 1004 20G<123 294.425 935.575 1106>
VStem: 540 150<-385 35>
LayerCount: 2
Fore
SplineSet
540 35 m 1
 123 1024 l 1
 286 1024 l 1
 615 243 l 1
 944 1024 l 1
 1106 1024 l 1
 690 35 l 1
 690 -385 l 1
 540 -385 l 1
 540 35 l 1
EndSplineSet
Validated: 3073
EndChar

StartChar: delta
Encoding: 948 948 486
Width: 1229
VWidth: 2334
Flags: W
HStem: -25 150<450.54 797.589> 1250 150<443 1024>
VStem: 130 150<310.503 744.448> 949 150<286.766 745.191>
LayerCount: 2
Fore
SplineSet
500 1040 m 1
 156 1250 l 1
 156 1400 l 1
 1024 1400 l 1
 1024 1250 l 1
 443 1250 l 1
 873 988 l 1
 1018 905 1099 744 1099 557 c 2
 1099 477 l 2
 1099 212 936 -25 628 -25 c 2
 603 -25 l 2
 336 -25 130 215 130 477 c 2
 130 557 l 2
 130 791 260 995 500 1040 c 1
280 557 m 2
 280 477 l 2
 280 288 428 125 603 125 c 2
 628 125 l 2
 848 125 949 290 949 477 c 2
 949 557 l 2
 949 739 850 899 628 899 c 2
 603 899 l 2
 381 899 280 739 280 557 c 2
EndSplineSet
Validated: 3073
EndChar

StartChar: epsilon
Encoding: 949 949 487
Width: 1229
VWidth: 2334
Flags: W
HStem: -25 150<342.097 869.391> 458 150<351.894 851> 899 150<320.583 884.7>
VStem: 130 150<183.425 394.584 666.741 858.111>
LayerCount: 2
Fore
SplineSet
553 899 m 2
 316 899 280 845 280 764 c 3
 280 639 423 608 558 608 c 2
 851 608 l 1
 851 458 l 1
 558 458 l 2
 345 458 280 370 280 311 c 2
 280 294 l 2
 280 215 305 125 553 125 c 2
 659 125 l 2
 803 125 875 162 932 211 c 1
 1030 97 l 1
 953 30 848 -25 659 -25 c 2
 553 -25 l 2
 184 -25 130 166 130 294 c 2
 130 311 l 2
 130 380 163 469 255 531 c 1
 158 596 130 691 130 764 c 3
 130 1012 348 1049 553 1049 c 2
 659 1049 l 2
 817 1049 961 1006 1036 934 c 1
 932 826 l 1
 896 860 798 899 659 899 c 2
 553 899 l 2
EndSplineSet
Validated: 3073
EndChar

StartChar: zeta
Encoding: 950 950 488
Width: 1229
VWidth: 2334
Flags: W
HStem: -369 150<616 911.888> -25 150<346.722 940.139>
VStem: 130 150<195.905 451.436> 949 150<-181.945 -46.7766>
LayerCount: 2
Fore
SplineSet
949 -94 m 2
 949 -53 905 -25 718 -25 c 2
 553 -25 l 2
 329 -25 130 47 130 337 c 2
 130 357 l 2
 130 500 274 655 437 714 c 2
 732 821 l 2
 771 835 813 855 851 877 c 1
 734 883 594 902 494 958 c 2
 449 983 l 1
 521 1115 l 1
 566 1090 l 2
 660 1038 821 1024 993 1024 c 2
 1098 1024 l 1
 1098 884 l 1
 1002 776 868 712 784 681 c 2
 489 574 l 2
 369 531 280 421 280 357 c 2
 280 337 l 2
 280 208 321 125 553 125 c 2
 718 125 l 2
 823 125 1099 124 1099 -94 c 2
 1099 -116 l 2
 1099 -284 925 -369 737 -369 c 2
 616 -369 l 1
 616 -219 l 1
 737 -219 l 2
 770 -219 949 -213 949 -116 c 2
 949 -94 l 2
EndSplineSet
Validated: 3073
EndChar

StartChar: eta
Encoding: 951 951 489
Width: 1229
VWidth: 2334
Flags: W
HStem: -385 21G<949 1099> 0 21G<130 280> 899 150<457.905 875.171> 1004 20G<130 280>
VStem: 130 150<0 720.826 906 1024> 949 150<-385 828.752>
LayerCount: 2
Fore
SplineSet
280 -0 m 1xec
 130 0 l 1
 130 1024 l 1
 280 1024 l 1xdc
 280 906 l 1
 363 989 475 1049 603 1049 c 2
 628 1049 l 2
 873 1049 1099 983 1099 719 c 2
 1099 -385 l 1
 949 -385 l 1
 949 719 l 2
 949 827 887 899 628 899 c 2
 603 899 l 2
 413 899 280 690 280 597 c 2
 280 -0 l 1xec
EndSplineSet
Validated: 3073
EndChar

StartChar: theta
Encoding: 952 952 490
Width: 1229
VWidth: 1947
Flags: W
HStem: -25 150<422.398 809.368> 437 150<281 948> 898 150<422.256 810.964>
VStem: 130 151<281.271 437 587 744.532> 948 151<271.578 437 587 756.906>
LayerCount: 2
Fore
SplineSet
948 437 m 1
 281 437 l 1
 293 255 399 125 586 125 c 2
 637 125 l 2
 839 125 938 255 948 437 c 1
1099 562 m 2
 1099 470 l 2
 1099 183 931 -25 637 -25 c 2
 586 -25 l 2
 312 -25 130 178 130 471 c 2
 130 561 l 2
 130 842 312 1048 584 1048 c 2
 641 1048 l 2
 928 1048 1099 844 1099 562 c 2
641 898 m 2
 584 898 l 2
 401 898 291 769 281 587 c 1
 948 587 l 1
 940 768 839 898 641 898 c 2
EndSplineSet
Validated: 3073
EndChar

StartChar: lambda
Encoding: 955 955 491
Width: 1229
VWidth: 2334
Flags: W
HStem: 0 21G<125 295.414 936.586 1107> 1390 20G<358 528.326>
LayerCount: 2
Fore
SplineSet
1107 0 m 1
 945 0 l 1
 616 782 l 1
 287 0 l 1
 125 0 l 1
 535 975 l 1
 358 1410 l 1
 520 1410 l 1
 1107 0 l 1
EndSplineSet
Validated: 3073
EndChar

StartChar: xi
Encoding: 958 958 494
Width: 1229
VWidth: 2334
Flags: W
HStem: -369 150<616 914.006> -25 150<328.672 938.594> 438 150<373.348 890>
VStem: 131 150<171.889 368.677 661.573 830.603> 949 150<-182.871 -46.7766>
LayerCount: 2
Fore
SplineSet
949 -94 m 2
 949 -53 903 -25 718 -25 c 2
 553 -25 l 2
 327 -25 131 34 131 270 c 2
 131 287 l 2
 131 359 165 452 274 516 c 1
 144 599 131 657 131 730 c 2
 131 757 l 2
 131 948 337 1018 460 1040 c 2
 587 1063 l 1
 486 1098 428 1158 413 1182 c 2
 393 1213 l 1
 519 1295 l 1
 539 1264 l 2
 559 1233 663 1180 819 1157 c 2
 876 1149 l 1
 876 1005 l 1
 854 992 l 2
 817 969 739 938 640 920 c 2
 488 892 l 2
 394 875 281 838 281 757 c 2
 281 730 l 2
 281 663 404 588 608 588 c 2
 890 588 l 1
 890 438 l 1
 608 438 l 2
 410 438 280 378 280 287 c 2
 280 270 l 2
 280 200 301 125 553 125 c 2
 718 125 l 2
 819 125 1099 124 1099 -94 c 2
 1099 -116 l 2
 1099 -312 896 -369 737 -369 c 2
 616 -369 l 1
 616 -219 l 1
 737 -219 l 2
 770 -219 949 -213 949 -116 c 2
 949 -94 l 2
EndSplineSet
Validated: 3073
EndChar

StartChar: pi
Encoding: 960 960 496
Width: 1229
VWidth: 2334
Flags: W
HStem: -0 21G<101 315.5 903 1134> 874 150<364 842>
VStem: 214 150<85.7279 855> 842 150<111 874>
LayerCount: 2
Fore
SplineSet
368 1024 m 2
 863 1024 l 2
 1005 1024 1102 1063 1158 1104 c 1
 1158 932 l 1
 1109 910 1053 894 992 884 c 1
 992 228 l 2
 992 156 1058 65 1134 -0 c 1
 929 -0 l 1
 877 70 842 150 842 228 c 2
 842 874 l 1
 364 874 l 1
 364 228 l 2
 364 149 337 70 294 -0 c 1
 101 -0 l 1
 168 62 214 149 214 228 c 2
 214 855 l 1
 153 838 106 813 72 789 c 1
 72 962 l 1
 151 999 249 1024 368 1024 c 2
EndSplineSet
Validated: 3073
EndChar

StartChar: rho
Encoding: 961 961 497
Width: 1229
VWidth: 2334
Flags: W
HStem: -385 21G<130 280> -25 150<425.583 807.519> 899 150<407.401 801.476>
VStem: 130 150<-385 89 272.852 766.186> 949 150<273.291 754.97>
LayerCount: 2
Fore
SplineSet
949 457 m 2
 949 597 l 2
 949 781 808 899 628 899 c 2
 603 899 l 2
 390 899 280 791 280 597 c 2
 280 457 l 2
 280 277 378 125 603 125 c 2
 628 125 l 2
 852 125 949 278 949 457 c 2
628 -25 m 2
 603 -25 l 2
 468 -25 359 18 280 89 c 1
 280 -385 l 1
 130 -385 l 1
 130 597 l 2
 130 855 288 1049 603 1049 c 2
 628 1049 l 2
 890 1049 1099 865 1099 597 c 2
 1099 457 l 2
 1099 190 932 -25 628 -25 c 2
EndSplineSet
Validated: 3073
EndChar

StartChar: sigmafinal
Encoding: 962 962 498
Width: 1229
VWidth: 2334
Flags: W
HStem: -369 150<616 914.014> -25 150<413.701 940.139> 898 150<487.418 916.446>
VStem: 130 150<266.504 706.08> 949 150<-182.871 -46.7766>
LayerCount: 2
Fore
SplineSet
949 -94 m 2
 949 -53 905 -25 718 -25 c 2
 553 -25 l 2
 310 -25 130 168 130 467 c 2
 130 567 l 2
 130 822 364 1048 683 1048 c 2
 752 1048 l 2
 852 1048 984 995 1033 963 c 2
 1092 925 l 1
 1010 799 l 1
 949 837 l 2
 907 864 807 898 752 898 c 2
 683 898 l 2
 438 898 280 729 280 567 c 2
 280 467 l 2
 280 257 389 125 553 125 c 2
 718 125 l 2
 823 125 1099 124 1099 -94 c 2
 1099 -116 l 2
 1099 -268 947 -369 737 -369 c 2
 616 -369 l 1
 616 -219 l 1
 737 -219 l 2
 770 -219 949 -213 949 -116 c 2
 949 -94 l 2
EndSplineSet
Validated: 3073
EndChar

StartChar: sigma
Encoding: 963 963 499
Width: 1229
VWidth: 1947
Flags: W
HStem: -25 150<430.161 793.124> 858 150<1014 1149> 898 150<420.475 802.988>
VStem: 130 150<299.726 745.768> 949 150<300.102 747.274>
LayerCount: 2
Fore
SplineSet
1099 562 m 2xd8
 1099 490 l 2
 1099 203 914 -25 636 -25 c 2
 584 -25 l 2
 312 -25 130 201 130 491 c 2
 130 561 l 2
 130 845 311 1048 582 1048 c 2
 639 1048 l 2xb8
 712 1048 779 1033 837 1007 c 1
 1149 1008 l 1
 1149 858 l 1
 1014 858 l 1
 1069 777 1099 675 1099 562 c 2xd8
639 898 m 2
 582 898 l 2
 390 898 280 756 280 561 c 2
 280 491 l 2
 280 292 391 125 584 125 c 2
 636 125 l 2
 828 125 949 285 949 490 c 2
 949 562 l 2
 949 757 832 898 639 898 c 2
EndSplineSet
Validated: 3073
EndChar

StartChar: tau
Encoding: 964 964 500
Width: 1229
VWidth: 2334
Flags: W
HStem: -25 21G<310 576> 874 150<258.456 541 691 943.82>
VStem: 541 150<197.157 874>
LayerCount: 2
Fore
SplineSet
418 1024 m 2
 803 1024 l 2
 892 1024 1011 1100 1099 1174 c 1
 1099 986 l 1
 1007 924 901 874 803 874 c 2
 691 874 l 1
 691 358 l 2
 691 223 622 83 530 -25 c 1
 310 -25 l 1
 413 49 541 208 541 358 c 2
 541 874 l 1
 418 874 l 2
 328 874 216 816 130 753 c 1
 130 932 l 1
 220 984 322 1024 418 1024 c 2
EndSplineSet
Validated: 3073
EndChar

StartChar: upsilon
Encoding: 965 965 501
Width: 1229
VWidth: 1947
Flags: W
HStem: -25 150<430 785.95> 900 150<541 831.105> 1004 20G<130 280>
VStem: 130 150<288.965 1024> 949 150<290.485 772.472>
LayerCount: 2
Fore
SplineSet
669 1050 m 2xd8
 969 1050 1099 829 1099 562 c 2
 1099 475 l 2
 1099 196 902 -25 631 -25 c 2
 600 -25 l 2
 259 -25 130 237 130 513 c 2
 130 1024 l 1
 280 1024 l 1xb8
 280 513 l 2
 280 327 344 125 600 125 c 2
 631 125 l 2
 814 125 949 274 949 475 c 2
 949 562 l 2
 949 728 893 900 669 900 c 2
 541 900 l 1
 541 1050 l 1
 669 1050 l 2xd8
EndSplineSet
Validated: 3073
EndChar

StartChar: phi
Encoding: 966 966 502
Width: 1229
VWidth: 1947
Flags: W
HStem: -385 21G<541 691> -24 151<411.584 541 691 815.485> 899 150<717.275 874.403>
VStem: 130 150<267.325 973> 541 150<-385 -19.9816 127 881.663> 949 150<281.076 800.103>
LayerCount: 2
Fore
SplineSet
780 899 m 2
 744 899 691 869 691 734 c 2
 691 127 l 1
 896 147 948 336 949 504 c 2
 949 555 l 2
 949 682 908 899 805 899 c 2
 780 899 l 2
541 734 m 2
 541 986 684 1049 780 1049 c 2
 805 1049 l 2
 1074 1049 1099 668 1099 555 c 2
 1099 504 l 2
 1098 244 984 -5 691 -24 c 1
 691 -385 l 1
 541 -385 l 1
 541 -24 l 1
 234 -6 130 241 130 500 c 2
 130 973 l 1
 280 973 l 1
 280 500 l 2
 280 246 383 141 541 127 c 1
 541 734 l 2
EndSplineSet
Validated: 3073
EndChar

StartChar: chi
Encoding: 967 967 503
Width: 1229
VWidth: 2062
Flags: W
HStem: -385 21G<117 301.65 833 1148> 1004 20G<94 331 921.46 1106>
LayerCount: 2
Fore
SplineSet
688 300 m 1
 731 181 l 2
 806 -27 908 -202 982 -260 c 2
 1148 -385 l 1
 901 -385 l 1
 765 -281 657 -55 590 130 c 1
 290 -385 l 1
 117 -385 l 1
 523 315 l 1
 444 536 l 2
 390 687 294 832 233 890 c 2
 94 1024 l 1
 311 1024 l 1
 335 1000 l 2
 433 906 535 729 586 586 c 2
 622 485 l 1
 933 1024 l 1
 1106 1024 l 1
 688 300 l 1
EndSplineSet
Validated: 3073
EndChar

StartChar: psi
Encoding: 968 968 504
Width: 1229
VWidth: 1947
Flags: W
HStem: -385 21G<541 691> -25 150<415.77 541 691 811.986> 1029 20G<541 691>
VStem: 130 150<306.793 973> 541 150<-385 -25 125 1049> 949 150<312.938 973>
LayerCount: 2
Fore
SplineSet
1099 513 m 2
 1099 292 958 -25 731 -25 c 2
 691 -25 l 1
 691 -385 l 1
 541 -385 l 1
 541 -25 l 1
 497 -25 l 2
 269 -25 130 294 130 513 c 2
 130 973 l 1
 280 973 l 1
 280 513 l 2
 280 341 388 125 497 125 c 2
 541 125 l 1
 541 1049 l 1
 691 1049 l 1
 691 125 l 1
 731 125 l 2
 842 125 949 346 949 513 c 2
 949 973 l 1
 1099 973 l 1
 1099 513 l 2
EndSplineSet
Validated: 3073
EndChar

StartChar: omega
Encoding: 969 969 505
Width: 1229
VWidth: 2334
Flags: W
HStem: -25 150<328.459 516.353 718.567 911.306> 1004 20G<194 416 804 1045.5>
VStem: 130 150<176.17 904.523> 541 150<149.845 732> 949 150<161.1 909.785>
LayerCount: 2
Fore
SplineSet
130 734 m 2
 130 818 166 955 222 1024 c 1
 416 1024 l 1
 337 928 l 2
 313 899 280 802 280 734 c 2
 280 336 l 2
 280 196 347 125 392 125 c 2
 415 125 l 2
 501 125 541 169 541 275 c 2
 541 732 l 1
 691 732 l 1
 691 275 l 2
 691 215 710 125 806 125 c 2
 833 125 l 2
 949 125 949 309 949 337 c 2
 949 734 l 2
 949 820 921 898 894 927 c 2
 804 1024 l 1
 1009 1024 l 1
 1082 941 1099 806 1099 734 c 2
 1099 337 l 2
 1099 72 963 -25 833 -25 c 2
 806 -25 l 2
 729 -25 664 5 618 55 c 1
 572 5 504 -25 415 -25 c 2
 392 -25 l 2
 286 -25 130 70 130 336 c 2
 130 734 l 2
EndSplineSet
Validated: 3073
EndChar

StartChar: dieresiscmb
Encoding: 776 776 508
Width: 1229
VWidth: 1947
Flags: W
HStem: 1250 228<340.312 511.411 708.311 878.456>
VStem: 315 223<1276.07 1454.49> 684 219<1275.15 1455.47>
LayerCount: 2
Fore
SplineSet
538 1367 m 0
 538 1306 487 1250 427 1250 c 0
 367 1250 315 1302 315 1367 c 0
 315 1434 370 1478 426 1478 c 0
 490 1478 538 1426 538 1367 c 0
903 1367 m 0
 903 1299 850 1250 794 1250 c 0
 736 1250 684 1303 684 1367 c 0
 684 1432 736 1478 794 1478 c 0
 847 1478 903 1434 903 1367 c 0
EndSplineSet
Validated: 3073
EndChar

StartChar: Djecyrillic
Encoding: 1026 1026 512
Width: 1229
VWidth: 2334
Flags: W
HStem: 0 150<720 900.947> 829 150<673.469 894.549> 1250 150<130 376 526 1099>
VStem: 376 150<0 634.277 846 1250> 948 150<193.994 777.766>
LayerCount: 2
Fore
SplineSet
763 829 m 2
 685 829 526 672 526 417 c 2
 526 -0 l 1
 376 -0 l 1
 376 1250 l 1
 130 1250 l 1
 130 1400 l 1
 1099 1400 l 1
 1099 1250 l 1
 526 1250 l 1
 526 846 l 1
 602 962 720 979 763 979 c 2
 790 979 l 2
 975 979 1098 832 1098 649 c 2
 1098 386 l 2
 1098 227 1044 0 827 0 c 2
 720 0 l 1
 720 150 l 1
 827 150 l 2
 927 150 948 296 948 386 c 2
 948 649 l 2
 948 749 890 829 790 829 c 2
 763 829 l 2
EndSplineSet
Validated: 3073
EndChar

StartChar: Ljecyrillic
Encoding: 1033 1033 513
Width: 1229
VWidth: 1947
Flags: W
HStem: 0 150<690 870.214> 722 150<690 874.219> 1250 150<426.326 540>
VStem: 540 150<150 722 872 1250> 949 150<236.25 650.094>
LayerCount: 2
Fore
SplineSet
690 722 m 1
 690 150 l 1
 741 150 l 2
 876 150 949 236 949 417 c 2
 949 495 l 2
 949 605 907 722 741 722 c 2
 690 722 l 1
231 1085 m 2
 238 1141 280 1400 478 1400 c 2
 690 1400 l 1
 690 872 l 1
 741 872 l 2
 964 872 1099 723 1099 495 c 2
 1099 417 l 2
 1099 143 954 0 741 0 c 2
 540 0 l 1
 540 1250 l 1
 478 1250 l 2
 458 1250 400 1229 379 1065 c 2
 242 0 l 1
 192 0 141 0 91 0 c 1
 231 1085 l 2
EndSplineSet
Validated: 3073
EndChar

StartChar: Njecyrillic
Encoding: 1034 1034 514
Width: 1229
VWidth: 1947
Flags: W
HStem: 0 150<690 869.771> 722 150<280 540 690 887.799> 1380 20G<130 280 540 690>
VStem: 130 150<0 722 872 1400> 540 150<150 722 872 1400> 949 150<239.073 658.654>
LayerCount: 2
Fore
SplineSet
690 722 m 1
 690 150 l 1
 750 150 l 2
 909 150 949 306 949 417 c 2
 949 495 l 2
 949 674 870 722 751 722 c 2
 690 722 l 1
751 872 m 2
 986 872 1099 723 1099 495 c 2
 1099 417 l 2
 1099 172 963 0 750 0 c 2
 540 0 l 1
 540 722 l 1
 280 722 l 1
 280 -0 l 1
 130 0 l 1
 130 1400 l 1
 280 1400 l 1
 280 872 l 1
 540 872 l 1
 540 1400 l 1
 690 1400 l 1
 690 872 l 1
 751 872 l 2
EndSplineSet
Validated: 3073
EndChar

StartChar: Tshecyrillic
Encoding: 1035 1035 515
Width: 1229
VWidth: 2334
Flags: W
HStem: -0 21G<351 501 949 1099> 899 150<646.91 897.125> 1250 150<130 351 501 1099>
VStem: 351 150<0 724.058 925 1250> 949 150<0 848.709>
LayerCount: 2
Fore
SplineSet
1099 1400 m 1
 1099 1250 l 1
 501 1250 l 1
 501 925 l 1
 579 1008 673 1049 748 1049 c 2
 775 1049 l 2
 962 1049 1099 918 1099 739 c 2
 1099 0 l 1
 949 -0 l 1
 949 739 l 2
 949 835 879 899 775 899 c 2
 748 899 l 2
 684 899 501 799 501 497 c 2
 501 -0 l 1
 351 -0 l 1
 351 1250 l 1
 130 1250 l 1
 130 1400 l 1
 1099 1400 l 1
EndSplineSet
Validated: 3073
EndChar

StartChar: Dzhecyrillic
Encoding: 1039 1039 516
Width: 1229
VWidth: 2334
Flags: W
HStem: -385 21G<541 691> 0 150<280 541 691 949> 1380 20G<130 280 949 1099>
VStem: 130 150<150 1400> 541 150<-385 0> 949 150<150 1400>
LayerCount: 2
Fore
SplineSet
280 150 m 1
 949 150 l 1
 949 1400 l 1
 1099 1400 l 1
 1099 0 l 1
 691 0 l 1
 691 -385 l 1
 541 -385 l 1
 541 0 l 1
 130 0 l 1
 130 1400 l 1
 280 1400 l 1
 280 150 l 1
EndSplineSet
Validated: 3073
EndChar

StartChar: djecyrillic
Encoding: 1106 1106 517
Width: 1229
VWidth: 2334
Flags: W
HStem: -369 150<476.677 837.413> -0 21G<224 374> 780 150<536.422 864.85> 1110 150<130 224 374 826> 1404 20G<224 374>
VStem: 224 150<0 581.66 791 1110 1260 1424> 949 150<-105.75 697.914>
LayerCount: 2
Fore
SplineSet
636 -219 m 2
 711 -219 l 2
 862 -219 949 -73 949 32 c 2
 949 513 l 2
 949 688 892 780 702 780 c 2
 655 780 l 2
 478 780 374 527 374 423 c 2
 374 -0 l 1
 224 -0 l 1
 224 1110 l 1
 130 1110 l 1
 130 1260 l 1
 224 1260 l 1
 224 1424 l 1
 374 1424 l 1
 374 1260 l 1
 826 1260 l 1
 826 1110 l 1
 374 1110 l 1
 374 791 l 1
 444 871 539 930 655 930 c 2
 702 930 l 2
 900 930 1099 847 1099 513 c 2
 1099 32 l 2
 1099 -146 955 -369 711 -369 c 2
 636 -369 l 2
 559 -369 453 -350 376 -285 c 1
 472 -171 l 1
 504 -198 563 -219 636 -219 c 2
EndSplineSet
Validated: 3073
EndChar

StartChar: dzhecyrillic
Encoding: 1119 1119 519
Width: 1229
VWidth: 2334
Flags: W
HStem: -385 21G<541 691> 0 151<280 541 691 949> 1004 20G<130 280 949 1099>
VStem: 130 150<151 1024> 541 150<-385 0> 949 150<151 1024>
LayerCount: 2
Fore
SplineSet
280 151 m 1
 949 151 l 1
 949 1024 l 1
 1099 1024 l 1
 1099 0 l 1
 691 0 l 1
 691 -385 l 1
 541 -385 l 1
 541 0 l 1
 130 0 l 1
 130 1024 l 1
 280 1024 l 1
 280 151 l 1
EndSplineSet
Validated: 3073
EndChar

StartChar: ljecyrillic
Encoding: 1113 1113 520
Width: 1229
VWidth: 1947
Flags: W
HStem: 0 150<689 894.375> 486 150<690 898.151> 873 151<384.078 540>
VStem: 540 150<150 486 636 873> 949 150<205.892 437.429>
LayerCount: 2
Fore
SplineSet
689 486 m 1
 689 150 l 1
 770 150 l 2
 863 150 949 214 949 309 c 2
 949 357 l 2
 949 436 847 486 770 486 c 2
 689 486 l 1
156 622 m 2
 180 863 288 1024 486 1024 c 2
 690 1024 l 1
 690 636 l 1
 770 636 l 2
 887 636 1099 567 1099 357 c 2
 1099 309 l 2
 1099 128 945 0 770 0 c 2
 540 0 l 1
 540 873 l 1
 486 873 l 2
 365 873 320 750 306 608 c 2
 244 0 l 1
 194 0 144 0 94 0 c 1
 156 622 l 2
EndSplineSet
Validated: 3073
EndChar

StartChar: njecyrillic
Encoding: 1114 1114 521
Width: 1229
VWidth: 1947
Flags: W
HStem: 0 150<691 891.016> 486 150<280 541 691 892.318> 1004 20G<130 280 541 691>
VStem: 130 150<0 486 636 1024> 541 150<150 486 636 1024> 949 150<205.803 428.036>
LayerCount: 2
Fore
SplineSet
280 -0 m 1
 130 0 l 1
 130 1024 l 1
 280 1024 l 1
 280 636 l 1
 541 636 l 1
 541 1024 l 1
 691 1024 l 1
 691 636 l 1
 760 636 l 2
 899 636 1099 545 1099 353 c 2
 1099 305 l 2
 1099 133 945 0 760 0 c 2
 541 0 l 1
 541 486 l 1
 280 486 l 1
 280 -0 l 1
949 353 m 2
 949 419 852 486 760 486 c 2
 691 486 l 1
 691 150 l 1
 760 150 l 2
 862 150 949 217 949 305 c 2
 949 353 l 2
EndSplineSet
Validated: 3073
EndChar

StartChar: apostrophereverse
Encoding: 8219 8219 523
Width: 1229
VWidth: 1947
Flags: W
HStem: 985 55<714.663 749.91>
VStem: 438 178<1150.29 1404>
LayerCount: 2
Fore
SplineSet
652 1250 m 0
 618 1234 616 1205 616 1183 c 0
 616 1118 709 1059 761 1040 c 1
 746 985 l 1
 516 1011 440 1167 438 1365 c 0
 438 1443 510 1510 595 1510 c 0
 682 1510 740 1441 740 1365 c 0
 740 1317 703 1275 652 1250 c 0
EndSplineSet
Validated: 3073
EndChar

StartChar: arrowleft
Encoding: 8592 8592 526
Width: 1229
VWidth: 1708
Flags: W
HStem: 520 160<430 1026> 1027 20G<538.072 578.091>
LayerCount: 2
Fore
SplineSet
1026 680 m 1
 1026 520 l 1
 430 520 l 1
 673 263 l 1
 557 153 l 1
 204 526 l 1
 204 674 l 1
 557 1047 l 1
 673 937 l 1
 430 680 l 1
 1026 680 l 1
EndSplineSet
Validated: 3073
EndChar

StartChar: arrowright
Encoding: 8594 8594 527
Width: 1229
VWidth: 1708
Flags: W
HStem: 520 160<204 800> 1027 20G<651.909 691.928>
LayerCount: 2
Fore
SplineSet
204 520 m 1
 204 680 l 1
 800 680 l 1
 557 937 l 1
 673 1047 l 1
 1026 674 l 1
 1026 526 l 1
 673 153 l 1
 557 263 l 1
 800 520 l 1
 204 520 l 1
EndSplineSet
Validated: 3073
EndChar

StartChar: lthorizform
Encoding: 9472 9472 528
Width: 1229
Flags: W
HStem: 443 160<0 1229>
LayerCount: 2
Fore
SplineSet
0 443 m 1
 -0 603 l 1
 1229 603 l 1
 1229 443 l 1
 0 443 l 1
EndSplineSet
Validated: 3073
EndChar

StartChar: ltvertform
Encoding: 9474 9474 529
Width: 1229
Flags: W
VStem: 535 160<-615 1775>
LayerCount: 2
Fore
SplineSet
695 -615 m 1
 535 -615 l 1
 535 1775 l 1
 695 1775 l 1
 695 -615 l 1
EndSplineSet
Validated: 3073
EndChar

StartChar: rightanglenw
Encoding: 9484 9484 530
Width: 1229
Flags: W
HStem: 443 160<695 1229>
VStem: 535 160<-615 443>
LayerCount: 2
Fore
SplineSet
535 -615 m 1
 535 603 l 1
 1229 603 l 1
 1229 443 l 1
 695 443 l 1
 695 -615 l 1
 535 -615 l 1
EndSplineSet
Validated: 3073
EndChar

StartChar: rightanglene
Encoding: 9488 9488 531
Width: 1229
Flags: W
HStem: 443 160<0 535>
VStem: 535 160<-615 443>
LayerCount: 2
Fore
SplineSet
535 443 m 1
 0 443 l 1
 -0 603 l 1
 695 603 l 1
 695 -615 l 1
 535 -615 l 1
 535 443 l 1
EndSplineSet
Validated: 3073
EndChar

StartChar: rightanglesw
Encoding: 9492 9492 532
Width: 1229
Flags: W
HStem: 443 160<695 1229>
VStem: 535 160<603 1775>
LayerCount: 2
Fore
SplineSet
695 603 m 1
 1229 603 l 1
 1229 443 l 1
 535 443 l 1
 535 1775 l 1
 695 1775 l 1
 695 603 l 1
EndSplineSet
Validated: 3073
EndChar

StartChar: rightanglese
Encoding: 9496 9496 533
Width: 1229
Flags: W
HStem: 443 160<0 535>
VStem: 535 160<603 1775>
LayerCount: 2
Fore
SplineSet
695 1775 m 1
 695 443 l 1
 0 443 l 1
 -0 603 l 1
 535 603 l 1
 535 1775 l 1
 695 1775 l 1
EndSplineSet
Validated: 3073
EndChar

StartChar: ltvertrightform
Encoding: 9500 9500 534
Width: 1229
Flags: W
HStem: 443 160<695 1229>
VStem: 535 160<-615 443 603 1775>
LayerCount: 2
Fore
SplineSet
695 -615 m 1
 535 -615 l 1
 535 1775 l 1
 695 1775 l 1
 695 603 l 1
 1229 603 l 1
 1229 443 l 1
 695 443 l 1
 695 -615 l 1
EndSplineSet
Validated: 3073
EndChar

StartChar: ltvertleftform
Encoding: 9508 9508 535
Width: 1229
Flags: W
HStem: 443 160<0 535>
VStem: 535 160<-615 443 603 1775>
LayerCount: 2
Fore
SplineSet
0 443 m 1
 -0 603 l 1
 535 603 l 1
 535 1775 l 1
 695 1775 l 1
 695 -615 l 1
 535 -615 l 1
 535 443 l 1
 0 443 l 1
EndSplineSet
Validated: 3073
EndChar

StartChar: ltdnhorizform
Encoding: 9516 9516 536
Width: 1229
Flags: W
HStem: 443 160<0 535 695 1229>
VStem: 535 160<-615 443>
LayerCount: 2
Fore
SplineSet
0 443 m 1
 -0 603 l 1
 1229 603 l 1
 1229 443 l 1
 695 443 l 1
 695 -615 l 1
 535 -615 l 1
 535 443 l 1
 0 443 l 1
EndSplineSet
Validated: 3073
EndChar

StartChar: ltuphorizform
Encoding: 9524 9524 537
Width: 1229
Flags: W
HStem: 443 160<0 535 695 1229>
VStem: 535 160<603 1775>
LayerCount: 2
Fore
SplineSet
0 443 m 1
 -0 603 l 1
 535 603 l 1
 535 1775 l 1
 695 1775 l 1
 695 603 l 1
 1229 603 l 1
 1229 443 l 1
 0 443 l 1
EndSplineSet
Validated: 3073
EndChar

StartChar: ltverthorizform
Encoding: 9532 9532 538
Width: 1229
Flags: W
HStem: 443 160<0 535 695 1229>
VStem: 535 160<-615 443 603 1775>
LayerCount: 2
Fore
SplineSet
0 443 m 1
 -0 603 l 1
 535 603 l 1
 535 1775 l 1
 695 1775 l 1
 695 603 l 1
 1229 603 l 1
 1229 443 l 1
 695 443 l 1
 695 -615 l 1
 535 -615 l 1
 535 443 l 1
 0 443 l 1
EndSplineSet
Validated: 3073
EndChar

StartChar: horizdblbar
Encoding: 9552 9552 539
Width: 1229
Flags: W
HStem: 283 160<0 1229> 635 160<0 1229>
LayerCount: 2
Fore
SplineSet
0 635 m 1
 -0 795 l 1
 1229 795 l 1
 1229 635 l 1
 0 635 l 1
0 283 m 1
 -0 443 l 1
 1229 443 l 1
 1229 283 l 1
 0 283 l 1
EndSplineSet
Validated: 3073
EndChar

StartChar: vertdblbar
Encoding: 9553 9553 540
Width: 1229
Flags: W
VStem: 375 160<-615 1775> 695 160<-615 1775>
LayerCount: 2
Fore
SplineSet
855 -615 m 1
 695 -615 l 1
 695 1775 l 1
 855 1775 l 1
 855 -615 l 1
535 -615 m 1
 375 -615 l 1
 375 1775 l 1
 535 1775 l 1
 535 -615 l 1
EndSplineSet
Validated: 3073
EndChar

StartChar: dnrtdblform
Encoding: 9554 9554 541
Width: 1229
Flags: W
HStem: 283 160<695 1229> 635 160<695 1229>
VStem: 535 160<-615 283 443 635>
LayerCount: 2
Fore
SplineSet
695 283 m 1
 695 -615 l 1
 535 -615 l 1
 535 795 l 1
 1229 795 l 1
 1229 635 l 1
 695 635 l 1
 695 443 l 1
 1229 443 l 1
 1229 283 l 1
 695 283 l 1
EndSplineSet
Validated: 3073
EndChar

StartChar: dndblrtform
Encoding: 9555 9555 542
Width: 1229
Flags: W
HStem: 443 160<535 695 855 1229>
VStem: 375 160<-615 443> 695 160<-615 443>
LayerCount: 2
Fore
SplineSet
855 -615 m 1
 695 -615 l 1
 695 443 l 1
 535 443 l 1
 535 -615 l 1
 375 -615 l 1
 375 603 l 1
 1229 603 l 1
 1229 443 l 1
 855 443 l 1
 855 -615 l 1
EndSplineSet
Validated: 3073
EndChar

StartChar: dbldnrtform
Encoding: 9556 9556 543
Width: 1229
Flags: W
HStem: 283 160<855 1229> 635 160<535 1229>
VStem: 375 160<-615 635> 695 160<-615 283>
LayerCount: 2
Fore
SplineSet
535 635 m 1
 535 -615 l 1
 375 -615 l 1
 375 795 l 1
 1229 795 l 1
 1229 635 l 1
 535 635 l 1
855 283 m 1
 855 -615 l 1
 695 -615 l 1
 695 443 l 1
 1229 443 l 1
 1229 283 l 1
 855 283 l 1
EndSplineSet
Validated: 3073
EndChar

StartChar: dnleftdblform
Encoding: 9557 9557 544
Width: 1229
Flags: W
HStem: 283 160<0 535> 635 160<0 535>
VStem: 535 160<-615 283 443 635>
LayerCount: 2
Fore
SplineSet
0 795 m 1
 695 795 l 1
 695 -615 l 1
 535 -615 l 1
 535 283 l 1
 0 283 l 1
 -0 443 l 1
 535 443 l 1
 535 635 l 1
 -0 635 l 1
 0 795 l 1
EndSplineSet
Validated: 3073
EndChar

StartChar: dndblleftform
Encoding: 9558 9558 545
Width: 1229
Flags: W
HStem: 443 160<0 375 535 695>
VStem: 375 160<-615 443> 695 160<-615 443>
LayerCount: 2
Fore
SplineSet
535 -615 m 1
 375 -615 l 1
 375 443 l 1
 0 443 l 1
 -0 603 l 1
 855 603 l 1
 855 -615 l 1
 695 -615 l 1
 695 443 l 1
 535 443 l 1
 535 -615 l 1
EndSplineSet
Validated: 3073
EndChar

StartChar: dbldnleftform
Encoding: 9559 9559 546
Width: 1229
Flags: W
HStem: 283 160<0 375> 635 160<0 695>
VStem: 375 160<-615 283> 695 160<-615 635>
LayerCount: 2
Fore
SplineSet
0 795 m 1
 855 795 l 1
 855 -615 l 1
 695 -615 l 1
 695 635 l 1
 -0 635 l 1
 0 795 l 1
0 443 m 1
 535 443 l 1
 535 -615 l 1
 375 -615 l 1
 375 283 l 1
 -0 283 l 1
 0 443 l 1
EndSplineSet
Validated: 3073
EndChar

StartChar: uprtdblform
Encoding: 9560 9560 547
Width: 1229
Flags: W
HStem: 283 160<695 1229> 603 160<695 1229>
VStem: 535 160<443 603 763 1775>
LayerCount: 2
Fore
SplineSet
1229 283 m 1
 535 283 l 1
 535 1775 l 1
 695 1775 l 1
 695 763 l 1
 1229 763 l 1
 1229 603 l 1
 695 603 l 1
 695 443 l 1
 1229 443 l 1
 1229 283 l 1
EndSplineSet
Validated: 3073
EndChar

StartChar: updblrtform
Encoding: 9561 9561 548
Width: 1229
Flags: W
HStem: 443 160<535 695 855 1229>
VStem: 375 160<603 1775> 695 160<603 1775>
LayerCount: 2
Fore
SplineSet
855 603 m 1
 1229 603 l 1
 1229 443 l 1
 375 443 l 1
 375 1775 l 1
 535 1775 l 1
 535 603 l 1
 695 603 l 1
 695 1775 l 1
 855 1775 l 1
 855 603 l 1
EndSplineSet
Validated: 3073
EndChar

StartChar: dbluprtform
Encoding: 9562 9562 549
Width: 1229
Flags: W
HStem: 283 160<535 1229> 635 160<855 1229>
VStem: 375 160<443 1775> 695 160<795 1775>
LayerCount: 2
Fore
SplineSet
1229 635 m 1
 695 635 l 1
 695 1775 l 1
 855 1775 l 1
 855 795 l 1
 1229 795 l 1
 1229 635 l 1
1229 283 m 1
 375 283 l 1
 375 1775 l 1
 535 1775 l 1
 535 443 l 1
 1229 443 l 1
 1229 283 l 1
EndSplineSet
Validated: 3073
EndChar

StartChar: upleftdblform
Encoding: 9563 9563 550
Width: 1229
Flags: W
HStem: 283 160<0 535> 603 160<0 535>
VStem: 535 160<443 603 763 1775>
LayerCount: 2
Fore
SplineSet
0 603 m 1
 -0 763 l 1
 535 763 l 1
 535 1775 l 1
 695 1775 l 1
 695 283 l 1
 -0 283 l 1
 0 443 l 1
 535 443 l 1
 535 603 l 1
 0 603 l 1
EndSplineSet
Validated: 3073
EndChar

StartChar: updblleftform
Encoding: 9564 9564 551
Width: 1229
Flags: W
HStem: 443 160<0 375 535 695>
VStem: 375 160<603 1775> 695 160<603 1775>
LayerCount: 2
Fore
SplineSet
855 1775 m 1
 855 443 l 1
 0 443 l 1
 -0 603 l 1
 375 603 l 1
 375 1775 l 1
 535 1775 l 1
 535 603 l 1
 695 603 l 1
 695 1775 l 1
 855 1775 l 1
EndSplineSet
Validated: 3073
EndChar

StartChar: dblupleftform
Encoding: 9565 9565 552
Width: 1229
Flags: W
HStem: 283 160<0 695> 635 160<0 375>
VStem: 375 160<795 1775> 695 160<443 1775>
LayerCount: 2
Fore
SplineSet
375 795 m 1
 375 1775 l 1
 535 1775 l 1
 535 635 l 1
 -0 635 l 1
 0 795 l 1
 375 795 l 1
695 443 m 1
 695 1775 l 1
 855 1775 l 1
 855 283 l 1
 -0 283 l 1
 0 443 l 1
 695 443 l 1
EndSplineSet
Validated: 3073
EndChar

StartChar: vertrtdblform
Encoding: 9566 9566 553
Width: 1229
Flags: W
HStem: 283 160<695 1229> 603 160<695 1229>
VStem: 535 160<-615 283 443 603 763 1775>
LayerCount: 2
Fore
SplineSet
695 -615 m 1
 535 -615 l 1
 535 1775 l 1
 695 1775 l 1
 695 763 l 1
 1229 763 l 1
 1229 603 l 1
 695 603 l 1
 695 443 l 1
 1229 443 l 1
 1229 283 l 1
 695 283 l 1
 695 -615 l 1
EndSplineSet
Validated: 3073
EndChar

StartChar: vertdblrtform
Encoding: 9567 9567 554
Width: 1229
Flags: W
HStem: 443 160<855 1229>
VStem: 375 160<-615 1775> 695 160<-615 443 603 1775>
LayerCount: 2
Fore
SplineSet
855 -615 m 1
 695 -615 l 1
 695 1775 l 1
 855 1775 l 1
 855 603 l 1
 1229 603 l 1
 1229 443 l 1
 855 443 l 1
 855 -615 l 1
535 -615 m 1
 375 -615 l 1
 375 1775 l 1
 535 1775 l 1
 535 -615 l 1
EndSplineSet
Validated: 3073
EndChar

StartChar: dblvertrtform
Encoding: 9568 9568 555
Width: 1229
Flags: W
HStem: 283 160<855 1229> 635 160<855 1229>
VStem: 375 160<-615 1775> 695 160<-615 283 795 1775>
LayerCount: 2
Fore
SplineSet
535 -615 m 1
 375 -615 l 1
 375 1775 l 1
 535 1775 l 1
 535 -615 l 1
1229 635 m 1
 695 635 l 1
 695 1775 l 1
 855 1775 l 1
 855 795 l 1
 1229 795 l 1
 1229 635 l 1
855 283 m 1
 855 -615 l 1
 695 -615 l 1
 695 443 l 1
 1229 443 l 1
 1229 283 l 1
 855 283 l 1
EndSplineSet
Validated: 3073
EndChar

StartChar: vertleftdblform
Encoding: 9569 9569 556
Width: 1229
Flags: W
HStem: 283 160<0 535> 603 160<0 535>
VStem: 535 160<-615 283 443 603 763 1775>
LayerCount: 2
Fore
SplineSet
695 -615 m 1
 535 -615 l 1
 535 283 l 1
 0 283 l 1
 -0 443 l 1
 535 443 l 1
 535 603 l 1
 0 603 l 1
 -0 763 l 1
 535 763 l 1
 535 1775 l 1
 695 1775 l 1
 695 -615 l 1
EndSplineSet
Validated: 3073
EndChar

StartChar: vertdblleftform
Encoding: 9570 9570 557
Width: 1229
Flags: W
HStem: 443 160<0 375>
VStem: 375 160<-615 443 603 1775> 695 160<-615 1775>
LayerCount: 2
Fore
SplineSet
0 443 m 1
 -0 603 l 1
 375 603 l 1
 375 1775 l 1
 535 1775 l 1
 535 -615 l 1
 375 -615 l 1
 375 443 l 1
 0 443 l 1
855 -615 m 1
 695 -615 l 1
 695 1775 l 1
 855 1775 l 1
 855 -615 l 1
EndSplineSet
Validated: 3073
EndChar

StartChar: dblvertleftform
Encoding: 9571 9571 558
Width: 1229
Flags: W
HStem: 283 160<0 375> 635 160<0 375>
VStem: 375 160<-615 283 795 1775> 695 160<-615 1775>
LayerCount: 2
Fore
SplineSet
855 -615 m 1
 695 -615 l 1
 695 1775 l 1
 855 1775 l 1
 855 -615 l 1
375 795 m 1
 375 1775 l 1
 535 1775 l 1
 535 635 l 1
 -0 635 l 1
 0 795 l 1
 375 795 l 1
0 443 m 1
 535 443 l 1
 535 -615 l 1
 375 -615 l 1
 375 283 l 1
 -0 283 l 1
 0 443 l 1
EndSplineSet
Validated: 3073
EndChar

StartChar: dnhorizdblform
Encoding: 9572 9572 559
Width: 1229
Flags: W
HStem: 283 160<0 535 695 1229> 635 160<0 1229>
VStem: 535 160<-615 283>
LayerCount: 2
Fore
SplineSet
695 -615 m 1
 535 -615 l 1
 535 283 l 1
 0 283 l 1
 -0 443 l 1
 1229 443 l 1
 1229 283 l 1
 695 283 l 1
 695 -615 l 1
0 635 m 1
 -0 795 l 1
 1229 795 l 1
 1229 635 l 1
 0 635 l 1
EndSplineSet
Validated: 3073
EndChar

StartChar: dndblhorizform
Encoding: 9573 9573 560
Width: 1229
Flags: W
HStem: 443 160<0 375 535 695 855 1229>
VStem: 375 160<-615 443> 695 160<-615 443>
LayerCount: 2
Fore
SplineSet
0 443 m 1
 -0 603 l 1
 1229 603 l 1
 1229 443 l 1
 855 443 l 1
 855 -615 l 1
 695 -615 l 1
 695 443 l 1
 535 443 l 1
 535 -615 l 1
 375 -615 l 1
 375 443 l 1
 0 443 l 1
EndSplineSet
Validated: 3073
EndChar

StartChar: dbldnhorizform
Encoding: 9574 9574 561
Width: 1229
Flags: W
HStem: 283 160<0 375 855 1229> 635 160<0 1229>
VStem: 375 160<-615 283> 695 160<-615 283>
LayerCount: 2
Fore
SplineSet
0 635 m 1
 -0 795 l 1
 1229 795 l 1
 1229 635 l 1
 0 635 l 1
0 443 m 1
 535 443 l 1
 535 -615 l 1
 375 -615 l 1
 375 283 l 1
 -0 283 l 1
 0 443 l 1
855 283 m 1
 855 -615 l 1
 695 -615 l 1
 695 443 l 1
 1229 443 l 1
 1229 283 l 1
 855 283 l 1
EndSplineSet
Validated: 3073
EndChar

StartChar: uphorizdblform
Encoding: 9575 9575 562
Width: 1229
Flags: W
HStem: 283 160<0 1229> 635 160<0 535 695 1229>
VStem: 535 160<795 1775>
LayerCount: 2
Fore
SplineSet
0 635 m 1
 -0 795 l 1
 535 795 l 1
 535 1775 l 1
 695 1775 l 1
 695 795 l 1
 1229 795 l 1
 1229 635 l 1
 0 635 l 1
0 283 m 1
 -0 443 l 1
 1229 443 l 1
 1229 283 l 1
 0 283 l 1
EndSplineSet
Validated: 3073
EndChar

StartChar: updblhorizform
Encoding: 9576 9576 563
Width: 1229
Flags: W
HStem: 443 160<0 375 535 695 855 1229>
VStem: 375 160<603 1775> 695 160<603 1775>
LayerCount: 2
Fore
SplineSet
0 443 m 1
 -0 603 l 1
 375 603 l 1
 375 1775 l 1
 535 1775 l 1
 535 603 l 1
 695 603 l 1
 695 1775 l 1
 855 1775 l 1
 855 603 l 1
 1229 603 l 1
 1229 443 l 1
 0 443 l 1
EndSplineSet
Validated: 3073
EndChar

StartChar: dbluphorizform
Encoding: 9577 9577 564
Width: 1229
Flags: W
HStem: 283 160<0 1229> 635 160<0 375 855 1229>
VStem: 375 160<795 1775> 695 160<795 1775>
LayerCount: 2
Fore
SplineSet
375 795 m 1
 375 1775 l 1
 535 1775 l 1
 535 635 l 1
 -0 635 l 1
 0 795 l 1
 375 795 l 1
1229 635 m 1
 695 635 l 1
 695 1775 l 1
 855 1775 l 1
 855 795 l 1
 1229 795 l 1
 1229 635 l 1
0 283 m 1
 -0 443 l 1
 1229 443 l 1
 1229 283 l 1
 0 283 l 1
EndSplineSet
Validated: 3073
EndChar

StartChar: verthorizdblform
Encoding: 9578 9578 565
Width: 1229
Flags: W
HStem: 283 160<0 535 695 1229> 635 160<0 535 695 1229>
VStem: 535 160<-615 283 795 1775>
LayerCount: 2
Fore
SplineSet
695 -615 m 1
 535 -615 l 1
 535 283 l 1
 0 283 l 1
 -0 443 l 1
 1229 443 l 1
 1229 283 l 1
 695 283 l 1
 695 -615 l 1
0 635 m 1
 -0 795 l 1
 535 795 l 1
 535 1775 l 1
 695 1775 l 1
 695 795 l 1
 1229 795 l 1
 1229 635 l 1
 0 635 l 1
EndSplineSet
Validated: 3073
EndChar

StartChar: vertdblhorizform
Encoding: 9579 9579 566
Width: 1229
Flags: W
HStem: 443 160<0 375 855 1229>
VStem: 375 160<-615 443 603 1775> 695 160<-615 443 603 1775>
LayerCount: 2
Fore
SplineSet
0 443 m 1
 -0 603 l 1
 375 603 l 1
 375 1775 l 1
 535 1775 l 1
 535 -615 l 1
 375 -615 l 1
 375 443 l 1
 0 443 l 1
855 -615 m 1
 695 -615 l 1
 695 1775 l 1
 855 1775 l 1
 855 603 l 1
 1229 603 l 1
 1229 443 l 1
 855 443 l 1
 855 -615 l 1
EndSplineSet
Validated: 3073
EndChar

StartChar: dblverthorizform
Encoding: 9580 9580 567
Width: 1229
Flags: W
HStem: 283 160<0 375 855 1229> 635 160<0 375 855 1229>
VStem: 375 160<-615 283 795 1775> 695 160<-615 283 795 1775>
LayerCount: 2
Fore
SplineSet
375 795 m 1
 375 1775 l 1
 535 1775 l 1
 535 635 l 1
 -0 635 l 1
 0 795 l 1
 375 795 l 1
1229 635 m 1
 695 635 l 1
 695 1775 l 1
 855 1775 l 1
 855 795 l 1
 1229 795 l 1
 1229 635 l 1
0 443 m 1
 535 443 l 1
 535 -615 l 1
 375 -615 l 1
 375 283 l 1
 -0 283 l 1
 0 443 l 1
855 283 m 1
 855 -615 l 1
 695 -615 l 1
 695 443 l 1
 1229 443 l 1
 1229 283 l 1
 855 283 l 1
EndSplineSet
Validated: 3073
EndChar

StartChar: upblock
Encoding: 9600 9600 568
Width: 1229
Flags: W
HStem: 523 1252<0 1229>
VStem: -0 1229<523 1775>
LayerCount: 2
Fore
SplineSet
1229 523 m 1
 -0 523 l 1
 0 1775 l 1
 1229 1775 l 1
 1229 523 l 1
EndSplineSet
Validated: 3073
EndChar

StartChar: dnblock
Encoding: 9604 9604 569
Width: 1229
Flags: W
HStem: -615 1138<0 1229>
VStem: -0 1229<-615 523>
LayerCount: 2
Fore
SplineSet
1229 -615 m 1
 -0 -615 l 1
 -0 523 l 1
 1229 523 l 1
 1229 -615 l 1
EndSplineSet
Validated: 3073
EndChar

StartChar: block
Encoding: 9608 9608 570
Width: 1229
Flags: W
VStem: -0 1229<-615 1775>
LayerCount: 2
Fore
SplineSet
-0 -615 m 1
 0 1775 l 1
 1229 1775 l 1
 1229 -615 l 1
 -0 -615 l 1
EndSplineSet
Validated: 3073
EndChar

StartChar: lfblock
Encoding: 9612 9612 571
Width: 1229
Flags: W
VStem: -0 615<-615 1775>
LayerCount: 2
Fore
SplineSet
-0 -615 m 1
 0 1775 l 1
 615 1775 l 1
 615 -615 l 1
 -0 -615 l 1
EndSplineSet
Validated: 3073
EndChar

StartChar: rtblock
Encoding: 9616 9616 572
Width: 1229
Flags: W
VStem: 615 614<-615 1775>
LayerCount: 2
Fore
SplineSet
615 -615 m 1
 615 1775 l 1
 1229 1775 l 1
 1229 -615 l 1
 615 -615 l 1
EndSplineSet
Validated: 3073
EndChar

StartChar: shadelight
Encoding: 9617 9617 573
Width: 1229
Flags: W
HStem: -514 100<205 308 616 721 1026 1129> -315 100<0 103 410 514 823 924> -115 99<205 308 616 721 1026 1129> 83 100<0 103 410 514 823 924> 283 99<205 308 616 721 1026 1129> 482 99<0 103 410 514 823 924> 681 100<205 308 616 721 1026 1129> 881 99<0 103 410 514 823 924> 1080 99<205 308 616 721 1026 1129> 1278 100<0 103 410 514 823 924> 1477 100<205 308 616 721 1026 1129> 1677 98<0 103 410 514 823 924>
VStem: 0 103<-315 -215 83 183 482 581 881 980 1278 1378 1677 1775> 205 103<-514 -414 -115 -16 283 382 681 781 1080 1179 1477 1577> 410 104<-315 -215 83 183 482 581 881 980 1278 1378 1677 1775> 616 105<-514 -414 -115 -16 283 382 681 781 1080 1179 1477 1577> 823 101<-315 -215 83 183 482 581 881 980 1278 1378 1677 1775> 1026 103<-514 -414 -115 -16 283 382 681 781 1080 1179 1477 1577>
CounterMasks: 4 aaa0 5550 000a80 000540
LayerCount: 2
Fore
SplineSet
0 1378 m 1
 103 1378 l 1
 103 1278 l 1
 0 1278 l 1
 0 1378 l 1
410 1378 m 1
 514 1378 l 1
 514 1278 l 1
 410 1278 l 1
 410 1378 l 1
823 1378 m 1
 924 1378 l 1
 924 1278 l 1
 823 1278 l 1
 823 1378 l 1
205 1179 m 1
 308 1179 l 1
 308 1080 l 1
 205 1080 l 1
 205 1179 l 1
616 1179 m 1
 721 1179 l 1
 721 1080 l 1
 616 1080 l 1
 616 1179 l 1
1026 1179 m 1
 1129 1179 l 1
 1129 1080 l 1
 1026 1080 l 1
 1026 1179 l 1
823 980 m 1
 924 980 l 1
 924 881 l 1
 823 881 l 1
 823 980 l 1
410 980 m 1
 514 980 l 1
 514 881 l 1
 410 881 l 1
 410 980 l 1
0 980 m 1
 103 980 l 1
 103 881 l 1
 0 881 l 1
 0 980 l 1
1026 781 m 1
 1129 781 l 1
 1129 681 l 1
 1026 681 l 1
 1026 781 l 1
616 781 m 1
 721 781 l 1
 721 681 l 1
 616 681 l 1
 616 781 l 1
205 781 m 1
 308 781 l 1
 308 681 l 1
 205 681 l 1
 205 781 l 1
0 581 m 1
 103 581 l 1
 103 482 l 1
 0 482 l 1
 0 581 l 1
410 581 m 1
 514 581 l 1
 514 482 l 1
 410 482 l 1
 410 581 l 1
823 581 m 1
 924 581 l 1
 924 482 l 1
 823 482 l 1
 823 581 l 1
1026 382 m 1
 1129 382 l 1
 1129 283 l 1
 1026 283 l 1
 1026 382 l 1
616 382 m 1
 721 382 l 1
 721 283 l 1
 616 283 l 1
 616 382 l 1
205 382 m 1
 308 382 l 1
 308 283 l 1
 205 283 l 1
 205 382 l 1
0 183 m 1
 103 183 l 1
 103 83 l 1
 0 83 l 1
 0 183 l 1
410 183 m 1
 514 183 l 1
 514 83 l 1
 410 83 l 1
 410 183 l 1
823 183 m 1
 924 183 l 1
 924 83 l 1
 823 83 l 1
 823 183 l 1
205 -16 m 1
 308 -16 l 1
 308 -115 l 1
 205 -115 l 1
 205 -16 l 1
616 -16 m 1
 721 -16 l 1
 721 -115 l 1
 616 -115 l 1
 616 -16 l 1
1026 -16 m 1
 1129 -16 l 1
 1129 -115 l 1
 1026 -115 l 1
 1026 -16 l 1
823 -215 m 1
 924 -215 l 1
 924 -315 l 1
 823 -315 l 1
 823 -215 l 1
410 -215 m 1
 514 -215 l 1
 514 -315 l 1
 410 -315 l 1
 410 -215 l 1
0 -215 m 1
 103 -215 l 1
 103 -315 l 1
 0 -315 l 1
 0 -215 l 1
205 -414 m 1
 308 -414 l 1
 308 -514 l 1
 205 -514 l 1
 205 -414 l 1
616 -414 m 1
 721 -414 l 1
 721 -514 l 1
 616 -514 l 1
 616 -414 l 1
1026 -414 m 1
 1129 -414 l 1
 1129 -514 l 1
 1026 -514 l 1
 1026 -414 l 1
205 1577 m 1
 308 1577 l 1
 308 1477 l 1
 205 1477 l 1
 205 1577 l 1
616 1577 m 1
 721 1577 l 1
 721 1477 l 1
 616 1477 l 1
 616 1577 l 1
1026 1577 m 1
 1129 1577 l 1
 1129 1477 l 1
 1026 1477 l 1
 1026 1577 l 1
0 1775 m 1
 103 1775 l 1
 103 1677 l 1
 0 1677 l 1
 0 1775 l 1
410 1775 m 1
 514 1775 l 1
 514 1677 l 1
 410 1677 l 1
 410 1775 l 1
823 1775 m 1
 924 1775 l 1
 924 1677 l 1
 823 1677 l 1
 823 1775 l 1
EndSplineSet
Validated: 3073
EndChar

StartChar: shademedium
Encoding: 9618 9618 574
Width: 1229
Flags: W
HStem: -514 100<0 103 205 308 410 513 616 720 823 923 1026 1129> -315 100<103 205 308 410 513 616 720 823 923 1026 1129 1229> -115 99<0 103 205 308 410 513 616 720 823 923 1026 1129> 83 100<103 205 308 410 513 616 720 823 923 1026 1129 1229> 283 99<0 103 205 308 410 513 616 720 823 923 1026 1129> 482 99<103 205 308 410 513 616 720 823 923 1026 1129 1229> 681 100<0 103 205 308 410 513 616 720 823 923 1026 1129> 881 99<103 205 308 410 513 616 720 823 923 1026 1129 1229> 1080 99<0 103 205 308 410 513 616 720 823 923 1026 1129> 1278 100<103 205 308 410 513 616 720 823 923 1026 1129 1229> 1477 100<0 103 205 308 410 513 616 720 823 923 1026 1129> 1677 98<103 205 308 410 513 616 720 823 923 1026 1129 1229>
VStem: 0 103<-514 -414 -115 -16 283 382 681 781 1080 1179 1477 1577> 103 102<-315 -215 83 183 482 581 881 980 1278 1378 1677 1775> 205 103<-514 -414 -115 -16 283 382 681 781 1080 1179 1477 1577> 308 102<-315 -215 83 183 482 581 881 980 1278 1378 1677 1775> 410 103<-514 -414 -115 -16 283 382 681 781 1080 1179 1477 1577> 513 103<-315 -215 83 183 482 581 881 980 1278 1378 1677 1775> 616 104<-514 -414 -115 -16 283 382 681 781 1080 1179 1477 1577> 720 103<-315 -215 83 183 482 581 881 980 1278 1378 1677 1775> 823 100<-514 -414 -115 -16 283 382 681 781 1080 1179 1477 1577> 923 103<-315 -215 83 183 482 581 881 980 1278 1378 1677 1775> 1026 103<-514 -414 -115 -16 283 382 681 781 1080 1179 1477 1577> 1129 100<-315 -215 83 183 482 581 881 980 1278 1378 1677 1775>
CounterMasks: 4 aaa0 5550 000aaa 000555
LayerCount: 2
Fore
SplineSet
103 1378 m 1
 205 1378 l 1
 205 1278 l 1
 103 1278 l 1
 103 1378 l 1
308 1378 m 1
 410 1378 l 1
 410 1278 l 1
 308 1278 l 1
 308 1378 l 1
513 1378 m 1
 616 1378 l 1
 616 1278 l 1
 513 1278 l 1
 513 1378 l 1
720 1378 m 1
 823 1378 l 1
 823 1278 l 1
 720 1278 l 1
 720 1378 l 1
923 1378 m 1
 1026 1378 l 1
 1026 1278 l 1
 923 1278 l 1
 923 1378 l 1
1129 1378 m 1
 1229 1378 l 1
 1229 1278 l 1
 1129 1278 l 1
 1129 1378 l 1
0 1179 m 1
 103 1179 l 1
 103 1080 l 1
 0 1080 l 1
 0 1179 l 1
205 1179 m 1
 308 1179 l 1
 308 1080 l 1
 205 1080 l 1
 205 1179 l 1
410 1179 m 1
 513 1179 l 1
 513 1080 l 1
 410 1080 l 1
 410 1179 l 1
616 1179 m 1
 720 1179 l 1
 720 1080 l 1
 616 1080 l 1
 616 1179 l 1
823 1179 m 1
 923 1179 l 1
 923 1080 l 1
 823 1080 l 1
 823 1179 l 1
1026 1179 m 1
 1129 1179 l 1
 1129 1080 l 1
 1026 1080 l 1
 1026 1179 l 1
103 980 m 1
 205 980 l 1
 205 881 l 1
 103 881 l 1
 103 980 l 1
308 980 m 1
 410 980 l 1
 410 881 l 1
 308 881 l 1
 308 980 l 1
513 980 m 1
 616 980 l 1
 616 881 l 1
 513 881 l 1
 513 980 l 1
720 980 m 1
 823 980 l 1
 823 881 l 1
 720 881 l 1
 720 980 l 1
923 980 m 1
 1026 980 l 1
 1026 881 l 1
 923 881 l 1
 923 980 l 1
1129 980 m 1
 1229 980 l 1
 1229 881 l 1
 1129 881 l 1
 1129 980 l 1
0 781 m 1
 103 781 l 1
 103 681 l 1
 0 681 l 1
 0 781 l 1
205 781 m 1
 308 781 l 1
 308 681 l 1
 205 681 l 1
 205 781 l 1
410 781 m 1
 513 781 l 1
 513 681 l 1
 410 681 l 1
 410 781 l 1
616 781 m 1
 720 781 l 1
 720 681 l 1
 616 681 l 1
 616 781 l 1
823 781 m 1
 923 781 l 1
 923 681 l 1
 823 681 l 1
 823 781 l 1
1026 781 m 1
 1129 781 l 1
 1129 681 l 1
 1026 681 l 1
 1026 781 l 1
103 581 m 1
 205 581 l 1
 205 482 l 1
 103 482 l 1
 103 581 l 1
308 581 m 1
 410 581 l 1
 410 482 l 1
 308 482 l 1
 308 581 l 1
513 581 m 1
 616 581 l 1
 616 482 l 1
 513 482 l 1
 513 581 l 1
720 581 m 1
 823 581 l 1
 823 482 l 1
 720 482 l 1
 720 581 l 1
923 581 m 1
 1026 581 l 1
 1026 482 l 1
 923 482 l 1
 923 581 l 1
1129 581 m 1
 1229 581 l 1
 1229 482 l 1
 1129 482 l 1
 1129 581 l 1
0 382 m 1
 103 382 l 1
 103 283 l 1
 0 283 l 1
 0 382 l 1
410 382 m 1
 513 382 l 1
 513 283 l 1
 410 283 l 1
 410 382 l 1
616 382 m 1
 720 382 l 1
 720 283 l 1
 616 283 l 1
 616 382 l 1
823 382 m 1
 923 382 l 1
 923 283 l 1
 823 283 l 1
 823 382 l 1
1026 382 m 1
 1129 382 l 1
 1129 283 l 1
 1026 283 l 1
 1026 382 l 1
205 382 m 1
 308 382 l 1
 308 283 l 1
 205 283 l 1
 205 382 l 1
1129 183 m 1
 1229 183 l 1
 1229 83 l 1
 1129 83 l 1
 1129 183 l 1
923 183 m 1
 1026 183 l 1
 1026 83 l 1
 923 83 l 1
 923 183 l 1
720 183 m 1
 823 183 l 1
 823 83 l 1
 720 83 l 1
 720 183 l 1
513 183 m 1
 616 183 l 1
 616 83 l 1
 513 83 l 1
 513 183 l 1
308 183 m 1
 410 183 l 1
 410 83 l 1
 308 83 l 1
 308 183 l 1
103 183 m 1
 205 183 l 1
 205 83 l 1
 103 83 l 1
 103 183 l 1
0 -16 m 1
 103 -16 l 1
 103 -115 l 1
 0 -115 l 1
 0 -16 l 1
205 -16 m 1
 308 -16 l 1
 308 -115 l 1
 205 -115 l 1
 205 -16 l 1
410 -16 m 1
 513 -16 l 1
 513 -115 l 1
 410 -115 l 1
 410 -16 l 1
616 -16 m 1
 720 -16 l 1
 720 -115 l 1
 616 -115 l 1
 616 -16 l 1
823 -16 m 1
 923 -16 l 1
 923 -115 l 1
 823 -115 l 1
 823 -16 l 1
1026 -16 m 1
 1129 -16 l 1
 1129 -115 l 1
 1026 -115 l 1
 1026 -16 l 1
1129 -215 m 1
 1229 -215 l 1
 1229 -315 l 1
 1129 -315 l 1
 1129 -215 l 1
923 -215 m 1
 1026 -215 l 1
 1026 -315 l 1
 923 -315 l 1
 923 -215 l 1
720 -215 m 1
 823 -215 l 1
 823 -315 l 1
 720 -315 l 1
 720 -215 l 1
513 -215 m 1
 616 -215 l 1
 616 -315 l 1
 513 -315 l 1
 513 -215 l 1
308 -215 m 1
 410 -215 l 1
 410 -315 l 1
 308 -315 l 1
 308 -215 l 1
103 -215 m 1
 205 -215 l 1
 205 -315 l 1
 103 -315 l 1
 103 -215 l 1
0 -414 m 1
 103 -414 l 1
 103 -514 l 1
 0 -514 l 1
 0 -414 l 1
205 -414 m 1
 308 -414 l 1
 308 -514 l 1
 205 -514 l 1
 205 -414 l 1
410 -414 m 1
 513 -414 l 1
 513 -514 l 1
 410 -514 l 1
 410 -414 l 1
616 -414 m 1
 720 -414 l 1
 720 -514 l 1
 616 -514 l 1
 616 -414 l 1
823 -414 m 1
 923 -414 l 1
 923 -514 l 1
 823 -514 l 1
 823 -414 l 1
1026 -414 m 1
 1129 -414 l 1
 1129 -514 l 1
 1026 -514 l 1
 1026 -414 l 1
0 1577 m 1
 103 1577 l 1
 103 1477 l 1
 0 1477 l 1
 0 1577 l 1
205 1577 m 1
 308 1577 l 1
 308 1477 l 1
 205 1477 l 1
 205 1577 l 1
410 1577 m 1
 513 1577 l 1
 513 1477 l 1
 410 1477 l 1
 410 1577 l 1
616 1577 m 1
 720 1577 l 1
 720 1477 l 1
 616 1477 l 1
 616 1577 l 1
823 1577 m 1
 923 1577 l 1
 923 1477 l 1
 823 1477 l 1
 823 1577 l 1
1026 1577 m 1
 1129 1577 l 1
 1129 1477 l 1
 1026 1477 l 1
 1026 1577 l 1
103 1775 m 1
 205 1775 l 1
 205 1677 l 1
 103 1677 l 1
 103 1775 l 1
308 1775 m 1
 410 1775 l 1
 410 1677 l 1
 308 1677 l 1
 308 1775 l 1
513 1775 m 1
 616 1775 l 1
 616 1677 l 1
 513 1677 l 1
 513 1775 l 1
720 1775 m 1
 823 1775 l 1
 823 1677 l 1
 720 1677 l 1
 720 1775 l 1
923 1775 m 1
 1026 1775 l 1
 1026 1677 l 1
 923 1677 l 1
 923 1775 l 1
1129 1775 m 1
 1229 1775 l 1
 1229 1677 l 1
 1129 1677 l 1
 1129 1775 l 1
EndSplineSet
Validated: 3073
EndChar

StartChar: shadedark
Encoding: 9619 9619 575
Width: 1229
Flags: W
HStem: -615 300<0 103 205 308 410 513 616 720 823 923 1026 1129> -615 101<103 205 308 410 513 616 720 823 923 1026 1129 1229> -414 299<103 205 308 410 513 616 720 823 923 1026 1129 1229> -215 299<0 103 205 308 410 513 616 720 823 923 1026 1129> -16 299<103 205 308 410 513 616 720 823 923 1026 1129 1229> 183 299<0 103 205 308 410 513 616 720 823 923 1026 1129> 382 299<103 205 308 410 513 616 720 823 923 1026 1129 1229> 581 299<0 103 205 308 410 513 616 720 823 923 1026 1129> 781 299<103 205 308 410 513 616 720 823 923 1026 1129 1229> 980 299<0 103 205 308 410 513 616 720 823 923 1026 1129> 1179 299<103 205 308 410 513 616 720 823 923 1026 1129 1229> 1378 299<0 103 205 308 410 513 616 720 823 923 1026 1129> 1577 198<103 205 308 410 513 616 720 823 923 1026 1129 1229>
VStem: 0 103<-514 -414 -115 -16 283 382 681 781 1080 1179 1478 1577> 103 102<-315 -215 84 183 482 581 881 980 1279 1378 1677 1775> 205 103<-514 -414 -115 -16 283 382 681 781 1080 1179 1478 1577> 308 102<-315 -215 84 183 482 581 880 980 1279 1378 1677 1775> 410 103<-514 -414 -115 -16 283 382 681 781 1080 1179 1478 1577> 513 103<-315 -215 84 183 482 581 880 980 1279 1378 1677 1775> 616 104<-514 -414 -115 -16 283 382 681 781 1080 1179 1478 1577> 720 103<-315 -215 84 183 482 581 880 980 1279 1378 1677 1775> 823 100<-514 -414 -115 -16 283 382 681 781 1080 1179 1478 1577> 923 103<-315 -215 84 183 482 581 880 980 1279 1378 1677 1775> 1026 103<-514 -414 -115 -16 283 382 681 781 1080 1179 1478 1577> 1129 100<-315 -215 84 183 482 581 880 980 1279 1378 1677 1775>
CounterMasks: 4 9550 6aa8 000555 0002aa80
LayerCount: 2
Fore
SplineSet
1229 1577 m 1x000fff80
 1129 1577 l 1
 1129 1478 l 1
 1229 1478 l 1
 1229 1179 l 1
 1129 1179 l 1
 1129 1080 l 1
 1229 1080 l 1
 1229 781 l 1
 1129 781 l 1
 1129 681 l 1
 1229 681 l 1
 1229 382 l 1
 1129 382 l 1
 1129 283 l 1
 1229 283 l 1
 1229 -16 l 1
 1129 -16 l 1
 1129 -115 l 1
 1229 -115 l 1
 1229 -414 l 1
 1129 -414 l 1
 1129 -514 l 1
 1229 -514 l 1
 1229 -615 l 1x6aafff80
 0 -615 l 1
 0 -315 l 1
 103 -315 l 1
 103 -215 l 1
 0 -215 l 1
 0 83 l 1
 103 83 l 1
 103 183 l 1
 0 183 l 1
 0 482 l 1
 103 482 l 1
 103 581 l 1
 0 581 l 1
 0 881 l 1
 103 881 l 1
 103 980 l 1
 0 980 l 1
 0 1279 l 1
 103 1279 l 1
 103 1378 l 1
 0 1378 l 1
 0 1677 l 1
 103 1677 l 1x9557ff80
 103 1775 l 1
 205 1775 l 1x000fff80
 205 1677 l 1
 308 1677 l 1x0017ff80
 308 1775 l 1
 410 1775 l 1x000fff80
 410 1677 l 1
 513 1677 l 1x0017ff80
 513 1775 l 1
 616 1775 l 1x000fff80
 616 1677 l 1
 720 1677 l 1x0017ff80
 720 1775 l 1
 823 1775 l 1x000fff80
 823 1677 l 1
 923 1677 l 1x0017ff80
 923 1775 l 1
 1026 1775 l 1x000fff80
 1026 1677 l 1
 1129 1677 l 1x0017ff80
 1129 1775 l 1
 1229 1775 l 1
 1229 1577 l 1x000fff80
103 1179 m 1
 103 1080 l 1
 205 1080 l 1
 205 1179 l 1
 103 1179 l 1
308 1179 m 1
 308 1080 l 1
 410 1080 l 1
 410 1179 l 1
 308 1179 l 1
513 1179 m 1
 513 1080 l 1
 616 1080 l 1
 616 1179 l 1
 513 1179 l 1
720 1179 m 1
 720 1080 l 1
 823 1080 l 1
 823 1179 l 1
 720 1179 l 1
923 1179 m 1
 923 1080 l 1
 1026 1080 l 1
 1026 1179 l 1
 923 1179 l 1
1129 980 m 1x0147ff80
 1026 980 l 1
 1026 880 l 1
 1129 880 l 1
 1129 980 l 1x0147ff80
923 980 m 1
 823 980 l 1
 823 880 l 1
 923 880 l 1
 923 980 l 1
720 980 m 1
 616 980 l 1
 616 880 l 1
 720 880 l 1
 720 980 l 1
513 980 m 1
 410 980 l 1
 410 880 l 1
 513 880 l 1
 513 980 l 1
308 980 m 1
 205 980 l 1
 205 880 l 1
 308 880 l 1
 308 980 l 1
103 781 m 1x0287ff80
 103 681 l 1
 205 681 l 1
 205 781 l 1
 103 781 l 1x0287ff80
308 781 m 1
 308 681 l 1
 410 681 l 1
 410 781 l 1
 308 781 l 1
513 781 m 1
 513 681 l 1
 616 681 l 1
 616 781 l 1
 513 781 l 1
720 781 m 1
 720 681 l 1
 823 681 l 1
 823 781 l 1
 720 781 l 1
923 781 m 1
 923 681 l 1
 1026 681 l 1
 1026 781 l 1
 923 781 l 1
308 581 m 1x0507ff80
 205 581 l 1
 205 482 l 1
 308 482 l 1
 308 581 l 1x0507ff80
410 581 m 1
 410 482 l 1
 513 482 l 1
 513 581 l 1
 410 581 l 1
616 581 m 1
 616 482 l 1
 720 482 l 1
 720 581 l 1
 616 581 l 1
823 581 m 1
 823 482 l 1
 923 482 l 1
 923 581 l 1
 823 581 l 1
1026 581 m 1
 1026 482 l 1
 1129 482 l 1
 1129 581 l 1
 1026 581 l 1
103 382 m 1x0a07ff80
 103 283 l 1
 205 283 l 1
 205 382 l 1
 103 382 l 1x0a07ff80
513 382 m 1
 513 283 l 1
 616 283 l 1
 616 382 l 1
 513 382 l 1
410 283 m 1
 410 382 l 1
 308 382 l 1
 308 283 l 1
 410 283 l 1
720 382 m 1
 720 283 l 1
 823 283 l 1
 823 382 l 1
 720 382 l 1
923 382 m 1
 923 283 l 1
 1026 283 l 1
 1026 382 l 1
 923 382 l 1
1129 84 m 1x1407ff80
 1129 183 l 1
 1026 183 l 1
 1026 84 l 1
 1129 84 l 1x1407ff80
923 84 m 1
 923 183 l 1
 823 183 l 1
 823 84 l 1
 923 84 l 1
720 84 m 1
 720 183 l 1
 616 183 l 1
 616 84 l 1
 720 84 l 1
513 84 m 1
 513 183 l 1
 410 183 l 1
 410 84 l 1
 513 84 l 1
308 84 m 1
 308 183 l 1
 205 183 l 1
 205 84 l 1
 308 84 l 1
103 -16 m 1x2807ff80
 103 -115 l 1
 205 -115 l 1
 205 -16 l 1
 103 -16 l 1x2807ff80
308 -16 m 1
 308 -115 l 1
 410 -115 l 1
 410 -16 l 1
 308 -16 l 1
513 -16 m 1
 513 -115 l 1
 616 -115 l 1
 616 -16 l 1
 513 -16 l 1
720 -16 m 1
 720 -115 l 1
 823 -115 l 1
 823 -16 l 1
 720 -16 l 1
923 -16 m 1
 923 -115 l 1
 1026 -115 l 1
 1026 -16 l 1
 923 -16 l 1
1129 -315 m 1x9007ff80
 1129 -215 l 1
 1026 -215 l 1
 1026 -315 l 1
 1129 -315 l 1x9007ff80
923 -315 m 1
 923 -215 l 1
 823 -215 l 1
 823 -315 l 1
 923 -315 l 1
720 -315 m 1
 720 -215 l 1
 616 -215 l 1
 616 -315 l 1
 720 -315 l 1
513 -315 m 1
 513 -215 l 1
 410 -215 l 1
 410 -315 l 1
 513 -315 l 1
308 -315 m 1
 308 -215 l 1
 205 -215 l 1
 205 -315 l 1
 308 -315 l 1
103 -414 m 1x6007ff80
 103 -514 l 1
 205 -514 l 1
 205 -414 l 1
 103 -414 l 1x6007ff80
308 -414 m 1
 308 -514 l 1
 410 -514 l 1
 410 -414 l 1
 308 -414 l 1
513 -414 m 1
 513 -514 l 1
 616 -514 l 1
 616 -414 l 1
 513 -414 l 1
720 -414 m 1
 720 -514 l 1
 823 -514 l 1
 823 -414 l 1
 720 -414 l 1
923 -414 m 1
 923 -514 l 1
 1026 -514 l 1
 1026 -414 l 1
 923 -414 l 1
1129 1378 m 1x0057ff80
 1026 1378 l 1
 1026 1279 l 1
 1129 1279 l 1
 1129 1378 l 1x0057ff80
923 1378 m 1
 823 1378 l 1
 823 1279 l 1
 923 1279 l 1
 923 1378 l 1
720 1378 m 1
 616 1378 l 1
 616 1279 l 1
 720 1279 l 1
 720 1378 l 1
513 1378 m 1
 410 1378 l 1
 410 1279 l 1
 513 1279 l 1
 513 1378 l 1
308 1378 m 1
 205 1378 l 1
 205 1279 l 1
 308 1279 l 1
 308 1378 l 1
1026 1577 m 1x002fff80
 923 1577 l 1
 923 1478 l 1
 1026 1478 l 1
 1026 1577 l 1x002fff80
823 1577 m 1
 720 1577 l 1
 720 1478 l 1
 823 1478 l 1
 823 1577 l 1
616 1577 m 1
 513 1577 l 1
 513 1478 l 1
 616 1478 l 1
 616 1577 l 1
410 1577 m 1
 308 1577 l 1
 308 1478 l 1
 410 1478 l 1
 410 1577 l 1
205 1577 m 1
 103 1577 l 1
 103 1478 l 1
 205 1478 l 1
 205 1577 l 1
EndSplineSet
Validated: 3073
EndChar

StartChar: blacksquare
Encoding: 9632 9632 576
Width: 1229
Flags: W
HStem: 113 1229<0 1229>
VStem: 0 1229<113 1342>
LayerCount: 2
Fore
SplineSet
0 1342 m 1
 1229 1342 l 1
 1229 113 l 1
 0 113 l 1
 0 1342 l 1
EndSplineSet
Validated: 3073
EndChar

StartChar: whitesquare
Encoding: 9633 9633 577
Width: 1229
Flags: W
HStem: 113 299<251 979> 1086 256<251 979>
VStem: 0 251<412 1086> 979 250<412 1086>
LayerCount: 2
Fore
SplineSet
0 1342 m 1
 1229 1342 l 1
 1229 113 l 1
 0 113 l 1
 0 1342 l 1
251 1086 m 1
 251 412 l 1
 979 412 l 1
 979 1086 l 1
 251 1086 l 1
EndSplineSet
Validated: 3073
EndChar

StartChar: blacksmallsquare
Encoding: 9642 9642 578
Width: 1229
Flags: W
HStem: 534 630<300 930>
VStem: 300 630<534 1164>
LayerCount: 2
Fore
SplineSet
930 534 m 1
 300 534 l 1
 300 1164 l 1
 930 1164 l 1
 930 534 l 1
EndSplineSet
Validated: 3073
EndChar

StartChar: whitesmallsquare
Encoding: 9643 9643 579
Width: 1229
Flags: W
HStem: 534 152<457 773> 1012 152<457 773>
VStem: 300 157<686 1012> 773 157<686 1012>
LayerCount: 2
Fore
SplineSet
930 534 m 1
 300 534 l 1
 300 1164 l 1
 930 1164 l 1
 930 534 l 1
773 686 m 1
 773 1012 l 1
 457 1012 l 1
 457 686 l 1
 773 686 l 1
EndSplineSet
Validated: 3073
EndChar

StartChar: blackrectangle
Encoding: 9644 9644 580
Width: 1229
Flags: W
HStem: 528 307<0 1229>
LayerCount: 2
Fore
SplineSet
0 835 m 1
 1229 835 l 1
 1229 528 l 1
 0 528 l 1
 0 835 l 1
EndSplineSet
Validated: 3073
EndChar

StartChar: triagup
Encoding: 9650 9650 581
Width: 1229
Flags: W
LayerCount: 2
Fore
SplineSet
0 110 m 1
 614 1262 l 1
 1229 110 l 1
 0 110 l 1
EndSplineSet
Validated: 3073
EndChar

StartChar: triagrt
Encoding: 9658 9658 582
Width: 1229
Flags: W
LayerCount: 2
Fore
SplineSet
85 -83 m 1
 83 1191 l 1
 1148 532 l 1
 85 -83 l 1
EndSplineSet
Validated: 3073
EndChar

StartChar: triagdn
Encoding: 9660 9660 583
Width: 1229
Flags: W
LayerCount: 2
Fore
SplineSet
1229 1262 m 1
 617 110 l 1
 0 1262 l 1
 1229 1262 l 1
EndSplineSet
Validated: 3073
EndChar

StartChar: triaglf
Encoding: 9668 9668 584
Width: 1229
Flags: W
LayerCount: 2
Fore
SplineSet
84 532 m 1
 1147 1192 l 1
 1147 -83 l 1
 84 532 l 1
EndSplineSet
Validated: 3073
EndChar

StartChar: lozenge
Encoding: 9674 9674 585
Width: 1229
Flags: W
LayerCount: 2
Fore
SplineSet
669 1694 m 1
 1113 985 l 1
 669 204 l 1
 549 204 l 1
 119 985 l 1
 549 1694 l 1
 669 1694 l 1
612 1375 m 1
 349 988 l 1
 612 519 l 1
 877 988 l 1
 612 1375 l 1
EndSplineSet
Validated: 3073
EndChar

StartChar: whitecircle
Encoding: 9675 9675 586
Width: 1229
Flags: W
HStem: 294 202<468.855 761.329> 1047 201<465.808 761.631>
VStem: 140 200<624.413 919.107> 891 200<623.521 916.83>
LayerCount: 2
Fore
SplineSet
616 1248 m 3
 885 1248 1091 1007 1091 771 c 3
 1091 525 879 294 616 294 c 3
 345 294 140 530 140 771 c 3
 140 998 335 1248 616 1248 c 3
616 1047 m 3
 456 1047 340 919 340 771 c 3
 340 605 474 496 616 496 c 259
 770 496 891 618 891 771 c 3
 891 912 779 1047 616 1047 c 3
EndSplineSet
Validated: 3073
EndChar

StartChar: blackcircle
Encoding: 9679 9679 587
Width: 1229
Flags: W
HStem: 253 1036<433.998 801.172>
VStem: 140 951<568.174 971.247>
LayerCount: 2
Fore
SplineSet
616 1289 m 0
 885 1289 1091 1027 1091 771 c 0
 1091 504 879 253 616 253 c 0
 345 253 140 509 140 771 c 0
 140 1018 335 1289 616 1289 c 0
EndSplineSet
Validated: 3073
EndChar

StartChar: bulletinverse
Encoding: 9688 9688 588
Width: 1229
Flags: W
HStem: 83 353<482.923 744.623> 873 353<485.388 745.912>
VStem: 85 312<524.494 787.201> 833 311<522.879 785.482>
LayerCount: 2
Fore
SplineSet
85 83 m 1
 85 1226 l 1
 1144 1226 l 1
 1144 83 l 1
 85 83 l 1
614 873 m 256
 497 873 397 780 397 654 c 0
 397 526 501 436 614 436 c 0
 734 436 833 532 833 654 c 0
 833 776 737 873 614 873 c 256
EndSplineSet
Validated: 3073
EndChar

StartChar: whitecircleinverse
Encoding: 9689 9689 589
Width: 1229
Flags: W
HStem: 105 148<405.193 825.948> 496 551<470.199 763.654> 1289 105<407.771 825.948>
VStem: 0 141<537.373 1002.58> 341 550<619.806 918.865> 1091 138<541.296 999.961>
CounterMasks: 2 e0 1c
LayerCount: 2
Fore
SplineSet
0 105 m 1
 0 1394 l 1
 1229 1394 l 1
 1229 105 l 1
 0 105 l 1
616 1289 m 3
 324 1289 141 1074 141 770 c 3
 141 465 318 253 616 253 c 3
 912 253 1091 474 1091 770 c 3
 1091 1068 912 1289 616 1289 c 3
617 1047 m 3
 770 1047 891 922 891 770 c 3
 891 613 766 496 617 496 c 3
 466 496 341 613 341 770 c 3
 341 928 469 1047 617 1047 c 3
EndSplineSet
Validated: 3073
EndChar

StartChar: whitebullet
Encoding: 9702 9702 590
Width: 1229
Flags: W
HStem: 542 151<507.206 723.272> 1007 149<507.006 723.618>
VStem: 308 150<740.708 958.376> 773 149<743.509 957.403>
LayerCount: 2
Fore
SplineSet
922 850 m 0
 922 666 774 542 614 542 c 256
 445 542 308 677 308 850 c 0
 308 1020 444 1156 614 1156 c 0
 789 1156 922 1019 922 850 c 0
773 850 m 0
 773 940 699 1007 614 1007 c 256
 533 1007 458 944 458 850 c 0
 458 755 533 693 614 693 c 256
 702 693 773 762 773 850 c 0
EndSplineSet
Validated: 3073
EndChar

StartChar: smileface
Encoding: 9786 9786 591
Width: 1229
Flags: W
HStem: 124 168<439.58 785.366> 452 72<496.41 731.857> 811 152<347.885 484.01 746.193 883.089> 1268 155<436.441 787.383>
VStem: 0 171<575.184 977.241> 340 152<818.876 956.017> 739 151<818.058 956.328> 1060 168<575.257 978.266>
CounterMasks: 2 d0 0f
LayerCount: 2
Fore
SplineSet
1228 779 m 3
 1228 437 960 124 614 124 c 3
 270 124 0 440 0 779 c 3
 0 1185 240 1423 614 1423 c 3
 1005 1423 1228 1146 1228 779 c 3
1060 779 m 3
 1060 1028 866 1268 614 1268 c 3
 364 1268 171 1027 171 779 c 3
 171 521 377 292 614 292 c 3
 857 292 1060 524 1060 779 c 3
492 889 m 259
 492 847 458 811 414 811 c 259
 372 811 340 849 340 889 c 259
 340 927 370 963 414 963 c 259
 460 963 492 928 492 889 c 259
890 889 m 259
 890 847 859 811 817 811 c 259
 771 811 739 847 739 889 c 259
 739 929 770 963 817 963 c 259
 859 963 890 929 890 889 c 259
374 612 m 1
 426 641 l 1
 469 564 532 524 614 524 c 259
 698 524 761 564 803 641 c 1
 856 612 l 1
 801 505 720 452 614 452 c 3
 485 452 414 536 374 612 c 1
EndSplineSet
Validated: 3073
EndChar

StartChar: invsmileface
Encoding: 9787 9787 592
Width: 1229
Flags: W
HStem: 124 270<457.299 771.533> 985 409<309 928.5>
VStem: 0 302<609.5 972.714> 458 315<836.876 976.783> 928 300<608 977.665>
CounterMasks: 1 38
LayerCount: 2
Fore
SplineSet
1228 779 m 0
 1228 437 960 124 614 124 c 0
 270 124 0 440 0 779 c 0
 0 1135 284 1394 614 1394 c 0
 960 1394 1228 1122 1228 779 c 0
458 907 m 256
 458 947 425 985 380 985 c 256
 334 985 302 946 302 907 c 256
 302 867 335 829 380 829 c 256
 424 829 458 865 458 907 c 256
928 907 m 256
 928 948 897 985 851 985 c 256
 805 985 773 948 773 907 c 256
 773 865 806 829 851 829 c 256
 896 829 928 865 928 907 c 256
332 582 m 1
 378 493 462 394 614 394 c 0
 768 394 850 492 898 582 c 1
 837 617 l 1
 786 525 713 478 614 478 c 256
 517 478 444 525 393 617 c 1
 332 582 l 1
EndSplineSet
Validated: 3073
EndChar

StartChar: compass
Encoding: 9788 9788 593
Width: 1229
Flags: W
HStem: 603 55<0 217 1015 1229> 946 80<649 765.722>
VStem: 217 81<658 782.415> 582 67<78 238.515 1026 1222> 930 85<656 787.294>
LayerCount: 2
Fore
SplineSet
582 1222 m 1
 649 1222 l 1
 649 1026 l 1
 741 1026 809 989 873 945 c 1
 1060 1110 l 1
 1105 1068 l 1
 921 902 l 1
 979 833 1015 725 1015 656 c 1
 1229 656 l 1
 1229 603 l 1
 1015 603 l 1
 1004 531 975 423 922 364 c 1
 1105 192 l 1
 1058 154 l 1
 873 318 l 1
 798 268 742 244 649 235 c 1
 649 78 l 1
 582 78 l 1
 582 235 l 1
 498 246 425 273 359 315 c 1
 171 155 l 1
 127 194 l 1
 310 361 l 1
 257 422 227 528 217 603 c 1
 0 603 l 1
 0 658 l 1
 217 658 l 1
 217 736 255 842 309 900 c 1
 127 1067 l 1
 167 1111 l 1
 358 946 l 1
 434 994 510 1019 582 1026 c 1
 582 1222 l 1
614 946 m 256
 432 946 298 801 298 629 c 0
 298 453 434 312 614 312 c 256
 796 312 930 457 930 629 c 0
 930 807 791 946 614 946 c 256
EndSplineSet
Validated: 3073
EndChar

StartChar: female
Encoding: 9792 9792 594
Width: 1229
Flags: W
HStem: 458 92<235 569 666 996> 770 109<473.03 569 666 759.957> 1426 110<470.923 760.129>
VStem: 245 105<1002.66 1299.99> 569 97<65 458 550 777.615> 882 106<1002.95 1305.35>
LayerCount: 2
Fore
SplineSet
569 770 m 1
 383 797 245 952 245 1149 c 0
 245 1382 424 1536 617 1536 c 0
 811 1536 988 1380 988 1149 c 0
 988 939 839 793 666 770 c 1
 666 550 l 1
 996 550 l 1
 996 458 l 1
 666 458 l 1
 666 65 l 1
 569 65 l 1
 569 458 l 1
 235 458 l 1
 235 550 l 1
 569 550 l 1
 569 770 l 1
616 1426 m 0
 469 1426 350 1306 350 1153 c 256
 350 996 470 879 616 879 c 256
 758 879 882 993 882 1153 c 256
 882 1312 760 1426 616 1426 c 0
EndSplineSet
Validated: 3073
EndChar

StartChar: male
Encoding: 9794 9794 595
Width: 1229
Flags: W
HStem: 327 107<289.885 580.613> 1001 110<284.457 581.549> 1040 21G<1140.5 1166.96>
VStem: 57 101<567.303 873.211> 709 100<563.533 874.885>
LayerCount: 2
Fore
SplineSet
633 1054 m 1xd8
 968 1359 l 1
 898 1435 689 1509 689 1515 c 1
 717 1547 l 9
 887 1547 1153 1547 1153 1547 c 0
 1175 1528 l 0
 1175 1528 1175 1247 1175 1067 c 273
 1144 1040 l 1xb8
 1137 1040 1060 1227 1028 1296 c 1
 701 997 l 1
 773 925 809 831 809 731 c 0
 809 505 638 327 432 327 c 256
 217 327 57 509 57 714 c 0
 57 927 220 1111 434 1111 c 0
 496 1111 561 1091 633 1054 c 1xd8
434 1001 m 0xd8
 279 1001 158 877 158 718 c 256
 158 554 289 434 434 434 c 256
 576 434 709 545 709 718 c 0
 709 885 580 1001 434 1001 c 0xd8
EndSplineSet
Validated: 3073
EndChar

StartChar: spade
Encoding: 9824 9824 596
Width: 1229
Flags: W
HStem: 161 37<225 352.978 893.198 1007>
VStem: 609 18<554.89 672>
LayerCount: 2
Fore
SplineSet
616 1440 m 1
 710 1047 1103 984 1103 704 c 0
 1103 572 1002 480 883 480 c 0
 779 480 694 544 627 672 c 1
 627 326 818 198 1007 198 c 1
 1012 161 l 1
 217 161 l 1
 225 198 l 1
 533 198 609 446 609 672 c 1
 546 536 452 480 348 480 c 0
 228 480 127 577 127 699 c 0
 127 995 525 1027 616 1440 c 1
EndSplineSet
Validated: 3073
EndChar

StartChar: club
Encoding: 9827 9827 597
Width: 1229
Flags: W
HStem: 159 34<201 261.353 968.486 1032> 474 598<132.559 384.114 842.449 1101.92>
VStem: 337 553<1058.92 1335.48> 605 20<580.434 712>
LayerCount: 2
Fore
SplineSet
1040 159 m 1xd0
 195 159 l 1
 201 193 l 1
 228 198 605 273 605 665 c 0
 605 675 605 690 605 712 c 1xd0
 530 558 407 474 277 474 c 0
 135 474 0 580 0 753 c 0
 0 935 139 1072 239 1072 c 0
 281 1072 335 1055 404 1019 c 1
 348 1113 337 1146 337 1202 c 0
 337 1350 449 1428 613 1428 c 0
 773 1428 890 1352 890 1204 c 0xe0
 890 1145 867 1083 821 1019 c 1
 915 1064 929 1072 984 1072 c 0
 1114 1072 1229 917 1229 757 c 0
 1229 593 1104 474 956 474 c 0
 749 474 645 678 625 712 c 1
 625 326 840 231 1032 193 c 1
 1040 159 l 1xd0
EndSplineSet
Validated: 3073
EndChar

StartChar: heart
Encoding: 9829 9829 598
Width: 1229
Flags: W
LayerCount: 2
Fore
SplineSet
618 121 m 1
 509 525 107 864 107 1131 c 0
 107 1276 213 1332 348 1332 c 0
 456 1332 558 1315 618 1143 c 1
 666 1315 778 1334 882 1334 c 0
 1024 1334 1123 1266 1123 1144 c 0
 1123 833 723 525 618 121 c 1
EndSplineSet
Validated: 3073
EndChar

StartChar: diamond
Encoding: 9830 9830 599
Width: 1229
Flags: W
HStem: 1405 20G<549.5 664>
LayerCount: 2
Fore
SplineSet
614 1425 m 1
 714 1188 901 953 1074 801 c 1
 929 689 726 377 614 132 c 1
 524 337 305 689 158 801 c 1
 333 953 485 1153 614 1425 c 1
EndSplineSet
Validated: 3073
EndChar

StartChar: musicalnote
Encoding: 9834 9834 600
Width: 1229
Flags: W
HStem: 140 358<347.918 489.878>
VStem: 560 81<478 1067 1329 1395> 835 89<535.598 909.909>
LayerCount: 2
Fore
SplineSet
560 478 m 1
 560 1395 l 1
 641 1395 l 1
 641 1329 l 1
 808 1123 l 2
 868 1037 924 874 924 737 c 0
 924 626 890 529 823 444 c 1
 771 444 l 1
 814 538 835 628 835 713 c 256
 835 899 724 1053 641 1067 c 1
 641 478 l 2
 641 345 526 140 369 140 c 0
 291 140 245 177 245 246 c 0
 245 354 338 498 462 498 c 0
 491 498 523 492 560 478 c 1
EndSplineSet
Validated: 3073
EndChar

StartChar: musicalnotedbl
Encoding: 9835 9835 601
Width: 1229
Flags: W
HStem: 53 356<151.754 320.586> 155 355<827.471 978.707>
VStem: 364 81<348 816 953 1076> 1040 80<492 1019 1114 1238>
LayerCount: 2
Fore
SplineSet
1120 492 m 2xb0
 1120 299 987 155 849 155 c 0
 745 155 725 219 725 261 c 0
 725 367 817 510 943 510 c 0x70
 978 510 1010 502 1040 492 c 1
 1040 1019 l 1
 445 816 l 1
 445 348 l 2
 445 155 313 53 173 53 c 0
 69 53 49 117 49 159 c 0
 49 265 141 409 268 409 c 0
 303 409 338 359 364 348 c 1
 364 1243 l 1
 1120 1394 l 1
 1120 492 l 2xb0
445 953 m 1
 1040 1114 l 1
 1040 1238 l 1
 445 1076 l 1
 445 953 l 1
EndSplineSet
Validated: 3073
EndChar

StartChar: arrowboth
Encoding: 8596 8596 602
Width: 1229
VWidth: 1708
Flags: W
HStem: 520 160<373 857> 1023 20G<446.651 487.314 742.686 783.349>
LayerCount: 2
Fore
SplineSet
1076 535 m 1
 767 157 l 1
 643 259 l 1
 857 520 l 1
 373 520 l 1
 587 259 l 1
 463 157 l 1
 154 535 l 1
 154 665 l 1
 463 1043 l 1
 587 941 l 1
 373 680 l 1
 857 680 l 1
 643 941 l 1
 767 1043 l 1
 1076 665 l 1
 1076 535 l 1
EndSplineSet
Validated: 3073
EndChar

StartChar: arrowbothv
Encoding: 8597 8597 603
Width: 1229
VWidth: 1708
Flags: W
VStem: 535 160<317 906>
LayerCount: 2
Fore
SplineSet
554 55 m 1
 195 457 l 1
 315 563 l 1
 535 317 l 1
 535 906 l 1
 310 694 l 1
 200 810 l 1
 556 1145 l 1
 674 1145 l 1
 1030 810 l 1
 920 694 l 1
 695 906 l 1
 695 317 l 1
 915 563 l 1
 1035 457 l 1
 676 55 l 1
 554 55 l 1
EndSplineSet
Validated: 3073
EndChar

StartChar: updownarrowbar
Encoding: 8616 8616 604
Width: 1229
VWidth: 1708
Flags: W
HStem: -74 160<204 526 704 1026>
VStem: 535 160<317 906>
LayerCount: 2
Fore
SplineSet
1026 86 m 1
 1026 -74 l 1
 204 -74 l 1
 204 86 l 1
 526 86 l 1
 195 457 l 1
 315 563 l 1
 535 317 l 1
 535 906 l 1
 310 694 l 1
 200 810 l 1
 556 1145 l 1
 674 1145 l 1
 1030 810 l 1
 920 694 l 1
 695 906 l 1
 695 317 l 1
 915 563 l 1
 1035 457 l 1
 704 86 l 1
 1026 86 l 1
EndSplineSet
Validated: 3073
EndChar

